<svg width="80" height="26" viewBox="0 0 80 26" fill="none" xmlns="http://www.w3.org/2000/svg">
<path d="M19.6676 9.1816H10.3327V11.9272H16.953C16.6259 15.7773 13.3944 17.4192 10.3439 17.4192C6.4412 17.4192 3.0357 14.3756 3.0357 10.1095C3.0357 5.95382 6.28203 2.75332 10.3525 2.75332C13.493 2.75332 15.3435 4.73767 15.3435 4.73767L17.283 2.74691C17.283 2.74691 14.7936 0 10.2534 0C4.47258 0 0 4.83653 0 10.0606C0 15.1796 4.20724 20.1714 10.401 20.1714C15.8488 20.1714 19.8366 16.4723 19.8366 11.0026C19.8366 9.84858 19.6676 9.1816 19.6676 9.1816Z" fill="#4285F4"/>
<path d="M27.3135 7.19336C23.4833 7.19336 20.7383 10.1615 20.7383 13.6232C20.7383 17.1361 23.4008 20.1595 27.3586 20.1595C30.9414 20.1595 33.8767 17.4451 33.8767 13.6987C33.8767 9.40482 30.4623 7.19336 27.3135 7.19336ZM27.3516 9.73991C29.2353 9.73991 31.0201 11.2493 31.0201 13.6816C31.0201 16.0622 29.2428 17.6146 27.343 17.6146C25.2555 17.6146 23.6087 15.9575 23.6087 13.6627C23.6087 11.4171 25.2351 9.73991 27.3516 9.73991Z" fill="#EA4335"/>
<path d="M41.6182 7.19336C37.788 7.19336 35.043 10.1615 35.043 13.6232C35.043 17.1361 37.7054 20.1595 41.6632 20.1595C45.2461 20.1595 48.1814 17.4451 48.1814 13.6987C48.1814 9.40482 44.767 7.19336 41.6182 7.19336ZM41.6563 9.73991C43.5399 9.73991 45.3248 11.2493 45.3248 13.6816C45.3248 16.0622 43.5475 17.6146 41.6477 17.6146C39.5602 17.6146 37.9134 15.9575 37.9134 13.6627C37.9134 11.4171 39.5397 9.73991 41.6563 9.73991Z" fill="#FBBC05"/>
<path d="M55.6425 7.20117C52.1267 7.20117 49.3633 10.2533 49.3633 13.6791C49.3633 17.5813 52.5671 20.169 55.5819 20.169C57.446 20.169 58.4373 19.4355 59.169 18.5937V19.8721C59.169 22.1089 57.7989 23.4483 55.7308 23.4483C53.7329 23.4483 52.7308 21.9758 52.3826 21.1402L49.8688 22.1819C50.7606 24.0508 52.5557 26 55.7516 26C59.2471 26 61.9113 23.8176 61.9113 19.2406V7.5907H59.169V8.68894C58.3264 7.78838 57.1734 7.20117 55.6425 7.20117ZM55.897 9.74257C57.6207 9.74257 59.3906 11.2014 59.3906 13.6928C59.3906 16.2251 57.6245 17.6207 55.8589 17.6207C53.9846 17.6207 52.2406 16.1122 52.2406 13.7168C52.2406 11.2278 54.0519 9.74257 55.897 9.74257Z" fill="#4285F4"/>
<path d="M74.1048 7.18555C70.7884 7.18555 68.0039 9.80087 68.0039 13.66C68.0039 17.7435 71.1077 20.1654 74.4234 20.1654C77.1907 20.1654 78.8892 18.6648 79.9027 17.3202L77.6417 15.829C77.055 16.7316 76.0742 17.6137 74.4372 17.6137C72.5984 17.6137 71.753 16.6157 71.2292 15.6489L79.9997 12.0418L79.5444 10.9848C78.6968 8.91465 76.7202 7.18555 74.1048 7.18555ZM74.2191 9.6789C75.4141 9.6789 76.2741 10.3087 76.6393 11.0637L70.7826 13.4901C70.53 11.6116 72.3255 9.6789 74.2191 9.6789Z" fill="#EA4335"/>
<path d="M63.8242 19.7793H66.705V0.669922H63.8242V19.7793Z" fill="#34A853"/>
</svg>
