<svg width="80" height="26" viewBox="0 0 80 26" fill="none" xmlns="http://www.w3.org/2000/svg">
<path fill-rule="evenodd" clip-rule="evenodd" d="M55.4075 12.8394V14.6244H47.3698C47.4922 16.9005 48.4334 18.0244 50.8522 18.0244C52.4898 18.0244 54.2498 17.4955 55.2663 16.8155V19.5449C54.3251 20.1871 52.7251 20.6594 50.5887 20.6594C46.3251 20.6594 43.9063 18.2982 43.9063 13.4532C43.9063 9.20325 45.8545 6.10547 49.9204 6.10547C53.2522 6.10547 55.4075 7.94714 55.4075 12.8394ZM49.8451 8.75936C48.2451 8.75936 47.4357 9.93047 47.3604 12.1499H52.0004V11.8666C52.0004 10.1099 51.5016 8.75936 49.8357 8.75936H49.8451ZM24.6969 11.961V6.36047H28.0569V20.5177H24.6969V14.596H20.2263V20.5177H16.8945V6.35102H20.2263V11.961H24.6969ZM69.7134 20.5177H65.9298L60.9887 13.5666V20.5177H57.6569V6.35102H60.9887V12.896L65.6945 6.36047H69.0734L64.3675 12.896L69.7134 20.5177ZM79.5769 19.8094C78.7581 20.4044 77.6757 20.6877 76.1228 20.6877C71.6804 20.6877 69.5157 18.0999 69.5063 13.4627C69.5063 9.18436 71.7181 6.14325 75.9816 6.14325C77.6381 6.14325 78.871 6.42658 79.5769 6.82325V9.65658C78.5977 9.09046 77.4881 8.79093 76.3581 8.78769C74.1651 8.78769 72.9698 10.3366 72.9698 13.3777C72.9698 16.2488 73.9392 18.0432 76.3298 18.0432C77.7322 18.0432 78.7298 17.6655 79.5769 17.0799V19.8188V19.8094ZM41.6004 17.8638H43.0875V23.6249H40.0004V20.4894H32.5181V23.6249H29.431V17.8544H30.4663C31.6428 15.4932 31.8781 11.0166 31.8781 7.55991V6.35102H41.6004V17.8638ZM33.5628 17.8638H38.2686V9.00491H34.7392V9.42047C34.7392 11.8666 34.4945 15.7294 33.5628 17.8638Z" fill="#121212"/>
<path d="M14.0889 20.508V0.958008H9.15714C4.18773 0.958008 1.59008 3.50801 1.59008 7.28579C1.59008 10.2797 3.01126 12.0741 5.56185 13.8969L1.12891 20.508H4.79949L9.74067 13.0941L8.02773 11.9513C5.95714 10.5347 4.93126 9.44856 4.93126 7.07801C4.93126 5.00023 6.39008 3.59301 9.16655 3.59301H10.6818V20.4986H14.0889V20.508Z" fill="#FC3F1D"/>
</svg>
