<svg width="60" height="34" viewBox="0 0 60 34" fill="none" xmlns="http://www.w3.org/2000/svg">
<path fill-rule="evenodd" clip-rule="evenodd" d="M5.59472 24.0703H10.1708L13.2215 27.1336L16.2712 24.0703H20.8472V33.449H15.909V30.0032L13.2215 32.7052L10.533 30.0042V33.45H5.59375V24.0713L5.59472 24.0703ZM39.1427 24.0703H43.9609L49.3863 28.1127V24.0703H54.3236V33.449H49.4696L44.08 29.4425V33.449H39.1427V24.0703Z" fill="#BFBFBF"/>
<path fill-rule="evenodd" clip-rule="evenodd" d="M5.35261e-07 30.1341C5.35261e-07 13.4909 13.4308 0 29.9995 0C46.5692 0 60 13.4909 60 30.1332C60 31.2537 59.939 32.3607 59.8199 33.4483H56.4505C56.5842 32.3616 56.6539 31.2556 56.6539 30.1332C56.6539 15.3474 44.7204 3.36158 29.9995 3.36158C15.2787 3.36158 3.34705 15.3474 3.34705 30.1332C3.34705 31.2556 3.41485 32.3616 3.54947 33.4483H0.179168C0.0596035 32.3476 -0.000206426 31.2413 5.35261e-07 30.1341Z" fill="#BFBFBF"/>
<path fill-rule="evenodd" clip-rule="evenodd" d="M27.4483 24.0703H32.5735L38.6516 33.449H33.5177L32.8592 32.4273H27.1636L26.505 33.449H21.3711L27.4483 24.0703ZM30.0109 27.983L28.8671 29.7591H31.1556L30.0109 27.983Z" fill="#BFBFBF"/>
<path fill-rule="evenodd" clip-rule="evenodd" d="M57.1943 32.7888C57.2786 31.9152 57.3202 31.031 57.3202 30.1361C57.3202 14.9824 45.0903 2.69922 30.0043 2.69922C14.9174 2.69922 2.6875 14.9824 2.6875 30.1361C2.6875 31.031 2.73011 31.9152 2.8134 32.7888L3.28408 33.214C3.16893 32.1921 3.11138 31.1645 3.11169 30.1361C3.11169 15.2177 15.1518 3.12535 30.0043 3.12535C44.8569 3.12535 56.897 15.2177 56.897 30.1361C56.897 31.1763 56.8389 32.2038 56.7246 33.214L57.1943 32.7888Z" fill="white"/>
<path d="M10.073 24.3086H5.83203V33.2108H10.2948V29.428L13.2215 32.3673L16.1482 29.428V33.2108H20.611V24.3086H16.37L13.2225 27.4716L10.073 24.3086ZM43.8825 24.3086H39.38V33.2108H43.8428V28.9689L49.5471 33.2108H54.0863V24.3086H49.6236V28.5873L43.8825 24.3086Z" fill="white"/>
<path fill-rule="evenodd" clip-rule="evenodd" d="M31.5931 29.9974H28.4301L30.0106 27.5433L31.5931 29.9974ZM32.4454 24.3086H27.5768L21.8086 33.2108H26.3759L27.0345 32.1881H32.9877L33.6463 33.2108H38.2136L32.4454 24.3086Z" fill="white"/>
<path fill-rule="evenodd" clip-rule="evenodd" d="M30.0076 26.7607V27.5433C29.4314 28.7761 28.9036 29.5945 28.4271 29.9974L27.6484 30.4235L30.0076 26.7607Z" fill="#BFBFBF"/>
<path fill-rule="evenodd" clip-rule="evenodd" d="M0.779985 32.7857H2.81378L3.2835 33.2118H0.394531L0.779985 32.7857ZM57.1898 32.7857H59.2236L59.6081 33.2118H56.7192L57.1898 32.7857ZM5.83156 24.3086L6.25478 24.7347V32.7857H9.87107L10.2943 33.2118H5.83156V24.3086ZM9.87107 28.4004L13.222 31.7649L16.571 28.4004V32.7857H20.1873L20.6105 33.2118H16.1478V29.428L13.221 32.3663L10.2943 29.427L9.87107 28.4004ZM13.222 27.4707L16.3695 24.3086L16.5458 24.7347L13.221 28.0731V27.4716L13.222 27.4707ZM30.0105 26.7608L32.3707 30.4226L31.5921 29.9965L30.0105 27.5433V26.7608ZM39.3796 24.3086L39.8038 24.7347V32.7857H43.4181L43.8423 33.2118H39.3796V24.3086ZM43.4181 28.1244L49.6871 32.7857H53.6627L54.0859 33.2118H49.5486L43.8433 28.9699L43.4191 28.1254L43.4181 28.1244ZM49.6231 24.3086L50.0464 24.7347V29.4318L49.6231 28.5873V24.3086Z" fill="#BFBFBF"/>
<path fill-rule="evenodd" clip-rule="evenodd" d="M59.6117 33.2139C59.7153 32.2019 59.7676 31.1753 59.7676 30.1361C59.7676 13.6246 46.4414 0.239258 30.0034 0.239258C13.5645 0.240226 0.238281 13.6255 0.238281 30.1371C0.238281 31.1763 0.291547 32.2028 0.394206 33.2149L0.779659 32.7888C0.701525 31.907 0.662425 31.0223 0.662474 30.1371C0.662474 13.8599 13.7979 0.665387 30.0034 0.665387C46.208 0.665387 59.3444 13.8599 59.3444 30.1361C59.3448 31.0216 59.306 31.9067 59.2282 32.7888L59.6117 33.2139Z" fill="white"/>
<path d="M26.803 31.763H33.2182L33.8768 32.7857H37.4321L38.2136 33.2118H33.6463L32.9877 32.1881H27.0335L26.3759 33.2108H21.8086L27.5768 24.3086L27.8064 24.7347L22.5902 32.7857H26.1454L26.803 31.763Z" fill="#BFBFBF"/>
<path fill-rule="evenodd" clip-rule="evenodd" d="M9.89634 24.7363H6.25391V32.7882H9.8702V28.403L13.2211 31.7675L16.5711 28.402V32.7882H20.1864V24.7363H16.5449L13.2192 28.0756L9.89634 24.7363Z" fill="#BFBFBF"/>
<path fill-rule="evenodd" clip-rule="evenodd" d="M30.0011 0.665039C13.7956 0.665039 0.660159 13.8596 0.660159 30.1358C0.65976 31.0213 0.698537 31.9063 0.776376 32.7884H2.81018C2.72609 31.9067 2.68408 31.0215 2.68427 30.1358C2.68427 14.982 14.9142 2.69884 30.0011 2.69884C45.0871 2.69884 57.317 14.982 57.317 30.1358C57.317 31.0306 57.2753 31.9149 57.1911 32.7884H59.2249C59.303 31.9064 59.3421 31.0213 59.3421 30.1358C59.3421 13.8596 46.2057 0.665039 30.0011 0.665039Z" fill="#BFBFBF"/>
<path fill-rule="evenodd" clip-rule="evenodd" d="M43.7435 24.7363H39.8047V32.7882H43.42V28.127L49.689 32.7882H53.6645V24.7363H50.0483V29.4344L43.7435 24.7363Z" fill="#BFBFBF"/>
<path d="M32.3715 30.4252H27.6511L30.0113 26.7624L32.3715 30.4252ZM32.2155 24.7363H27.8061L22.5898 32.7882H26.1451L26.8037 31.7646H33.2179L33.8765 32.7882H37.4317L32.2155 24.7363Z" fill="#BFBFBF"/>
</svg>
