<svg width="60" height="60" viewBox="0 0 60 60" fill="none" xmlns="http://www.w3.org/2000/svg">
<g clip-path="url(#clip0_798_113701)">
<path d="M59.3437 30C59.3437 46.2187 46.2187 59.3437 30 59.3437C13.7812 59.3437 0.65625 46.2187 0.65625 30C0.65625 13.7812 13.7812 0.65625 30 0.65625C46.2187 0.65625 59.3437 13.7812 59.3437 30ZM30 2.4375C14.7187 2.4375 2.4375 14.7187 2.4375 30C2.4375 45.2812 14.8125 57.5625 30 57.5625C45.2812 57.5625 57.5625 45.1875 57.5625 30C57.5625 14.7187 45.2812 2.4375 30 2.4375Z" fill="#F8F8F8"/>
<path d="M30 2.4375C14.7188 2.4375 2.4375 14.7188 2.4375 30C2.4375 45.2812 14.8125 57.5625 30 57.5625C45.2812 57.5625 57.5625 45.1875 57.5625 30C57.5625 14.7188 45.2812 2.4375 30 2.4375ZM30 55.7812C15.75 55.7812 4.21875 44.25 4.21875 30C4.21875 15.75 15.75 4.21875 30 4.21875C44.25 4.21875 55.7812 15.75 55.7812 30C55.7812 44.25 44.25 55.7812 30 55.7812Z" fill="#BFBFBF"/>
<path opacity="0.4" d="M30 59.3438C46.2188 59.3438 59.3438 46.2188 59.3438 30C59.3438 13.7813 46.2188 0.65625 30 0.65625C13.7813 0.65625 0.65625 13.7813 0.65625 30C0.65625 46.2188 13.7813 59.3438 30 59.3438ZM30 0C46.5 0 60 13.5 60 30C60 46.5 46.5 60 30 60C13.5 60 0 46.5 0 30C0 13.5 13.5 0 30 0Z" fill="#BFBFBF"/>
<path d="M2.0625 30.0937C2.0625 14.7187 14.5312 2.0625 30 2.0625C45.4687 2.0625 57.9375 14.625 57.9375 30.0937C57.9375 45.4687 45.4687 57.9375 30 57.9375C14.5312 57.9375 2.0625 45.4687 2.0625 30.0937ZM10.7812 10.7812C5.8125 15.75 2.71875 22.5937 2.71875 30.0937C2.71875 37.5937 5.8125 44.4375 10.6875 49.3125C15.6562 54.1875 22.5 57.2812 30 57.2812C37.5 57.2812 44.3437 54.2812 49.2187 49.3125C54.1875 44.4375 57.1875 37.5937 57.1875 30.0937C57.1875 22.5937 54.0937 15.75 49.2187 10.7812C44.3437 5.8125 37.5 2.71875 30 2.71875C22.5 2.71875 15.6562 5.8125 10.7812 10.7812Z" fill="white"/>
<path opacity="0.4" d="M30 55.875C23.0625 55.875 16.5938 53.1562 11.7188 48.2812C6.84375 43.4062 4.125 36.9375 4.125 30C4.125 23.0625 6.84375 16.5938 11.7188 11.7188C16.5938 6.84375 23.0625 4.125 30 4.125C36.9375 4.125 43.4062 6.84375 48.2812 11.7188C53.1562 16.5938 55.875 23.0625 55.875 30C55.875 36.9375 53.1562 43.4062 48.2812 48.2812C43.4062 53.1562 36.9375 55.875 30 55.875ZM30 55.125C36.6562 55.125 43.0312 52.5 47.7188 47.8125C52.5 43.0312 55.0312 36.75 55.0312 30.0937C55.0312 23.4375 52.4062 17.0625 47.7188 12.375C42.9375 7.59375 36.6562 5.0625 30 5.0625C23.3438 5.0625 16.9688 7.6875 12.2813 12.375C7.5 16.9687 4.875 23.3438 4.875 30C4.875 36.6562 7.5 43.0312 12.1875 47.7188C16.9688 52.5 23.3438 55.125 30 55.125Z" fill="#E1E3E1"/>
<path d="M52.7812 42.1875C52.3125 41.8125 34.2188 27.4687 34.2188 27.4687L30 3.375C29.7188 3.46875 29.3438 3.75 29.1562 4.125L26.1562 27.5625L7.5 41.9063C7.5 41.9063 7.125 42.375 6.9375 42.6562C6.84375 42.8438 6.84375 43.125 6.84375 43.4062L29.9062 33.9375L52.9688 43.4062C53.1562 42.9375 52.9688 42.4688 52.7812 42.1875Z" fill="white"/>
<path d="M30.1875 30.7498L30 35.0623L51.1875 43.5935C51.9375 43.9685 52.5 43.781 53.0625 43.406L30.4688 30.656C30.375 30.5623 30.1875 30.656 30.1875 30.7498Z" fill="#BFBFBF"/>
<path d="M30.1875 30.7498C30.1875 30.7498 31.4062 32.906 32.8125 34.406C34.7812 36.5623 37.4063 38.0623 37.4063 38.0623L51.1875 43.5935C51.9375 43.9685 52.5 43.781 53.0625 43.406L30.4687 30.656C30.375 30.5623 30.1875 30.656 30.1875 30.7498Z" fill="#BFBFBF"/>
<path d="M52.9688 42.5625C52.9688 42.4688 52.875 42.375 52.7812 42.1875L33.4687 28.0312L30.8438 29.7188C30.8438 29.7188 31.0312 29.8125 31.125 29.7188C31.4062 29.625 31.9687 29.5313 32.5312 29.7188C33 29.9063 52.9688 42.6563 52.9688 42.6563V42.5625Z" fill="#A4AAAE" fill-opacity="0.6"/>
<path d="M52.3125 41.7188L34.3125 27.4688L33.4688 28.0313L52.7812 42.2812C52.6875 42.0937 52.5 41.9063 52.3125 41.7188Z" fill="#BFBFBF"/>
<path d="M30.4688 29.3437L30.375 29.4375C30.375 29.4375 30.375 29.625 30.5625 29.5312C30.6562 29.4375 33.375 28.0312 34.3125 27.4687L31.0312 4.96875C30.9375 4.125 30.5625 3.75 29.9062 3.46875L30.2812 29.5312L30.4688 29.3437Z" fill="#BFBFBF"/>
<path d="M28.875 4.96875V6.1875L26.8125 26.9062C26.8125 27.1875 26.9062 27.4688 27.1875 27.6562L28.4062 28.5938L29.25 5.71875L29.3438 3.9375C29.0625 4.125 28.9688 4.5 28.875 4.96875ZM27.75 28.9688L26.625 28.0312L7.59375 41.8125C7.59375 41.8125 7.03125 42.1875 6.9375 42.5625L7.59375 42.1875L27.5625 29.625C27.9375 29.4375 28.0312 29.25 27.75 28.9688Z" fill="#A4AAAE" fill-opacity="0.6"/>
<path d="M29.7188 30.7498C29.7188 30.656 29.625 30.5623 29.5313 30.656L6.84375 43.4998C7.40625 43.8748 7.96875 43.9685 8.71875 43.6873L29.9062 35.156L29.7188 30.7498Z" fill="#BFBFBF"/>
<path d="M30.375 29.4375C30.375 29.4375 30.375 29.5312 30.4687 29.5312H30.5625C30.6562 29.4375 33.375 28.0312 34.3125 27.4688L33.9375 24.75L31.0312 4.96875C31.0312 4.59375 30.9375 4.3125 30.75 4.125C30.75 4.125 32.1562 23.0625 32.1562 25.125C32.1562 27.8438 30.375 29.4375 30.375 29.4375Z" fill="#BFBFBF"/>
<path d="M29.7188 30.7498C29.7188 30.656 29.625 30.5623 29.5313 30.656L6.84375 43.4998C7.40625 43.8748 7.96875 43.9685 8.71875 43.6873L29.9062 35.156L29.7188 30.7498Z" fill="#BFBFBF" fill-opacity="0.8"/>
<path opacity="0.8" d="M8.71875 43.5938L29.9063 35.0625L29.7188 30.9375C29.3438 32.0625 28.6875 33.2812 26.9063 34.2188C25.5938 34.9688 13.0313 41.1563 8.53125 43.3125C8.25 43.5 7.875 43.5937 7.6875 43.6875C8.0625 43.875 8.34375 43.7812 8.71875 43.5938Z" fill="#BFBFBF"/>
<path d="M30.4688 29.3437L30.375 29.4375C30.375 29.4375 30.375 29.625 30.5625 29.5312C30.6562 29.4375 33.375 28.0312 34.3125 27.4687L31.0312 4.96875C30.9375 4.125 30.5625 3.75 29.9062 3.46875L30.2812 29.5312L30.4688 29.3437Z" fill="#BFBFBF"/>
<path d="M30.4688 29.3437L30.375 29.4375C30.375 29.4375 30.375 29.625 30.5625 29.5312C30.6562 29.4375 33.375 28.0312 34.3125 27.4687L31.0312 4.96875C30.9375 4.125 30.5625 3.75 29.9062 3.46875L30.2812 29.5312L30.4688 29.3437Z" fill="#BFBFBF"/>
<path d="M4.78125 41.625C4.125 40.125 0.375 32.8125 4.5 18.75H2.90625C2.0625 21.5625 1.40625 23.25 1.03125 25.7812C1.03125 25.7812 0.84375 26.7188 0.75 27.75C0.65625 28.7812 0.65625 29.3438 0.65625 30C0.65625 35.625 2.0625 38.9062 2.0625 38.9062C3.5625 43.5938 6.1875 47.8125 9.75 51C12.8437 53.7188 17.625 55.7812 21.5625 56.5312C20.9062 56.4375 9.65625 51.6562 4.78125 41.625Z" fill="#F8F8F8"/>
<path d="M30.375 30.5623H29.5312C29.625 30.5623 29.7188 30.5623 29.7188 30.656L29.9062 34.9685H30L30.1875 30.656C30.1875 30.5623 30.2813 30.4685 30.375 30.5623Z" fill="#A5ABAF"/>
<path d="M39.375 2.15625C49.2187 5.90625 58.5 16.2188 58.5 29.25C58.5 45 45.9375 57.8438 30 57.8438V59.3438C45.9375 59.3438 59.3437 46.2188 59.3437 30C59.3437 17.0625 51.0937 6.1875 39.375 2.15625Z" fill="white"/>
<path d="M55.125 18.9375C48.5625 3.84375 33.75 3 32.9062 2.90625H32.8125C44.1562 4.96875 51.375 12.375 53.9062 20.1562V20.25C55.0312 23.25 55.5938 26.4375 55.6875 29.9063C55.7812 33.1875 55.0312 36.8438 53.625 40.2188C53.5312 40.6875 53.4375 41.25 53.3438 41.25H54.8437C59.3437 32.8125 57.375 24.2813 55.125 18.9375Z" fill="#BFBFBF"/>
<path d="M2.0625 30.0937C2.0625 14.7187 14.5312 2.0625 30 2.0625C45.4687 2.0625 57.9375 14.625 57.9375 30.0937C57.9375 45.4687 45.4687 57.9375 30 57.9375C14.5312 57.9375 2.0625 45.4687 2.0625 30.0937ZM10.7812 10.7812C5.8125 15.75 2.71875 22.5937 2.71875 30.0937C2.71875 37.5937 5.8125 44.4375 10.6875 49.3125C15.6562 54.1875 22.5 57.2812 30 57.2812C37.5 57.2812 44.3437 54.2812 49.2187 49.3125C54.1875 44.4375 57.1875 37.5937 57.1875 30.0937C57.1875 22.5937 54.0937 15.75 49.2187 10.7812C44.3437 5.8125 37.5 2.71875 30 2.71875C22.5 2.71875 15.6562 5.8125 10.7812 10.7812Z" fill="#BFBFBF"/>
<path d="M7.40625 42L26.5312 28.2188C27.5625 28.7812 29.25 29.5312 29.4375 29.5312C29.625 29.625 29.625 29.4375 29.625 29.4375L27.2813 27.4687C27 27.2812 26.9063 27 26.9063 26.7187L29.1563 4.125C29.0625 4.21875 29.0625 4.40625 28.9688 4.5C28.875 4.6875 28.875 4.78125 28.875 4.96875L25.5938 27.5625L7.59375 41.7187C7.5 41.8125 7.40625 41.9062 7.40625 42Z" fill="#BFBFBF"/>
</g>
<defs>
<clipPath id="clip0_798_113701">
<rect width="60" height="60" fill="white"/>
</clipPath>
</defs>
</svg>
