<svg width="60" height="57" viewBox="0 0 60 57" fill="none" xmlns="http://www.w3.org/2000/svg">
<path d="M56.1293 23.9949C56.1101 24.0171 56.1005 24.0465 56.1029 24.0765C56.1683 24.8277 56.2031 25.5836 56.2031 26.3432C56.2031 33.2928 53.4425 39.958 48.5279 44.8724C46.3487 47.0516 43.8239 48.8065 41.0837 50.0857C41.0567 50.0983 41.0363 50.1211 41.0261 50.1493C40.4153 51.8844 39.8621 53.6358 39.3707 55.4027C36.3695 56.3705 33.2099 56.8787 29.9981 56.8787C26.7857 56.8787 23.6267 56.3705 20.6255 55.4027C20.1341 53.6358 19.5809 51.8838 18.9701 50.1493C18.9605 50.1211 18.9395 50.0983 18.9125 50.0857C16.1723 48.8065 13.6481 47.0522 11.4683 44.8724C6.55433 39.958 3.79373 33.2934 3.79373 26.3432C3.79373 25.5836 3.82853 24.8271 3.89393 24.0765C3.89633 24.0471 3.88733 24.0177 3.86753 23.9949C2.66993 22.5987 1.42913 21.244 0.144531 19.9348C1.36973 14.2278 4.21493 8.94317 8.40593 4.7517C8.76773 4.38991 9.13733 4.03833 9.51473 3.69694C11.2901 4.15472 13.0835 4.55191 14.8907 4.8903C14.9207 4.8957 14.9513 4.8891 14.9765 4.8717C19.3505 1.8124 24.5879 0.139648 29.9987 0.139648C35.4095 0.139648 40.6475 1.813 45.0215 4.8735C45.0455 4.8903 45.0755 4.8969 45.1049 4.8915C46.9127 4.55251 48.7061 4.15592 50.4821 3.69754C50.8595 4.03893 51.2297 4.39051 51.5909 4.7523C55.7825 8.94377 58.6271 14.2284 59.8523 19.9354C58.5677 21.244 57.3269 22.5993 56.1293 23.9949ZM46.6367 5.75067C46.5737 5.76327 46.5239 5.81127 46.5083 5.87367C46.4927 5.93607 46.5149 6.00146 46.5647 6.04226C47.2457 6.59724 47.9015 7.18763 48.5279 7.81461C52.4429 11.7295 54.9905 16.7555 55.8653 22.1512C55.8755 22.2141 55.9211 22.2651 55.9817 22.2831C56.0429 22.3011 56.1089 22.2819 56.1509 22.2345C56.9195 21.367 57.7049 20.5156 58.5077 19.6822C58.5701 19.6174 58.5953 19.525 58.5743 19.4374C57.3143 14.2248 54.6425 9.40996 50.7881 5.55508C50.6177 5.38468 50.4443 5.21669 50.2697 5.05109C50.2043 4.9893 50.1119 4.9647 50.0249 4.9863C48.9017 5.26469 47.7719 5.51908 46.6367 5.75067ZM47.7383 8.60418C46.8515 7.71741 45.9041 6.90444 44.9075 6.16826C44.8493 6.12506 44.7755 6.10826 44.7041 6.12086C39.8831 6.98723 34.9643 7.43362 29.9987 7.43362C25.0331 7.43362 20.1143 6.98723 15.2933 6.12086C15.2219 6.10826 15.1481 6.12506 15.0899 6.16826C14.0933 6.90444 13.1459 7.71741 12.2591 8.60418C8.22473 12.6385 5.70773 17.9051 5.07173 23.5191C5.06333 23.5929 5.08613 23.6673 5.13413 23.7243C8.29373 27.4652 11.1389 31.5007 13.6205 35.7995C16.1027 40.0984 18.1751 44.5808 19.8353 49.1875C19.8605 49.2571 19.9133 49.3135 19.9811 49.3429C23.1119 50.7066 26.5181 51.4302 29.9987 51.4302C33.4793 51.4302 36.8855 50.7066 40.0163 49.3429C40.0841 49.3135 40.1369 49.2571 40.1621 49.1875C41.8223 44.5808 43.8947 40.099 46.3769 35.7995C48.8591 31.5007 51.7037 27.4652 54.8633 23.7243C54.9113 23.6673 54.9341 23.5929 54.9257 23.5191C54.2891 17.9051 51.7727 12.6385 47.7383 8.60418ZM17.0045 4.8849C16.9295 4.9305 16.8905 5.01809 16.9073 5.10389C16.9241 5.19029 16.9931 5.25689 17.0795 5.27069C21.3257 5.94867 25.6439 6.29725 29.9981 6.29725C34.3529 6.29725 38.6717 5.94807 42.9179 5.27009C43.0043 5.25629 43.0733 5.18969 43.0901 5.10389C43.1069 5.01809 43.0679 4.9305 42.9935 4.8855C39.1067 2.53117 34.6187 1.25681 29.9987 1.25681C25.3793 1.25681 20.8919 2.53117 17.0045 4.8849ZM3.84653 22.2339C3.88853 22.2813 3.95453 22.3005 4.01573 22.2831C4.07693 22.2651 4.12193 22.2141 4.13213 22.1512C5.00693 16.7555 7.55453 11.7295 11.4695 7.81461C12.0971 7.18703 12.7541 6.59545 13.4363 6.03986C13.4855 5.99966 13.5071 5.93487 13.4921 5.87307C13.4771 5.81127 13.4273 5.76447 13.3655 5.75127C12.2285 5.51908 11.0975 5.26469 9.97313 4.9857C9.88613 4.9641 9.79313 4.9887 9.72833 5.05049C9.55373 5.21609 9.38033 5.38408 9.20993 5.55448C5.35493 9.40936 2.68313 14.2242 1.42313 19.4368C1.40213 19.5244 1.42673 19.6168 1.48973 19.6816C2.29253 20.515 3.07793 21.3664 3.84653 22.2339ZM17.9153 48.3265C17.9915 48.3685 18.0851 48.3583 18.1505 48.3013C18.2159 48.2443 18.2387 48.1525 18.2075 48.0715C16.6709 44.0547 14.8139 40.1398 12.6365 36.3677C10.4597 32.5974 7.99853 29.0341 5.28833 25.6976C5.23313 25.6298 5.14133 25.6034 5.05853 25.6316C4.97573 25.6598 4.91873 25.7372 4.91693 25.8248C4.91273 25.9976 4.91093 26.1704 4.91093 26.3438C4.91093 32.997 7.55393 39.3784 12.2591 44.0829C13.9493 45.773 15.8573 47.1956 17.9153 48.3265ZM39.5159 51.0462C39.5363 50.9856 39.5195 50.9184 39.4733 50.8746C39.4271 50.8308 39.3599 50.8164 39.2999 50.8392C36.3563 51.957 33.2081 52.5474 29.9987 52.5474C26.7893 52.5474 23.6411 51.957 20.6975 50.8392C20.6375 50.8164 20.5703 50.8302 20.5241 50.8746C20.4779 50.919 20.4611 50.9856 20.4815 51.0462C20.8487 52.146 21.1931 53.2518 21.5135 54.3641C21.5387 54.4511 21.6059 54.5189 21.6929 54.5441C24.3665 55.3313 27.1613 55.7429 29.9981 55.7429C32.8355 55.7429 35.6303 55.3319 38.3033 54.5441C38.3897 54.5189 38.4575 54.4505 38.4827 54.3641C38.8037 53.2518 39.1481 52.146 39.5159 51.0462ZM55.0799 25.8182C55.0781 25.7318 55.0223 25.6556 54.9401 25.6274C54.8579 25.5992 54.7673 25.6256 54.7127 25.6928C52.0013 29.0311 49.5383 32.5962 47.3603 36.3683C45.1823 40.141 43.3247 44.0571 41.7881 48.0751C41.7575 48.1555 41.7803 48.2467 41.8451 48.3037C41.9099 48.3601 42.0035 48.3703 42.0791 48.3289C44.1383 47.198 46.0469 45.7742 47.7383 44.0835C52.4429 39.379 55.0865 32.9976 55.0865 26.3444C55.0865 26.168 55.0841 25.9928 55.0799 25.8182ZM25.9109 17.9441C25.9223 17.9369 25.9355 17.9333 25.9487 17.9333C36.3815 17.9339 35.4107 17.9309 35.6783 17.9411C35.7101 17.9423 35.7377 17.9639 35.7461 17.9945C35.7545 18.0251 35.7419 18.0575 35.7155 18.0749C34.7207 18.7169 34.0841 19.435 33.9125 19.6402L34.3361 19.9756C35.5943 18.4343 37.5269 17.4797 39.3965 17.4797H39.7643C39.7877 17.4797 39.8099 17.4911 39.8237 17.5097C39.8375 17.5289 39.8411 17.5535 39.8339 17.5757L39.7163 17.9237C39.3377 19.0457 38.1461 21.715 35.2319 22.4061L35.3417 22.9401C36.5897 22.6941 37.3589 22.1422 38.0039 21.5812C38.0171 21.5698 38.0345 21.5632 38.0519 21.5632C38.0627 21.5632 38.0735 21.5656 38.0837 21.5704C39.9911 22.5009 41.2313 24.0405 41.6705 26.0222C41.6999 26.1518 41.7305 26.285 41.7569 26.4158C41.7635 26.4488 41.7473 26.4818 41.7173 26.4962C41.6855 26.5112 41.6507 26.5016 41.6297 26.4764C41.5607 26.3924 41.4071 26.267 41.3633 26.24C40.8569 25.9274 40.2647 25.7684 39.6047 25.7684C39.0413 25.7684 38.5451 25.886 38.2439 25.9778C38.6681 26.3426 39.0149 26.6618 39.3287 26.9756C40.3631 28.0094 41.0327 28.9987 41.4365 30.0889C41.7419 30.9133 41.8901 31.7784 41.8901 32.7342C41.8901 33.7512 41.7095 34.6842 41.3525 35.5079C41.3147 35.5961 41.2517 35.7413 41.2247 35.8193C41.2145 35.8487 41.1869 35.8685 41.1557 35.8685C41.1545 35.8685 41.1533 35.8685 41.1521 35.8685C41.1197 35.8673 41.0927 35.8445 41.0849 35.8127C41.0609 35.7149 41.0219 35.6033 40.9793 35.5139C40.1429 33.7452 38.7485 33.3738 37.7255 33.3738C37.6169 33.3738 37.5095 33.378 37.3931 33.3858C38.0921 34.4634 39.0977 36.0617 39.0977 38.0219C39.0977 39.4438 38.5319 40.8544 37.3439 42.0423C36.6779 42.7089 36.4049 42.8277 36.0959 43.0605C36.0713 43.0797 36.0347 43.0809 36.0083 43.0605C35.9825 43.0407 35.9723 43.0065 35.9843 42.9759C36.0077 42.9171 36.0287 42.7767 36.0311 42.6993C36.0875 40.5478 34.9109 38.8102 33.0233 38.239C33.2483 39.1516 33.5057 40.168 33.5057 41.5551C33.5057 43.0281 33.1397 44.2509 32.4167 45.1898C31.5869 46.2692 30.2189 46.9574 29.0189 47.1554L28.7489 47.1998C28.7447 47.2004 28.7411 47.2004 28.7375 47.2004C28.7117 47.2004 28.6877 47.1872 28.6745 47.1644C28.6595 47.1386 28.6619 47.1056 28.6805 47.0822C28.7003 47.0576 28.7555 46.9382 28.7759 46.8932C28.8371 46.7594 28.8815 46.6076 28.9139 46.4882C29.2205 45.3572 29.2295 43.9887 29.2295 43.8363C29.2295 41.9115 28.8251 40.2598 28.3547 38.515C28.1531 38.6728 28.0373 38.791 27.8705 38.9608C27.2243 39.607 26.7521 40.7434 26.4665 42.3387C26.3711 42.8721 26.2709 43.6917 26.2529 44.4602C26.2523 44.4902 26.2337 44.5166 26.2055 44.5268C26.1785 44.537 26.1467 44.5298 26.1263 44.5076C26.1263 44.5076 25.9487 44.3115 25.9025 44.2653C24.9209 43.2741 24.1079 42.1053 23.7641 40.7422C23.6471 40.2778 23.5877 39.8002 23.5877 39.3226C23.5877 37.5107 24.3143 35.8181 25.7477 34.2882L25.7453 34.2888C24.4463 34.5402 23.4677 34.9943 22.2761 36.1859C22.2341 36.2279 22.0967 36.3791 22.0967 36.3791C22.0787 36.3989 22.0511 36.4073 22.0241 36.4001C21.9977 36.3929 21.9773 36.3719 21.9719 36.3449C21.8903 35.9621 21.8177 35.4695 21.8177 35.0831C21.8177 33.9606 22.2443 32.9652 23.0849 32.124C23.8649 31.3441 24.4613 31.0837 26.3051 30.3163C25.1375 30.4759 24.6035 30.5731 23.5397 30.5731C22.2065 30.5731 21.2843 30.2995 20.7209 29.7361C20.5619 29.5771 20.4011 29.3755 20.2109 28.9615C20.1851 28.9057 20.1281 28.7707 20.1047 28.7041C20.0951 28.6771 20.1023 28.6471 20.1233 28.6273C20.1437 28.6082 20.1731 28.6015 20.2013 28.6129C20.2613 28.6375 20.8097 28.8367 20.8757 28.8583C21.0107 28.9021 21.1655 28.9483 21.2975 28.9831C21.7493 29.1013 22.1321 29.1565 22.5029 29.1565C23.5943 29.1565 24.4817 28.6759 25.5611 27.9008C26.0135 27.5756 26.3945 27.2594 26.6933 26.9606C27.1703 26.4836 27.2267 26.2652 27.2273 26.2634C27.2069 25.6286 27.1877 25.0203 24.9023 24.4203C23.6153 24.0825 22.9199 23.3001 22.5857 22.9239C22.5233 22.8537 22.4645 22.7871 22.4345 22.7631C21.9827 22.3935 21.4253 22.2058 20.7767 22.2058C20.2961 22.2058 19.7711 22.3119 19.1717 22.5303C18.8399 22.6515 18.5711 22.7691 18.1913 22.9449L17.9219 23.0691C17.8961 23.0805 17.8655 23.0769 17.8433 23.0577C17.8217 23.0385 17.8133 23.0085 17.8217 22.9815L17.9099 22.6983C18.0125 22.3683 18.1241 22.0648 18.2717 21.7144C18.3971 21.4162 18.5261 21.157 18.6659 20.9212C19.1357 20.131 19.7165 19.5916 20.3927 19.3174C20.7455 19.1746 21.1307 19.1021 21.5369 19.1021C22.5269 19.1021 23.4221 19.5394 23.7611 19.7278C23.7839 19.7404 23.7983 19.7644 23.7983 19.7902C23.8211 21.3964 24.7475 22.5183 26.0507 22.5183C26.6651 22.5183 27.1445 22.3131 27.6047 21.853C27.8447 21.613 28.0397 21.3208 28.1999 20.9614C28.2941 20.7502 28.3643 20.5924 28.3715 20.485C28.3727 20.4628 28.3847 20.443 28.4027 20.4304C28.4153 20.422 28.4297 20.4172 28.4441 20.4172C28.4513 20.4172 28.4579 20.4184 28.4645 20.4202C28.6313 20.4688 28.8275 20.575 28.9847 20.7226L29.4677 20.2924C28.9997 19.8244 28.1939 19.4632 27.2441 19.4632C26.9501 19.4632 26.7245 19.4956 26.5181 19.5292C25.9181 19.6264 25.2401 19.7938 24.5885 19.4134C24.5717 19.4038 24.5597 19.3876 24.5549 19.369C24.5501 19.3504 24.5531 19.3306 24.5627 19.3138C24.8375 18.8447 25.3517 18.2891 25.9109 17.9441ZM16.7243 27.1964C15.6479 27.1964 14.6783 26.7956 13.9205 26.0372C13.5209 25.6376 13.1639 25.2657 12.8525 24.5649C12.8393 24.5355 12.8471 24.5013 12.8711 24.4803C12.8957 24.4593 12.9305 24.4569 12.9575 24.4737C13.1693 24.6087 13.4519 24.7995 13.8581 24.9675C14.9315 25.412 15.9389 25.6628 17.5577 25.6628C19.3553 25.6628 20.7167 25.1241 21.4931 25.1241C22.6415 25.1241 23.1113 25.4252 23.9717 26.1278C23.9981 26.1494 24.0059 26.1866 23.9909 26.2166C23.9753 26.2472 23.9411 26.2628 23.9081 26.2544C23.2091 26.0774 22.3517 26.018 21.5747 26.1332C20.8787 26.2364 20.2709 26.417 19.6277 26.6078C18.6353 26.9024 17.6759 27.1964 16.7243 27.1964ZM26.0213 22.003C25.1645 22.003 24.5369 21.2848 24.3773 20.4304L24.3263 20.1592C24.3215 20.1346 24.3305 20.1094 24.3485 20.092C24.3623 20.0794 24.3797 20.0728 24.3977 20.0728C24.4145 20.0728 24.7463 20.167 24.7625 20.1712C24.9623 20.227 25.1657 20.2588 25.3613 20.2876C25.3913 20.2918 25.4153 20.3146 25.4219 20.344C25.4585 20.5084 25.4813 20.638 25.6001 20.7568C25.7297 20.8864 25.9019 20.9578 26.0861 20.9578C26.4677 20.9578 26.7539 20.6548 26.7707 20.314L26.7767 20.1952C26.7785 20.158 26.8085 20.128 26.8457 20.1262C27.3263 20.1016 27.4139 20.1142 27.8135 20.1394C27.8351 20.1406 27.8549 20.152 27.8675 20.1694C27.8801 20.1868 27.8843 20.209 27.8795 20.23C27.7751 20.6404 27.6659 21.082 27.2453 21.5014C26.8025 21.9436 26.3783 22.003 26.0213 22.003ZM30.1109 34.4856L30.2603 34.4646C30.6605 34.4076 31.0613 34.3254 31.4519 34.2198C32.1995 34.0176 33.2885 33.5994 34.1045 32.3094C34.3499 31.9212 34.5251 31.5163 34.6409 31.0699C34.7549 30.6301 34.8101 30.1507 34.8101 29.6047C34.8101 29.5237 34.8071 29.4385 34.8023 29.3515C34.8005 29.3179 34.8221 29.2873 34.8545 29.2777C34.8611 29.2759 34.8683 29.2747 34.8749 29.2747C34.9007 29.2747 34.9247 29.2879 34.9379 29.3113C35.0129 29.4427 35.0837 29.5903 35.1479 29.7499C35.2871 30.0955 35.3783 30.4861 35.4269 30.9439C35.4569 31.2283 35.4707 31.5373 35.4707 31.9152V31.9902C35.4707 32.3538 35.4713 32.697 35.4425 33.087L35.4305 33.2562L35.5451 33.1308C35.8781 32.7666 36.2369 32.349 36.6047 31.7682C37.2695 30.7171 37.6073 29.5711 37.6073 28.3616C37.6073 27.8312 37.5485 27.3464 37.4279 26.8796C37.2593 26.2268 36.9689 25.6136 36.5411 25.0053C36.2813 24.6363 36.0173 24.3177 35.7137 24.0075L35.4299 24.8943C35.6309 25.1307 35.7827 25.3491 35.9099 25.5368C36.2777 26.0786 36.5105 26.5742 36.6425 27.0956C36.7697 27.6014 36.7871 28.0868 36.7871 28.5362C36.7871 28.8961 36.7481 29.2597 36.6701 29.6155C36.6119 29.8825 36.5297 30.1645 36.4715 30.3535C36.4097 30.5527 36.2777 30.9085 36.2717 30.9235C36.2609 30.9523 36.2333 30.9709 36.2033 30.9709C36.1997 30.9709 36.1961 30.9709 36.1919 30.9703C36.1577 30.9649 36.1319 30.9361 36.1301 30.9019C36.1301 30.8977 36.1109 30.4903 36.0743 30.2737L36.0569 30.1711C36.0257 29.9809 35.9933 29.7841 35.9441 29.6233C35.7641 29.0365 35.4731 28.5392 35.0789 28.145C34.8341 27.9008 34.5461 27.6914 34.2209 27.5234C34.0331 27.4262 33.8489 27.3458 33.6509 27.2756C33.6953 27.4478 33.7415 27.6356 33.7913 27.8504C33.9521 28.5445 34.0271 29.1175 34.0271 29.6539C34.0271 30.5095 33.8339 31.2343 33.4355 31.8696C33.3005 32.085 33.1397 32.286 32.9585 32.4672L32.9387 32.4876C32.7743 32.652 32.6327 32.7936 32.4683 32.9208C32.2553 33.0864 32.1599 33.1542 31.9817 33.2664C31.9547 33.2838 31.9169 33.2814 31.8917 33.2568C31.8677 33.2328 31.8629 33.1962 31.8803 33.1668C31.9697 33.018 32.0489 32.85 32.1245 32.6916C32.2277 32.4762 32.2925 32.2494 32.3399 32.0838C32.7953 30.4759 32.0405 29.4823 31.4333 28.8751C31.3859 28.8271 31.3391 28.7821 31.2929 28.7383C31.2851 28.9165 31.2767 29.0953 31.2641 29.2753C31.2083 30.0835 31.0589 31.0027 30.3701 31.6915C30.2867 31.7748 30.1607 31.9008 30.0077 32.0274C29.8775 32.1348 29.7293 32.2572 29.5319 32.379C29.5043 32.3964 29.4683 32.3922 29.4443 32.3706C29.4203 32.3484 29.4143 32.313 29.4293 32.2836C29.4551 32.2344 29.4791 32.1924 29.5037 32.1492C29.5601 32.052 29.6183 31.9512 29.7017 31.7418C29.8397 31.3975 29.8685 31.0861 29.8685 30.8851C29.8685 30.5611 29.7995 30.3049 29.7389 30.1183C29.7167 30.0493 29.6915 29.9827 29.6639 29.9197L28.9379 30.3103C28.9523 30.3577 28.9661 30.4057 28.9775 30.4501C29.0249 30.6355 29.0489 30.8071 29.0489 30.9601C29.0489 31.3033 28.9523 31.6267 28.7531 31.9494C28.6265 32.1546 28.4609 32.3562 28.2329 32.5848C28.0367 32.781 27.8279 32.9682 27.6431 33.1332L27.3947 33.357L27.5501 33.3552C27.9239 33.351 28.4207 33.3342 28.9463 33.24C29.7809 33.09 30.4325 32.7702 30.9395 32.2632C31.1429 32.0598 31.3229 31.8234 31.4753 31.5601C31.4921 31.5307 31.5275 31.5169 31.5605 31.5271C31.5929 31.5373 31.6139 31.5691 31.6109 31.6033C31.5851 31.884 31.5143 32.1684 31.3937 32.4726C31.2575 32.8176 31.0601 33.1782 30.7901 33.5754C30.6275 33.8148 30.4445 34.0764 30.2063 34.368L30.1109 34.4856ZM30.0731 25.9322C30.1793 25.9028 30.2825 25.8674 30.3815 25.826C30.3695 25.8266 30.3575 25.8266 30.3455 25.8266C29.6669 25.8266 29.2355 25.4336 28.8179 25.0539C28.4243 24.6957 28.0523 24.3567 27.4937 24.3567C27.4151 24.3567 27.3383 24.3639 27.2633 24.3789C27.7031 24.4743 27.8849 24.6579 28.1213 24.8961L28.1747 24.9495C28.2587 25.0335 28.3403 25.1211 28.4219 25.2081C28.5011 25.2927 28.5797 25.3773 28.6595 25.4576C28.9679 25.766 29.2229 25.9838 29.6975 25.9838C29.8163 25.9838 29.9429 25.9664 30.0731 25.9322ZM35.6567 20.9686C36.2525 20.83 36.8015 20.5138 37.2881 20.0266C37.8107 19.504 38.0585 19.0967 38.1473 18.8765C36.8195 19.0972 35.6099 20.182 35.3861 20.392L35.6567 20.9686ZM29.5841 47.6558C30.9719 47.3342 32.0525 46.6514 32.8895 45.5684C33.2765 45.0668 33.5753 44.4926 33.7787 43.8621C34.3865 41.9745 33.9959 40.0972 33.9389 39.6646C33.9311 39.6076 33.9587 39.5524 34.0085 39.5242C34.0577 39.496 34.1207 39.5014 34.1651 39.5374C34.3067 39.652 34.4075 39.7576 34.5329 39.9016C35.1263 40.5808 35.4269 41.4831 35.4269 42.5841C35.4269 43.1781 35.3753 43.7199 35.2685 44.2323C35.8007 44.0079 36.8645 43.3767 37.7081 42.5331C38.9843 41.257 39.6959 39.6532 39.7121 38.0171C39.7289 36.3341 39.1907 35.3729 38.7341 34.47C38.7077 34.4178 38.7167 34.3542 38.7569 34.311C38.7959 34.2696 38.8577 34.2546 38.9135 34.278C39.7919 34.6542 40.3433 35.4491 40.6817 36.3515C40.8233 36.7283 40.9247 37.0793 41.0009 37.4555C41.1503 37.2521 41.3021 37.0169 41.4545 36.7529C42.1289 35.5835 42.4709 34.2222 42.4709 32.7066C42.4709 30.4381 41.6771 28.2764 40.0091 26.8106C39.9581 26.7644 39.9035 26.7176 39.8471 26.6732C39.7985 26.6348 39.7805 26.5694 39.8033 26.5118C39.8243 26.4578 39.8765 26.423 39.9335 26.423C39.9863 26.423 40.1447 26.4494 40.1987 26.4596C40.7909 26.5706 41.3525 26.8682 41.7809 27.2966C42.0719 27.5876 42.3215 27.9458 42.5909 28.4588C42.5327 25.0725 41.5529 22.7025 38.5829 21.16C38.5445 21.1402 38.5181 21.1036 38.5103 21.0616C38.5025 21.0196 38.5145 20.9758 38.5427 20.9434C39.6497 19.6858 40.1267 18.2873 40.4357 17.0663C40.1171 16.9955 39.7955 16.9613 39.4571 16.9613C38.5505 16.9613 37.5497 17.2145 36.4823 17.7131C36.4265 17.7395 36.3587 17.7251 36.3173 17.6777C36.2819 17.6369 36.2741 17.5805 36.2945 17.5319L39.5207 9.57615C38.7323 9.55995 37.8827 10.1845 37.6751 10.9249C37.5659 11.3101 37.6217 11.7553 37.8239 12.1159C37.8587 12.1777 37.8413 12.2557 37.7843 12.2971C37.7261 12.3391 37.6469 12.3307 37.5995 12.2791C37.3211 11.9779 36.9299 11.8075 36.5255 11.8075C35.8721 11.8075 35.2541 12.2467 35.1125 12.882C34.9067 13.8066 35.3099 14.5452 36.0239 14.7816C36.3419 14.8746 36.4295 14.886 36.7577 14.8308C36.8147 14.8218 36.8669 14.847 36.8963 14.8896C36.9269 14.9346 36.9287 14.9934 36.9011 15.0402C36.2975 16.0523 35.6315 16.6799 34.1783 16.6799C32.8379 16.6799 31.8953 15.3882 31.2245 14.2626C31.1927 14.2092 31.1999 14.1414 31.2419 14.0958C31.2845 14.0502 31.3517 14.0382 31.4069 14.0658C31.5695 14.1468 32.0489 14.3562 32.3075 14.3562C33.1211 14.3562 33.7823 13.6812 33.7823 12.852C33.7823 12.0223 33.1205 11.3473 32.3075 11.3473C32.0423 11.3473 31.7825 11.4199 31.5557 11.5573C31.4957 11.5939 31.4171 11.5801 31.3727 11.5237C31.3289 11.4679 31.3343 11.3881 31.3841 11.3383C31.6751 11.0491 31.8491 10.6363 31.8491 10.2355C31.8491 9.40576 31.1879 8.73078 30.3749 8.73078C29.5619 8.73078 28.9001 9.40576 28.9001 10.2355C28.9001 10.6483 29.0609 11.0335 29.3525 11.3203C29.4029 11.3695 29.4083 11.4487 29.3657 11.5045C29.3237 11.5597 29.2463 11.5765 29.1845 11.5405C28.9691 11.4157 28.7057 11.3467 28.4417 11.3467C27.6287 11.3467 26.9669 12.0217 26.9669 12.8514C26.9669 13.6812 27.6287 14.3556 28.4417 14.3556C28.7639 14.3556 29.0753 14.2566 29.3201 14.0772C29.3735 14.0376 29.4473 14.0418 29.4971 14.0862C29.5463 14.1312 29.5571 14.2044 29.5229 14.2614C28.8071 15.4626 27.8975 16.6901 26.5781 16.6901C25.1111 16.6901 24.4175 16.0301 23.8271 15.039C23.7989 14.9922 23.8013 14.9334 23.8319 14.8884C23.8613 14.8452 23.9135 14.8206 23.9705 14.8296C24.3011 14.8854 24.3881 14.8728 24.6989 14.7816C25.4183 14.544 25.8197 13.806 25.6187 12.8958C25.4747 12.2449 24.8561 11.8057 24.2027 11.8057C24.0659 11.8057 23.9291 11.8255 23.7959 11.8645C23.5403 11.9389 23.3099 12.0817 23.1305 12.2773C23.0825 12.3295 23.0027 12.3373 22.9457 12.2959C22.8881 12.2545 22.8707 12.1765 22.9055 12.1147C23.1065 11.7541 23.1623 11.3089 23.0537 10.9231C22.8449 10.1827 21.9941 9.55815 21.2075 9.57435L24.6725 18.0851C24.6929 18.1355 24.6827 18.1931 24.6455 18.2327C24.4949 18.3953 24.2141 18.6977 24.0239 19.0289C23.9981 19.0739 23.9513 19.0991 23.9027 19.0991C23.8817 19.0991 23.8601 19.0943 23.8397 19.0841C23.3057 18.8147 22.4729 18.4937 21.5381 18.4937C21.0569 18.4937 20.5961 18.5807 20.1695 18.7529C19.7063 18.9389 19.2833 19.222 18.9119 19.5928C18.0539 20.4508 17.3993 21.8848 16.9661 23.8533C16.9091 24.1125 16.8629 24.3471 16.8281 24.5361C17.1341 24.3093 17.3783 24.1341 17.6129 23.9781C17.8751 23.8041 18.1217 23.6613 18.4655 23.4843C19.0643 23.1759 19.9463 22.8081 20.7455 22.8081C21.2435 22.8081 21.7061 22.9545 22.0145 23.2107C22.0319 23.2251 22.0661 23.2623 22.1153 23.3187C22.3949 23.6385 23.2457 24.6129 24.7439 25.0065C26.3741 25.4342 26.5349 25.7282 26.5763 26.0684C26.5799 26.0996 26.5733 26.1314 26.5565 26.1584C26.5439 26.1788 26.2421 26.663 25.5965 27.113C25.5731 27.1292 25.5449 27.1382 25.5167 27.1382C25.4711 27.1382 25.4261 27.1154 25.3997 27.0746C25.0715 26.573 24.8735 26.3174 24.5513 25.9814C23.8181 25.2171 22.5701 24.7029 21.4469 24.7029C20.3957 24.7101 19.6391 25.1823 17.5967 25.1823C15.8285 25.1823 14.3261 24.8055 13.0067 24.0321C12.4553 23.7315 12.0131 23.3757 11.6225 23.0493C12.1319 24.1935 12.8009 25.718 13.7441 26.5418C14.6435 27.3014 15.6149 27.671 16.7129 27.671C18.7001 27.671 20.6483 26.5112 22.5821 26.5112C23.8409 26.5112 24.5207 26.93 25.0673 27.2672C25.1075 27.2918 25.1327 27.335 25.1339 27.3824C25.1351 27.4298 25.1129 27.4742 25.0739 27.5012C24.2627 28.0664 23.4851 28.5554 22.5011 28.5554C21.7427 28.5554 20.4539 28.16 19.5035 27.7934C19.4873 28.5032 19.4723 29.3347 20.2769 30.1609C20.5667 30.4579 20.9315 30.6907 21.3611 30.8527C21.7817 31.0117 22.2959 31.1053 22.9331 31.1389C22.9895 31.1419 23.0381 31.1779 23.0573 31.2313C23.0765 31.2841 23.0621 31.3435 23.0207 31.3813C22.7447 31.6357 22.4969 31.863 22.2599 32.1552C21.5591 33.0186 21.2033 34.0002 21.2033 35.0723C21.2033 35.6747 21.2843 36.3401 21.7787 37.6397L22.1615 37.1795C22.2659 37.0589 22.8251 36.4283 23.5703 35.8859C23.6231 35.8475 23.6945 35.8517 23.7425 35.8919C23.7917 35.9333 23.8061 36.0035 23.7773 36.0611C23.2463 37.1291 22.9775 38.2222 22.9775 39.31C22.9775 41.5269 24.0803 43.5777 26.2583 45.4076C26.2619 45.4106 26.5349 45.6524 26.8031 45.8744C26.8025 45.623 26.8067 45.4058 26.8067 45.149C26.8067 43.6263 27.0767 41.3691 27.8363 40.0174C27.8975 39.9082 28.0619 39.9286 28.0937 40.0504C28.1879 40.414 28.2887 40.927 28.3709 41.4591C28.6937 43.5585 28.7387 46.058 27.6527 47.8825C28.2683 47.8837 28.8791 47.8195 29.5841 47.6558Z" fill="#BFBFBF"/>
</svg>
