<svg width="32" height="32" viewBox="0 0 32 32" fill="none" xmlns="http://www.w3.org/2000/svg">
<g clip-path="url(#clip0_798_119923)">
<path d="M25.3333 6.66634H22.564C22.3415 5.4073 21.7612 4.23892 20.8926 3.30076C20.0239 2.36259 18.9036 1.69429 17.6653 1.37567C17.323 1.28762 16.9598 1.33916 16.6555 1.51894C16.3511 1.69873 16.1307 1.99204 16.0427 2.33434C15.9546 2.67665 16.0062 3.03991 16.1859 3.34422C16.3657 3.64853 16.659 3.86896 17.0013 3.95701C17.8601 4.17882 18.6208 4.67986 19.1636 5.38129C19.7064 6.08272 20.0007 6.94472 20 7.83167V22.6663H5.33333C3.86267 22.6663 2.66667 21.4703 2.66667 19.9997V14.6663H6C6.35362 14.6663 6.69276 14.5259 6.94281 14.2758C7.19286 14.0258 7.33333 13.6866 7.33333 13.333C7.33333 12.9794 7.19286 12.6402 6.94281 12.3902C6.69276 12.1402 6.35362 11.9997 6 11.9997H2.66667C1.196 11.9997 0 13.1957 0 14.6663V19.9997C0.00157107 21.1946 0.403701 22.3546 1.14211 23.2941C1.88052 24.2336 2.91259 24.8984 4.07333 25.1823C3.95486 25.8536 3.98471 26.5427 4.16079 27.2012C4.33687 27.8597 4.65491 28.4717 5.0926 28.9943C5.53029 29.5168 6.07703 29.9373 6.69445 30.2261C7.31187 30.515 7.98502 30.6652 8.66667 30.6663C9.33544 30.6653 9.99619 30.5206 10.6042 30.2421C11.2123 29.9637 11.7535 29.558 12.1912 29.0523C12.629 28.5467 12.953 27.953 13.1416 27.3114C13.3301 26.6697 13.3787 25.9951 13.284 25.333H18.716C18.6213 25.9951 18.6699 26.6697 18.8584 27.3114C19.047 27.953 19.371 28.5467 19.8088 29.0523C20.2465 29.558 20.7877 29.9637 21.3958 30.2421C22.0038 30.5206 22.6646 30.6653 23.3333 30.6663C24.015 30.6652 24.6881 30.515 25.3055 30.2261C25.923 29.9373 26.4697 29.5168 26.9074 28.9943C27.3451 28.4717 27.6631 27.8597 27.8392 27.2012C28.0153 26.5427 28.0451 25.8536 27.9267 25.1823C29.0874 24.8984 30.1195 24.2336 30.8579 23.2941C31.5963 22.3546 31.9984 21.1946 32 19.9997V13.333C32 9.65701 29.0093 6.66634 25.3333 6.66634ZM29.3333 13.333V14.6663H22.6667V9.33301H25.3333C27.5387 9.33301 29.3333 11.1277 29.3333 13.333ZM10.6667 25.9997C10.6667 27.1023 9.76933 27.9997 8.66667 27.9997C7.564 27.9997 6.66667 27.1023 6.66667 25.9997C6.66667 25.7477 6.716 25.525 6.788 25.333H10.5467C10.6187 25.525 10.668 25.7477 10.668 25.9997H10.6667ZM23.3333 27.9997C22.2307 27.9997 21.3333 27.1023 21.3333 25.9997C21.3333 25.7477 21.3827 25.525 21.4547 25.333H25.2133C25.2853 25.525 25.3347 25.7477 25.3347 25.9997C25.3347 27.1023 24.436 27.9997 23.3333 27.9997ZM26.6667 22.6663H22.6667V17.333H29.3333V19.9997C29.3333 21.4703 28.1373 22.6663 26.6667 22.6663ZM0 2.66634C0 2.31272 0.140476 1.97358 0.390524 1.72353C0.640573 1.47348 0.979711 1.33301 1.33333 1.33301H12.2053C12.559 1.33301 12.8981 1.47348 13.1481 1.72353C13.3982 1.97358 13.5387 2.31272 13.5387 2.66634C13.5387 3.01996 13.3982 3.3591 13.1481 3.60915C12.8981 3.8592 12.559 3.99967 12.2053 3.99967H1.33333C0.979711 3.99967 0.640573 3.8592 0.390524 3.60915C0.140476 3.3591 0 3.01996 0 2.66634ZM0 7.99967C0 7.64605 0.140476 7.30691 0.390524 7.05687C0.640573 6.80682 0.979711 6.66634 1.33333 6.66634H9.53867C9.89229 6.66634 10.2314 6.80682 10.4815 7.05687C10.7315 7.30691 10.872 7.64605 10.872 7.99967C10.872 8.3533 10.7315 8.69243 10.4815 8.94248C10.2314 9.19253 9.89229 9.33301 9.53867 9.33301H1.33333C0.979711 9.33301 0.640573 9.19253 0.390524 8.94248C0.140476 8.69243 0 8.3533 0 7.99967Z" fill="#F70F31"/>
</g>
<defs>
<clipPath id="clip0_798_119923">
<rect width="32" height="32" fill="white"/>
</clipPath>
</defs>
</svg>
