<svg width="32" height="32" viewBox="0 0 32 32" fill="none" xmlns="http://www.w3.org/2000/svg">
<g clip-path="url(#clip0_798_119937)">
<path d="M26.6653 10.6665C26.6691 8.93968 26.2536 7.23773 25.4544 5.70691C24.6553 4.1761 23.4964 2.8622 22.0774 1.8781C20.6584 0.894005 19.0216 0.269143 17.3078 0.0572045C15.594 -0.154734 13.8544 0.0525882 12.2384 0.661357C10.6224 1.27013 9.17835 2.26214 8.03036 3.55216C6.88236 4.84218 6.06473 6.39163 5.64772 8.06739C5.23071 9.74314 5.22678 11.4951 5.63628 13.1727C6.04578 14.8503 6.85647 16.4034 7.99867 17.6985V28.6665C7.99866 29.2945 8.17602 29.9096 8.51032 30.4412C8.84461 30.9727 9.32225 31.399 9.88822 31.671C10.4542 31.943 11.0855 32.0496 11.7094 31.9785C12.3333 31.9074 12.9244 31.6615 13.4147 31.2692L15.9987 29.1999L18.5827 31.2665C19.0728 31.6587 19.6637 31.9046 20.2873 31.9758C20.911 32.0469 21.542 31.9406 22.1079 31.6689C22.6738 31.3973 23.1515 30.9714 23.486 30.4402C23.8205 29.9091 23.9982 29.2942 23.9987 28.6665V17.6985C25.7164 15.7588 26.6649 13.2575 26.6653 10.6665ZM15.9987 2.66654C17.5809 2.66654 19.1276 3.13573 20.4432 4.01478C21.7588 4.89383 22.7842 6.14326 23.3897 7.60507C23.9952 9.06688 24.1536 10.6754 23.845 12.2273C23.5363 13.7791 22.7743 15.2046 21.6555 16.3234C20.5367 17.4422 19.1112 18.2041 17.5594 18.5128C16.0075 18.8215 14.399 18.6631 12.9372 18.0576C11.4754 17.4521 10.226 16.4267 9.34692 15.1111C8.46786 13.7955 7.99867 12.2488 7.99867 10.6665C8.00079 8.54546 8.84433 6.51186 10.3442 5.01202C11.844 3.51219 13.8776 2.66866 15.9987 2.66654ZM20.9547 29.2639C20.8419 29.3198 20.7153 29.342 20.5902 29.3278C20.4651 29.3136 20.3468 29.2636 20.2493 29.1839L15.9987 25.7825L11.7493 29.1839C11.6515 29.2624 11.5335 29.3117 11.4089 29.3262C11.2843 29.3407 11.1581 29.3197 11.0449 29.2657C10.9316 29.2116 10.836 29.1267 10.7688 29.0208C10.7017 28.9148 10.6658 28.792 10.6653 28.6665V19.8905C12.284 20.8353 14.1245 21.3331 15.9987 21.3331C17.8728 21.3331 19.7134 20.8353 21.332 19.8905V28.6665C21.3335 28.7919 21.2987 28.915 21.2317 29.021C21.1647 29.127 21.0685 29.2114 20.9547 29.2639Z" fill="#F70F31"/>
</g>
<defs>
<clipPath id="clip0_798_119937">
<rect width="32" height="32" fill="white"/>
</clipPath>
</defs>
</svg>
