<svg width="32" height="32" viewBox="0 0 32 32" xmlns="http://www.w3.org/2000/svg">
<path fill-rule="evenodd" clip-rule="evenodd" d="M32 16C32 24.8365 24.8365 32 16 32C7.16345 32 0 24.8365 0 16C0 7.16345 7.16345 0 16 0C24.8365 0 32 7.16345 32 16ZM16.1546 6.72C18.4876 6.72087 20.6775 7.62912 22.324 9.27769C23.9708 10.9263 24.8771 13.1173 24.8756 15.448C24.8736 20.2563 20.9609 24.1689 16.1544 24.1689H16.1509C14.6914 24.1684 13.257 23.8023 11.9832 23.1074L7.36 24.32L8.59737 19.8006C7.83433 18.4783 7.43277 16.9778 7.43335 15.4407C7.43507 10.6321 11.3477 6.72 16.1546 6.72Z"/>
<path d="M20.1305 17.2665C19.9125 17.1574 18.8413 16.6303 18.6413 16.5576C18.4417 16.4848 18.2962 16.4484 18.1511 16.6666C18.0059 16.8849 17.5883 17.3755 17.461 17.521C17.3339 17.6665 17.2067 17.6846 16.989 17.5755C16.9538 17.5578 16.906 17.5371 16.8471 17.5115L16.8448 17.5106C16.5379 17.3774 15.9327 17.115 15.2365 16.4938C14.5887 15.9159 14.1514 15.2024 14.0242 14.9843C13.8971 14.7661 14.0106 14.6482 14.1196 14.5397C14.185 14.4745 14.26 14.3833 14.3349 14.292C14.3723 14.2463 14.4103 14.2002 14.4464 14.1578C14.5387 14.0502 14.5788 13.9683 14.6332 13.8575C14.6429 13.8376 14.6534 13.8165 14.6644 13.7945C14.7372 13.6489 14.7008 13.5217 14.6464 13.4126C14.6103 13.3402 14.4063 12.8439 14.2201 12.3906L14.2162 12.3812L14.2129 12.3731C14.121 12.1494 14.034 11.9377 13.9744 11.7945C13.8183 11.4195 13.66 11.4204 13.5329 11.4212C13.5161 11.4214 13.4998 11.4215 13.4841 11.4206C13.3572 11.4142 13.2117 11.4131 13.0665 11.4131C12.9212 11.4131 12.6853 11.4675 12.4854 11.6857C12.4725 11.6999 12.4581 11.7152 12.4425 11.7319C12.2154 11.9743 11.7227 12.5003 11.7227 13.5037C11.7227 14.5737 12.4996 15.6075 12.6117 15.7568L12.6125 15.7578C12.6193 15.767 12.6313 15.7841 12.6482 15.8084L12.6504 15.8115C12.9107 16.1849 14.2916 18.1658 16.3352 19.0483C16.8552 19.2729 17.2608 19.4069 17.5774 19.5072C18.0995 19.6731 18.5744 19.6498 18.9501 19.5936C19.3689 19.5311 20.2394 19.0666 20.4209 18.5577C20.6025 18.0487 20.6025 17.6121 20.5481 17.5213C20.5042 17.4479 20.4012 17.398 20.2486 17.3242C20.212 17.3066 20.1725 17.2875 20.1305 17.2665Z"/>
</svg>
