<svg width="80" height="26" fill="none" xmlns="http://www.w3.org/2000/svg"><path d="M19.668 9.182h-9.335v2.745h6.62c-.327 3.85-3.559 5.492-6.61 5.492-3.902 0-7.307-3.043-7.307-7.31 0-4.155 3.246-7.356 7.316-7.356 3.141 0 4.992 1.985 4.992 1.985l1.939-1.991S14.793 0 10.253 0C4.473 0 0 4.837 0 10.06c0 5.12 4.207 10.111 10.401 10.111 5.448 0 9.436-3.699 9.436-9.168 0-1.154-.17-1.821-.17-1.821Z" fill="#4285F4"/><path d="M27.314 7.193c-3.83 0-6.576 2.969-6.576 6.43 0 3.513 2.663 6.537 6.62 6.537 3.583 0 6.519-2.715 6.519-6.461 0-4.294-3.415-6.506-6.564-6.506Zm.038 2.547c1.883 0 3.668 1.51 3.668 3.942 0 2.38-1.777 3.933-3.677 3.933-2.087 0-3.734-1.657-3.734-3.952 0-2.246 1.626-3.923 3.743-3.923Z" fill="#EA4335"/><path d="M41.618 7.193c-3.83 0-6.575 2.969-6.575 6.43 0 3.513 2.662 6.537 6.62 6.537 3.583 0 6.518-2.715 6.518-6.461 0-4.294-3.414-6.506-6.563-6.506Zm.038 2.547c1.884 0 3.669 1.51 3.669 3.942 0 2.38-1.778 3.933-3.677 3.933-2.088 0-3.735-1.657-3.735-3.952 0-2.246 1.627-3.923 3.743-3.923Z" fill="#FBBC05"/><path d="M55.642 7.201c-3.515 0-6.279 3.052-6.279 6.478 0 3.902 3.204 6.49 6.219 6.49 1.864 0 2.855-.733 3.587-1.575v1.278c0 2.237-1.37 3.576-3.438 3.576-1.998 0-3-1.472-3.348-2.308l-2.514 1.042C50.76 24.05 52.556 26 55.752 26c3.495 0 6.16-2.182 6.16-6.76V7.59h-2.743V8.69c-.843-.9-1.996-1.488-3.526-1.488Zm.255 2.542c1.724 0 3.494 1.458 3.494 3.95 0 2.532-1.767 3.928-3.532 3.928-1.874 0-3.618-1.509-3.618-3.904 0-2.49 1.81-3.974 3.656-3.974Z" fill="#4285F4"/><path d="M74.105 7.186c-3.317 0-6.101 2.615-6.101 6.474 0 4.084 3.104 6.505 6.42 6.505 2.767 0 4.465-1.5 5.479-2.845l-2.261-1.491c-.587.903-1.568 1.785-3.205 1.785-1.839 0-2.684-.998-3.208-1.965L80 12.042l-.455-1.057c-.847-2.07-2.824-3.8-5.44-3.8Zm.114 2.493c1.195 0 2.055.63 2.42 1.385l-5.856 2.426c-.253-1.878 1.543-3.811 3.436-3.811Z" fill="#EA4335"/><path d="M63.824 19.78h2.881V.67h-2.88v19.11Z" fill="#34A853"/></svg>