<svg width="80" height="26" fill="none" xmlns="http://www.w3.org/2000/svg"><path fill-rule="evenodd" clip-rule="evenodd" d="M55.407 12.84v1.784H47.37c.122 2.277 1.063 3.4 3.482 3.4 1.638 0 3.398-.529 4.414-1.209v2.73c-.94.642-2.54 1.114-4.677 1.114-4.264 0-6.683-2.36-6.683-7.206 0-4.25 1.949-7.348 6.014-7.348 3.332 0 5.487 1.842 5.487 6.734Zm-5.562-4.08c-1.6 0-2.41 1.17-2.485 3.39H52v-.283c0-1.757-.498-3.108-2.164-3.108h.01ZM24.697 11.96v-5.6h3.36v14.157h-3.36v-5.922h-4.47v5.922h-3.332V6.35h3.331v5.61h4.47Zm45.016 8.557H65.93l-4.941-6.951v6.95h-3.332V6.352h3.332v6.545l4.706-6.536h3.378l-4.705 6.536 5.345 7.622Zm9.864-.709c-.819.595-1.901.879-3.454.879-4.443 0-6.607-2.588-6.617-7.225 0-4.279 2.212-7.32 6.476-7.32 1.656 0 2.889.284 3.595.68v2.834a6.468 6.468 0 0 0-3.219-.87c-2.193 0-3.388 1.55-3.388 4.59 0 2.872.97 4.666 3.36 4.666 1.402 0 2.4-.377 3.247-.963v2.739-.01ZM41.6 17.864h1.487v5.76H40V20.49h-7.482v3.136h-3.087v-5.77h1.035c1.177-2.362 1.412-6.838 1.412-10.295V6.35H41.6v11.513Zm-8.037 0h4.706v-8.86h-3.53v.416c0 2.447-.244 6.31-1.176 8.444Z" fill="#121212"/><path d="M14.089 20.508V.958H9.157c-4.97 0-7.567 2.55-7.567 6.328 0 2.994 1.421 4.788 3.972 6.61l-4.433 6.612h3.67l4.942-7.414-1.713-1.143C5.958 10.535 4.93 9.45 4.93 7.078c0-2.078 1.46-3.485 4.236-3.485h1.515v16.906h3.407v.009Z" fill="#FC3F1D"/></svg>