<svg width="28" height="20" viewBox="0 0 28 20" fill="none" xmlns="http://www.w3.org/2000/svg">
<rect y="9.99707" width="2.57123" height="7.42799" fill="#121212"/>
<rect x="12.5703" y="17.4263" width="2.57123" height="4.85677" transform="rotate(90 12.5703 17.4263)" fill="#121212"/>
<rect x="20.2852" y="17.4263" width="2.57123" height="4.85677" transform="rotate(90 20.2852 17.4263)" fill="#121212"/>
<rect x="5.14062" y="7.42773" width="2.57123" height="9.99922" fill="#121212"/>
<rect x="5.14062" width="2.57123" height="2.57123" fill="#121212"/>
<rect x="20.2852" width="2.57123" height="2.57123" fill="#121212"/>
<rect x="22.8555" y="7.42773" width="2.57123" height="5.14246" fill="#121212"/>
<rect x="2.57031" y="7.42773" width="2.57123" height="5.14246" fill="#121212"/>
<rect x="17.7148" y="2.57202" width="2.57123" height="2.57123" fill="#121212"/>
<rect x="7.71094" y="2.57202" width="2.57123" height="2.57123" fill="#121212"/>
<rect x="5.14062" y="4.8584" width="17.7129" height="2.57123" fill="#121212"/>
<rect x="5.14062" y="12.2847" width="17.7129" height="2.57123" fill="#121212"/>
<rect x="5.14062" y="9.99707" width="17.7129" height="2.57123" fill="#121212"/>
<rect x="10.2812" y="7.42773" width="7.42799" height="2.57123" fill="#121212"/>
<rect x="20.2852" y="7.42773" width="2.57123" height="9.99922" fill="#121212"/>
<rect x="25.4297" y="9.99707" width="2.57123" height="7.42799" fill="#121212"/>
</svg>
