<svg width="250" height="60" viewBox="0 0 250 60" fill="none" xmlns="http://www.w3.org/2000/svg">
<g clip-path="url(#clip0_1803_2179)">
<path fill-rule="evenodd" clip-rule="evenodd" d="M98.6499 40.3296C94.5117 38.2111 95.2062 25.2517 100.039 25.3832C101.428 25.3832 102.629 26.7566 102.499 28.9043L106.97 28.9481V23.5861C100.444 22.2273 95.9007 22.6364 93.1082 24.7111C88.2754 28.276 87.9861 39.3653 93.0213 42.8864C97.203 45.7793 104.018 45.2825 107.172 40.7679L105.74 38.6202C103.729 40.8994 100.733 41.3962 98.6499 40.3296ZM84.9909 25.1202V22.841H76.8303V24.039C77.5248 24.3751 78.2627 24.7403 78.9573 25.2371V38.3718C77.5248 40.1543 75.9187 40.9871 74.6165 40.7679C72.0699 40.3588 72.5184 36.7501 72.5184 34.8507L72.475 22.841H64.3144V24.039C65.0523 24.3751 65.7468 24.7403 66.4414 25.2371V38.0796C66.3545 44.216 71.6503 47.3572 78.9573 41.8929V44.0845H87.4941V42.8864C86.6108 42.5261 85.771 42.0653 84.9909 41.5131V25.1202ZM18.418 22.6364H21.3263C21.8616 19.9481 22.7732 18.1218 25.1896 17.7127H27.4034V41.8929C26.7088 42.302 25.9709 42.6381 25.233 42.9303V44.0845H36.5913V42.9303C35.7232 42.5942 34.9129 42.1851 34.0882 41.6884V17.7127H36.3019C38.7183 18.1218 39.5865 19.9481 40.1218 22.6364H43.4063V15.2728H18.418V22.6364ZM53.1586 25.9092V22.841H44.6218V24.039C45.3163 24.3312 46.0108 24.6673 46.7198 25.0764V41.8491C46.0253 42.302 45.3307 42.6381 44.6218 42.9303V44.0845H55.2566V42.9303C54.5621 42.6381 53.8676 42.302 53.1586 41.8491V30.5553C53.1586 28.8166 53.5348 27.7793 55.2856 27.0342C56.6457 26.4059 57.8756 26.9027 58.6135 28.9043H62.3032V23.0163C57.2245 22.6364 54.4753 23.3816 53.1586 25.9092ZM124.897 30.9205L129.947 26.0406H129.903C130.847 25.3698 131.867 24.8155 132.942 24.3897V23.2208H122.162V24.3751C122.785 24.6234 123.392 24.9156 123.971 25.2517V27.7355L119.457 31.7095H117.778V13.8556H109.401V15.0682C110.095 15.3605 110.79 15.7257 111.499 16.1932V41.8345C110.804 42.2874 110.11 42.6673 109.401 42.9595V44.1137H119.543V42.9595C118.921 42.7111 118.357 42.3751 117.778 42.0098V34.1348H119.703L123.841 39.979C124.738 41.2647 124.738 42.302 123.841 42.9595V44.1137H133.969V42.9595C133.477 42.7549 132.985 42.5066 132.493 42.2143L124.897 30.9205ZM221.855 25.9092V22.841H213.275V24.039C213.97 24.3312 214.664 24.6673 215.373 25.0764V41.8491C214.679 42.302 213.984 42.6381 213.275 42.9303V44.0845H223.91V42.9303C223.216 42.6381 222.521 42.302 221.855 41.8491V30.5553C221.855 28.8166 222.188 27.7793 223.953 27.0342C225.314 26.4059 226.543 26.9027 227.281 28.9043H230.971V23.0163C225.878 22.6364 223.129 23.3816 221.855 25.9092ZM167.871 36.9254V25.7046H173.615V23.0893H167.871V17.5082H161.345V23.104C160.723 23.7614 159.869 23.8491 158.639 23.9806V25.7192H161.345V38.6056C161.302 40.841 161.996 42.2874 163.197 43.2371C165.816 45.3117 169.057 44.888 171.763 43.7338C172.703 43.3247 173.572 42.828 174.31 42.1559L173.282 40.2127C169.882 41.5277 167.625 41.1478 167.871 36.9254ZM153.517 29.3864C151.593 27.8523 149.046 26.9027 147.122 25.5293C143.765 23.2062 143.23 17.289 148.482 17.5812C150.942 17.7419 153.156 18.8231 153.04 22.052H156.281V15.5212C149.22 14.0309 144.431 14.6153 141.435 16.4708C136.964 19.2468 137.5 24.0536 139.554 27.4432C140.784 29.3864 142.911 30.9643 145.14 32.1624C148.178 33.7842 152.852 37.2176 148.829 40.9871C146.861 42.8864 141.812 42.1851 140.509 36.7647L137.558 36.6332L137.601 44.0114C146.008 45.341 151.795 44.8004 154.501 41.8637C157.453 38.591 156.932 32.0893 153.517 29.3864ZM197.619 25.9092L193.438 12.7744L189.256 25.9092L175.597 25.8653L186.637 33.9449L182.412 47.0796L193.452 38.9562L204.492 47.0796L200.224 33.9449L211.293 25.8653L197.619 25.9092Z" fill="#F70F31"/>
</g>
<defs>
<clipPath id="clip0_1803_2179">
<rect width="214" height="36" fill="white" transform="translate(18 12)"/>
</clipPath>
</defs>
</svg>
