<svg width="151" height="78" viewBox="0 0 151 78" fill="none" xmlns="http://www.w3.org/2000/svg">
<g clip-path="url(#clip0_798_115825)">
<path d="M75.43 40.0135L74.2682 39.0177C72.6666 37.6766 58.6816 25.5987 58.6816 16.764C58.6816 7.51414 66.1802 0.015625 75.43 0.015625C84.6798 0.015625 92.1784 7.51414 92.1784 16.764C92.1784 25.5987 78.1934 37.6766 76.5984 39.0243L75.43 40.0135ZM75.43 3.63711C68.1837 3.64531 62.3114 9.51758 62.3032 16.7639C62.3032 22.3141 70.9073 31.1803 75.43 35.2384C79.9528 31.1787 88.5568 22.3073 88.5568 16.7639C88.5486 9.51758 82.6764 3.64539 75.43 3.63711Z" fill="#121212"/>
<path d="M75.4299 23.4028C71.7634 23.4028 68.791 20.4305 68.791 16.7639C68.791 13.0973 71.7634 10.125 75.4299 10.125C79.0965 10.125 82.0688 13.0973 82.0688 16.7639C82.0688 20.4305 79.0966 23.4028 75.4299 23.4028ZM75.4299 13.4444C73.5966 13.4444 72.1105 14.9305 72.1105 16.7638C72.1105 18.5971 73.5966 20.0833 75.4299 20.0833C77.2632 20.0833 78.7494 18.5971 78.7494 16.7638C78.7494 14.9305 77.2633 13.4444 75.4299 13.4444Z" fill="#121212"/>
</g>
<rect y="48" width="151" height="30" rx="15" fill="#F6F7F9"/>
<g clip-path="url(#clip1_798_115825)">
<g clip-path="url(#clip2_798_115825)">
<path fill-rule="evenodd" clip-rule="evenodd" d="M59.3717 69.3119C56.8386 68.0173 57.2637 60.0977 60.2221 60.178C61.0724 60.178 61.8075 61.0173 61.7278 62.3298L64.4647 62.3566V59.0798C60.4701 58.2494 57.6889 58.4994 55.9794 59.7673C53.021 61.9459 52.8439 68.7227 55.9262 70.8744C58.486 72.6423 62.6578 72.3387 64.5887 69.5798L63.7118 68.2673C62.4807 69.6602 60.6472 69.9637 59.3717 69.3119ZM51.0104 60.0173V58.6244H46.0149V59.3566C46.44 59.5619 46.8918 59.7852 47.3169 60.0887V68.1155C46.44 69.2048 45.4569 69.7137 44.6597 69.5798C43.1008 69.3298 43.3754 67.1244 43.3754 65.9637L43.3488 58.6244H38.3533V59.3566C38.805 59.5619 39.2302 59.7852 39.6553 60.0887V67.9369C39.6022 71.6869 42.844 73.6066 47.3169 70.2673V71.6066H52.5427V70.8744C52.002 70.6542 51.4879 70.3727 51.0104 70.0352V60.0173ZM10.2578 58.4994H12.0381C12.3659 56.8566 12.9239 55.7405 14.403 55.4905H15.7582V70.2673C15.3331 70.5173 14.8813 70.7227 14.4296 70.9012V71.6066H21.3826V70.9012C20.8512 70.6959 20.3552 70.4459 19.8503 70.1423V55.4905H21.2055C22.6847 55.7405 23.2161 56.8566 23.5438 58.4994H25.5544V53.9994H10.2578V58.4994ZM31.5243 60.4994V58.6244H26.2984V59.3566C26.7236 59.5352 27.1488 59.7405 27.5828 59.9905V70.2405C27.1576 70.5173 26.7325 70.7227 26.2984 70.9012V71.6066H32.8086V70.9012C32.3834 70.7227 31.9583 70.5173 31.5243 70.2405V63.3387C31.5243 62.2762 31.7546 61.6423 32.8263 61.1869C33.6589 60.803 34.4118 61.1066 34.8635 62.3298H37.1221V58.7316C34.0132 58.4994 32.3303 58.9548 31.5243 60.4994ZM75.439 63.5619L78.5302 60.5798H78.5036C79.0814 60.1698 79.7059 59.8311 80.3636 59.5709V58.8566H73.7649V59.5619C74.1458 59.7137 74.5178 59.8923 74.8721 60.0977V61.6155L72.1086 64.0441H71.0811V53.1334H65.9527V53.8744C66.3779 54.053 66.8031 54.2762 67.2371 54.5619V70.2316C66.8119 70.5084 66.3868 70.7405 65.9527 70.9191V71.6244H72.1617V70.9191C71.7809 70.7673 71.4354 70.5619 71.0811 70.3387V65.5262H72.2592L74.7924 69.0977C75.3415 69.8834 75.3415 70.5173 74.7924 70.9191V71.6244H80.9925V70.9191C80.6914 70.7941 80.3902 70.6423 80.0891 70.4637L75.439 63.5619ZM134.792 60.4994V58.6244H129.54V59.3566C129.965 59.5352 130.39 59.7405 130.824 59.9905V70.2405C130.399 70.5173 129.974 70.7227 129.54 70.9012V71.6066H136.05V70.9012C135.625 70.7227 135.199 70.5173 134.792 70.2405V63.3387C134.792 62.2762 134.996 61.6423 136.076 61.1869C136.909 60.803 137.662 61.1066 138.113 62.3298H140.372V58.7316C137.254 58.4994 135.571 58.9548 134.792 60.4994ZM101.745 67.2316V60.3744H105.262V58.7762H101.745V55.3655H97.7506V58.7852C97.3697 59.1869 96.8471 59.2405 96.0943 59.3209V60.3834H97.7506V68.2584C97.724 69.6244 98.1492 70.5084 98.8843 71.0887C100.488 72.3566 102.472 72.0977 104.128 71.3923C104.704 71.1423 105.235 70.8387 105.687 70.428L105.058 69.2405C102.976 70.0441 101.595 69.8119 101.745 67.2316ZM92.9588 62.6244C91.7807 61.6869 90.2218 61.1066 89.0438 60.2673C86.9889 58.8477 86.6612 55.2316 89.8764 55.4102C91.3822 55.5084 92.7373 56.1691 92.6665 58.1423H94.6505V54.1512C90.3281 53.2405 87.3964 53.5977 85.5629 54.7316C82.826 56.428 83.1537 59.3655 84.4114 61.4369C85.1643 62.6244 86.4663 63.5887 87.8304 64.3209C89.6904 65.3119 92.5513 67.4102 90.089 69.7137C88.8844 70.8744 85.7932 70.4459 84.996 67.1334L83.1891 67.053L83.2157 71.5619C88.3618 72.3744 91.9047 72.0441 93.5611 70.2494C95.368 68.2494 95.0491 64.2762 92.9588 62.6244ZM119.956 60.4994L117.396 52.4727L114.836 60.4994L106.475 60.4727L113.233 65.4102L110.647 73.4369L117.405 68.4727L124.163 73.4369L121.55 65.4102L128.326 60.4727L119.956 60.4994Z" fill="#F70F31"/>
</g>
</g>
<defs>
<clipPath id="clip0_798_115825">
<rect width="40" height="40" fill="white" transform="translate(55.5)"/>
</clipPath>
<clipPath id="clip1_798_115825">
<rect width="131" height="22" fill="white" transform="translate(10 52)"/>
</clipPath>
<clipPath id="clip2_798_115825">
<rect width="131" height="22" fill="white" transform="translate(10 52)"/>
</clipPath>
</defs>
</svg>
