<svg width="16" height="17" viewBox="0 0 16 17" fill="none" xmlns="http://www.w3.org/2000/svg">
<path d="M6.16811 15.8332H1.28083C1.11881 15.8332 0.963421 15.7689 0.848853 15.6543C0.734285 15.5397 0.669922 15.3843 0.669922 15.2223C0.669922 15.0603 0.734285 14.9049 0.848853 14.7903C0.963421 14.6758 1.11881 14.6114 1.28083 14.6114H6.16811C6.33013 14.6114 6.48552 14.6758 6.60009 14.7903C6.71465 14.9049 6.77902 15.0603 6.77902 15.2223C6.77902 15.3843 6.71465 15.5397 6.60009 15.6543C6.48552 15.7689 6.33013 15.8332 6.16811 15.8332ZM4.94629 13.3896H1.28083C1.11881 13.3896 0.963421 13.3252 0.848853 13.2106C0.734285 13.0961 0.669922 12.9407 0.669922 12.7787C0.669922 12.6166 0.734285 12.4613 0.848853 12.3467C0.963421 12.2321 1.11881 12.1678 1.28083 12.1678H4.94629C5.10831 12.1678 5.2637 12.2321 5.37827 12.3467C5.49284 12.4613 5.5572 12.6166 5.5572 12.7787C5.5572 12.9407 5.49284 13.0961 5.37827 13.2106C5.2637 13.3252 5.10831 13.3896 4.94629 13.3896ZM3.72447 10.9459H1.28083C1.11881 10.9459 0.963421 10.8816 0.848853 10.767C0.734285 10.6524 0.669922 10.4971 0.669922 10.335C0.669922 10.173 0.734285 10.0176 0.848853 9.90305C0.963421 9.78848 1.11881 9.72412 1.28083 9.72412H3.72447C3.88649 9.72412 4.04188 9.78848 4.15645 9.90305C4.27102 10.0176 4.33538 10.173 4.33538 10.335C4.33538 10.4971 4.27102 10.6524 4.15645 10.767C4.04188 10.8816 3.88649 10.9459 3.72447 10.9459Z" fill="white"/>
<path d="M8.61359 15.8049C8.45157 15.8122 8.29331 15.7547 8.17365 15.6452C8.05398 15.5358 7.9827 15.3832 7.97549 15.2212C7.96828 15.0592 8.02573 14.9009 8.1352 14.7813C8.24467 14.6616 8.3972 14.5903 8.55922 14.5831C9.71534 14.4773 10.8174 14.0443 11.7363 13.3348C12.6552 12.6252 13.3529 11.6686 13.7476 10.5768C14.1424 9.48502 14.2179 8.30337 13.9653 7.17023C13.7127 6.03709 13.1425 4.99939 12.3214 4.17866C11.5003 3.35793 10.4623 2.78816 9.32904 2.53609C8.19578 2.28401 7.01416 2.36006 5.92258 2.75534C4.83099 3.15061 3.87463 3.84874 3.16551 4.76796C2.4564 5.68718 2.02388 6.78942 1.91863 7.94559C1.91141 8.02549 1.88852 8.10319 1.85127 8.17425C1.81402 8.24531 1.76314 8.30834 1.70154 8.35973C1.63993 8.41113 1.5688 8.44989 1.49222 8.4738C1.41563 8.4977 1.33509 8.50629 1.25518 8.49907C1.17528 8.49185 1.09758 8.46896 1.02652 8.43172C0.955458 8.39447 0.892431 8.34359 0.841035 8.28198C0.78964 8.22037 0.750882 8.14924 0.726974 8.07266C0.703066 7.99607 0.694478 7.91553 0.701698 7.83562C0.872074 5.95604 1.76077 4.21458 3.1828 2.97374C4.60483 1.7329 6.45063 1.08829 8.33596 1.17409C10.2213 1.25989 12.0009 2.06949 13.3044 3.43437C14.6078 4.79924 15.3346 6.61423 15.3336 8.50152C15.343 10.3332 14.6625 12.1014 13.4275 13.4542C12.1925 14.807 10.4936 15.6453 8.66857 15.8025C8.6503 15.8042 8.63195 15.805 8.61359 15.8049Z" fill="white"/>
<path d="M8.00153 4.83691C7.83951 4.83691 7.68412 4.90128 7.56956 5.01585C7.45499 5.13041 7.39062 5.2858 7.39062 5.44782V8.50237C7.39066 8.66438 7.45505 8.81974 7.56962 8.93429L9.40235 10.767C9.51757 10.8783 9.67189 10.9399 9.83207 10.9385C9.99224 10.9371 10.1455 10.8728 10.2587 10.7596C10.372 10.6463 10.4363 10.4931 10.4376 10.3329C10.439 10.1727 10.3775 10.0184 10.2662 9.90319L8.61244 8.24946V5.44782C8.61244 5.2858 8.54808 5.13041 8.43351 5.01585C8.31895 4.90128 8.16356 4.83691 8.00153 4.83691Z" fill="white"/>
</svg>
