<svg width="16" height="17" viewBox="0 0 16 17" fill="none" xmlns="http://www.w3.org/2000/svg">
<g clip-path="url(#clip0_2046_300)">
<path d="M12.6667 1.1665H3.33333C2.4496 1.16756 1.60237 1.51909 0.97748 2.14398C0.352588 2.76888 0.00105857 3.61611 0 4.49984L0 12.4998C0.00105857 13.3836 0.352588 14.2308 0.97748 14.8557C1.60237 15.4806 2.4496 15.8321 3.33333 15.8332H12.6667C13.5504 15.8321 14.3976 15.4806 15.0225 14.8557C15.6474 14.2308 15.9989 13.3836 16 12.4998V4.49984C15.9989 3.61611 15.6474 2.76888 15.0225 2.14398C14.3976 1.51909 13.5504 1.16756 12.6667 1.1665ZM3.33333 2.49984H12.6667C13.0659 2.50062 13.4557 2.62085 13.786 2.84504C14.1163 3.06923 14.3719 3.38714 14.52 3.75784L9.41467 8.86384C9.03895 9.23805 8.53028 9.44815 8 9.44815C7.46972 9.44815 6.96105 9.23805 6.58533 8.86384L1.48 3.75784C1.6281 3.38714 1.88374 3.06923 2.21403 2.84504C2.54432 2.62085 2.93414 2.50062 3.33333 2.49984ZM12.6667 14.4998H3.33333C2.8029 14.4998 2.29419 14.2891 1.91912 13.9141C1.54405 13.539 1.33333 13.0303 1.33333 12.4998V5.49984L5.64267 9.8065C6.26842 10.4307 7.11617 10.7812 8 10.7812C8.88383 10.7812 9.73158 10.4307 10.3573 9.8065L14.6667 5.49984V12.4998C14.6667 13.0303 14.456 13.539 14.0809 13.9141C13.7058 14.2891 13.1971 14.4998 12.6667 14.4998Z" fill="white"/>
</g>
<defs>
<clipPath id="clip0_2046_300">
<rect width="16" height="16" fill="white" transform="translate(0 0.5)"/>
</clipPath>
</defs>
</svg>
