<svg width="16" height="17" viewBox="0 0 16 17" fill="none" xmlns="http://www.w3.org/2000/svg">
<g clip-path="url(#clip0_2046_281)">
<path d="M7.97278 16.5055L7.50806 16.1072C6.86741 15.5707 1.27344 10.7396 1.27344 7.20569C1.27344 3.50575 4.27284 0.506348 7.97278 0.506348C11.6727 0.506348 14.6721 3.50575 14.6721 7.20569C14.6721 10.7396 9.07816 15.5708 8.44016 16.1098L7.97278 16.5055ZM7.97278 1.95494C5.07425 1.95822 2.72534 4.30713 2.72206 7.20566C2.72206 9.42572 6.16369 12.9722 7.97278 14.5954C9.78191 12.9716 13.2235 9.42303 13.2235 7.20566C13.2202 4.30713 10.8713 1.95825 7.97278 1.95494Z" fill="white"/>
<path d="M7.97197 9.86142C6.50534 9.86142 5.31641 8.67248 5.31641 7.20586C5.31641 5.73923 6.50534 4.55029 7.97197 4.55029C9.43859 4.55029 10.6275 5.73923 10.6275 7.20586C10.6275 8.67248 9.43862 9.86142 7.97197 9.86142ZM7.97197 5.87804C7.23866 5.87804 6.64419 6.47251 6.64419 7.20582C6.64419 7.93914 7.23866 8.53361 7.97197 8.53361C8.70528 8.53361 9.29975 7.93914 9.29975 7.20582C9.29975 6.47251 8.70531 5.87804 7.97197 5.87804Z" fill="white"/>
</g>
<defs>
<clipPath id="clip0_2046_281">
<rect width="16" height="16" fill="white" transform="translate(0 0.5)"/>
</clipPath>
</defs>
</svg>
