<svg width="16" height="17" viewBox="0 0 16 17" fill="none" xmlns="http://www.w3.org/2000/svg">
<g clip-path="url(#clip0_2046_289)">
<path d="M14.7806 1.71319L14.0806 1.10653C13.8889 0.914709 13.6613 0.762541 13.4108 0.658721C13.1603 0.554902 12.8918 0.501465 12.6206 0.501465C12.3494 0.501465 12.0809 0.554902 11.8304 0.658721C11.5799 0.762541 11.3523 0.914709 11.1606 1.10653C11.1406 1.12653 9.90728 2.73319 9.90728 2.73319C9.5414 3.11808 9.33737 3.62882 9.33737 4.15986C9.33737 4.6909 9.5414 5.20164 9.90728 5.58653L10.6806 6.55986C9.70728 8.76653 8.19395 10.2865 6.06061 11.1932L5.08728 10.4132C4.70396 10.0443 4.19263 9.83817 3.66061 9.83817C3.1286 9.83817 2.61726 10.0443 2.23395 10.4132C2.23395 10.4132 0.62728 11.6465 0.60728 11.6665C-0.199387 12.4732 -0.199387 13.7799 0.573946 14.5532L1.24061 15.3199C2.00728 16.0865 3.04061 16.5065 4.16061 16.5065C9.25395 16.5065 16.0006 9.75319 16.0006 4.66653C16.0006 3.55319 15.5806 2.51319 14.7806 1.71986V1.71319ZM4.16061 15.1665C3.40061 15.1665 2.70061 14.8865 2.22061 14.3999L1.55395 13.6332C1.42183 13.5005 1.34546 13.3223 1.34051 13.1352C1.33555 12.948 1.40237 12.766 1.52728 12.6265C1.52728 12.6265 3.12061 11.3999 3.14061 11.3799C3.41395 11.1065 3.89395 11.1065 4.17395 11.3799C4.19395 11.3999 5.53395 12.4732 5.53395 12.4732C5.72061 12.6199 5.96728 12.6599 6.18728 12.5732C8.94728 11.5199 10.9273 9.54653 12.0673 6.69986C12.1539 6.47986 12.1206 6.22653 11.9673 6.03319C11.9673 6.03319 10.8939 4.68653 10.8806 4.67319C10.5939 4.38653 10.5939 3.92653 10.8806 3.63986C10.9006 3.61986 12.1273 2.02653 12.1273 2.02653C12.4139 1.76653 12.8606 1.77319 13.1673 2.07986L13.8673 2.68653C14.3806 3.19986 14.6673 3.89986 14.6673 4.65986C14.6673 9.29986 8.15395 15.1665 4.16061 15.1665Z" fill="white"/>
</g>
<defs>
<clipPath id="clip0_2046_289">
<rect width="16" height="16" fill="white" transform="translate(0 0.5)"/>
</clipPath>
</defs>
</svg>
