<svg width="32" height="32" viewBox="0 0 32 32" fill="none" xmlns="http://www.w3.org/2000/svg">
<path fill-rule="evenodd" clip-rule="evenodd" d="M17.2462 8.80109C17.7244 8.32283 18.4998 8.32281 18.9781 8.80105L25.3117 15.1344C25.5414 15.3641 25.6704 15.6756 25.6704 16.0004C25.6704 16.3252 25.5414 16.6367 25.3117 16.8664L18.9781 23.1997C18.4998 23.678 17.7244 23.678 17.2462 23.1997C16.7679 22.7214 16.7679 21.946 17.2462 21.4678L21.4891 17.225H7.55667C6.88032 17.225 6.33203 16.6767 6.33203 16.0004C6.33203 15.324 6.88032 14.7757 7.55667 14.7757H21.4891L17.2462 10.533C16.7679 10.0548 16.7679 9.27936 17.2462 8.80109Z" fill="#121212"/>
</svg>
