<svg width="40" height="40" viewBox="0 0 40 40" fill="none" xmlns="http://www.w3.org/2000/svg">
<path d="M31.1834 13.6834C31.0284 13.5272 30.8441 13.4032 30.641 13.3186C30.4379 13.234 30.22 13.1904 30 13.1904C29.78 13.1904 29.5622 13.234 29.3591 13.3186C29.156 13.4032 28.9716 13.5272 28.8167 13.6834L21.1834 21.3168C21.0284 21.473 20.8441 21.597 20.641 21.6816C20.4379 21.7662 20.22 21.8098 20 21.8098C19.78 21.8098 19.5622 21.7662 19.3591 21.6816C19.156 21.597 18.9716 21.473 18.8167 21.3168L11.1834 13.6834C11.0284 13.5272 10.8441 13.4032 10.641 13.3186C10.4379 13.234 10.22 13.1904 10 13.1904C9.78 13.1904 9.56216 13.234 9.35906 13.3186C9.15596 13.4032 8.97162 13.5272 8.81669 13.6834C8.50627 13.9957 8.33203 14.4181 8.33203 14.8584C8.33203 15.2987 8.50627 15.7212 8.81669 16.0334L16.4667 23.6834C17.4042 24.6198 18.675 25.1457 20 25.1457C21.325 25.1457 22.5958 24.6198 23.5334 23.6834L31.1834 16.0334C31.4938 15.7212 31.668 15.2987 31.668 14.8584C31.668 14.4181 31.4938 13.9957 31.1834 13.6834Z" fill="#F70F31"/>
</svg>
