<svg width="24" height="24" viewBox="0 0 24 24" fill="none" xmlns="http://www.w3.org/2000/svg">
<path fill-rule="evenodd" clip-rule="evenodd" d="M2 6C2 5.44772 2.33301 5 2.7438 5H21.2562C21.667 5 22 5.44772 22 6C22 6.55228 21.667 7 21.2562 7H2.7438C2.33301 7 2 6.55228 2 6Z" fill="white"/>
<path fill-rule="evenodd" clip-rule="evenodd" d="M2 12C2 11.4477 2.33301 11 2.7438 11H21.2562C21.667 11 22 11.4477 22 12C22 12.5523 21.667 13 21.2562 13H2.7438C2.33301 13 2 12.5523 2 12Z" fill="white"/>
<path fill-rule="evenodd" clip-rule="evenodd" d="M2 18C2 17.4477 2.33301 17 2.7438 17H21.2562C21.667 17 22 17.4477 22 18C22 18.5523 21.667 19 21.2562 19H2.7438C2.33301 19 2 18.5523 2 18Z" fill="white"/>
</svg>
