<svg width="32" height="32" viewBox="0 0 32 32" fill="none" xmlns="http://www.w3.org/2000/svg">
<path d="M28.3272 6.8445C28.0021 6.45443 27.5952 6.14071 27.1353 5.92562C26.6753 5.71053 26.1737 5.59935 25.6659 5.59997H6.98292L6.93439 5.19437C6.83507 4.35129 6.42985 3.57397 5.79558 3.00976C5.1613 2.44556 4.34205 2.1337 3.49314 2.1333L3.23661 2.1333C2.93014 2.1333 2.63622 2.25505 2.41951 2.47176C2.2028 2.68846 2.08105 2.98238 2.08105 3.28886C2.08105 3.59533 2.2028 3.88925 2.41951 4.10596C2.63622 4.32267 2.93014 4.44441 3.23661 4.44441H3.49314C3.77618 4.44445 4.04936 4.54836 4.26086 4.73644C4.47237 4.92452 4.6075 5.18368 4.64061 5.46477L6.23065 18.9848C6.39573 20.3908 7.0713 21.6874 8.12913 22.6282C9.18696 23.5691 10.5534 24.0889 11.9691 24.0889H24.0366C24.3431 24.0889 24.637 23.9671 24.8537 23.7504C25.0704 23.5337 25.1922 23.2398 25.1922 22.9333C25.1922 22.6268 25.0704 22.3329 24.8537 22.1162C24.637 21.8995 24.3431 21.7777 24.0366 21.7777H11.9691C11.2539 21.7757 10.5568 21.5526 9.97342 21.1388C9.39002 20.725 8.94888 20.141 8.71048 19.4666H22.4847C23.8393 19.4667 25.151 18.9908 26.1904 18.1221C27.2298 17.2533 27.9309 16.047 28.1712 14.7138L29.0783 9.68255C29.1688 9.18335 29.1485 8.67036 29.0187 8.1799C28.8889 7.68945 28.6528 7.23355 28.3272 6.8445ZM26.8099 9.27232L25.9017 14.3036C25.7574 15.1044 25.336 15.8289 24.7113 16.3503C24.0866 16.8717 23.2984 17.1568 22.4847 17.1555H8.34301L7.25563 7.91108H25.6659C25.8357 7.91006 26.0036 7.94646 26.1577 8.01768C26.3118 8.08891 26.4483 8.1932 26.5575 8.32316C26.6667 8.45311 26.7459 8.60553 26.7896 8.76958C26.8332 8.93363 26.8402 9.10528 26.8099 9.27232Z" fill="white"/>
<path d="M10.1695 29.8669C11.4459 29.8669 12.4806 28.8321 12.4806 27.5557C12.4806 26.2793 11.4459 25.2446 10.1695 25.2446C8.89312 25.2446 7.8584 26.2793 7.8584 27.5557C7.8584 28.8321 8.89312 29.8669 10.1695 29.8669Z" fill="white"/>
<path d="M21.7252 29.8669C23.0016 29.8669 24.0363 28.8321 24.0363 27.5557C24.0363 26.2793 23.0016 25.2446 21.7252 25.2446C20.4488 25.2446 19.4141 26.2793 19.4141 27.5557C19.4141 28.8321 20.4488 29.8669 21.7252 29.8669Z" fill="white"/>
</svg>
