<svg width="30" height="30" viewBox="0 0 30 30" fill="none" xmlns="http://www.w3.org/2000/svg">
<path d="M25.9111 6.05753C23.0834 3.3142 18.4833 3.3142 15.6564 6.05753L14.9998 6.69435L14.3435 6.05753C11.5166 3.31383 6.91612 3.31383 4.08918 6.05753C1.31963 8.74516 1.30165 13.0053 4.04747 15.9674C6.55185 18.668 13.9379 24.5026 14.2513 24.7495C14.4555 24.9111 14.711 24.9993 14.9745 24.9991L14.9994 24.9987C15.2626 25.0106 15.5278 24.9229 15.7474 24.7495C16.0608 24.5026 23.4477 18.668 25.9528 15.967C28.6983 13.0053 28.6803 8.74516 25.9111 6.05753ZM24.2462 14.4769C22.2936 16.5819 16.9264 20.9234 14.9994 22.464C13.0724 20.9238 7.70627 16.5827 5.75404 14.4773C3.83855 12.4112 3.82056 9.46887 5.71233 7.63305C6.6785 6.69583 7.94733 6.22685 9.21616 6.22685C10.485 6.22685 11.7538 6.69546 12.72 7.63305L14.1633 9.03368C14.3304 9.19491 14.546 9.30038 14.779 9.33482C14.9669 9.37434 15.162 9.36752 15.3465 9.31498C15.531 9.26243 15.699 9.16585 15.8351 9.03405L17.2791 7.63305C19.2119 5.75825 22.3556 5.75862 24.2872 7.63305C26.179 9.46887 26.161 12.4112 24.2462 14.4769Z" fill="#8E8E8E"/>
</svg>
