<svg width="20" height="20" viewBox="0 0 20 20" fill="none" xmlns="http://www.w3.org/2000/svg">
<path d="M17.064 2.92881L16.335 2.29707C16.1353 2.09732 15.8983 1.93886 15.6374 1.83075C15.3765 1.72264 15.0968 1.66699 14.8144 1.66699C14.5319 1.66699 14.2523 1.72264 13.9914 1.83075C13.7305 1.93886 13.4934 2.09732 13.2938 2.29707C13.2729 2.31789 11.9884 3.99098 11.9884 3.99098C11.6074 4.39177 11.3949 4.92362 11.3949 5.47662C11.3949 6.02961 11.6074 6.56146 11.9884 6.96226L12.7939 7.97583C11.7801 10.2737 10.204 11.8565 7.98213 12.8007L6.9684 11.9884C6.56918 11.6043 6.03662 11.3897 5.48253 11.3897C4.92843 11.3897 4.39588 11.6043 3.99666 11.9884C3.99666 11.9884 2.32331 13.2728 2.30248 13.2936C1.46234 14.1336 1.46234 15.4943 2.26777 16.2996L2.9621 17.0979C3.76058 17.8963 4.8368 18.3337 6.00328 18.3337C11.308 18.3337 18.3346 11.3012 18.3346 6.00423C18.3346 4.84487 17.8972 3.76188 17.064 2.93575V2.92881ZM6.00328 16.9383C5.21174 16.9383 4.48269 16.6467 3.98277 16.1399L3.28844 15.3416C3.15084 15.2034 3.0713 15.0178 3.06614 14.8229C3.06098 14.628 3.13057 14.4385 3.26066 14.2933C3.26066 14.2933 4.92012 13.0159 4.94095 12.9951C5.22563 12.7104 5.72555 12.7104 6.01717 12.9951C6.038 13.0159 7.43361 14.1336 7.43361 14.1336C7.62802 14.2863 7.88492 14.328 8.11405 14.2377C10.9886 13.1409 13.0508 11.086 14.2381 8.12161C14.3283 7.89252 14.2936 7.62871 14.1339 7.42739C14.1339 7.42739 13.016 6.02505 13.0022 6.01117C12.7036 5.71265 12.7036 5.23364 13.0022 4.93512C13.023 4.91429 14.3006 3.2551 14.3006 3.2551C14.5991 2.98435 15.0643 2.99129 15.3837 3.31064L16.1128 3.94238C16.6474 4.47693 16.946 5.20587 16.946 5.99729C16.946 10.8291 10.1623 16.9383 6.00328 16.9383Z" fill="white"/>
</svg>
