<svg width="20" height="20" viewBox="0 0 20 20" fill="none" xmlns="http://www.w3.org/2000/svg">
<path d="M18.4641 17.4429L14.1567 13.1355C15.3306 11.6999 15.9077 9.86802 15.7687 8.01883C15.6298 6.16963 14.7854 4.44457 13.4103 3.20048C12.0351 1.95638 10.2344 1.28843 8.38055 1.33478C6.52672 1.38113 4.76163 2.13824 3.45036 3.44951C2.1391 4.76077 1.38199 6.52587 1.33563 8.3797C1.28928 10.2335 1.95724 12.0343 3.20133 13.4094C4.44543 14.7846 6.17048 15.6289 8.01968 15.7679C9.86888 15.9068 11.7007 15.3297 13.1363 14.1559L17.4438 18.4633C17.5799 18.5947 17.7621 18.6675 17.9513 18.6658C18.1406 18.6642 18.3216 18.5883 18.4553 18.4545C18.5891 18.3207 18.665 18.1397 18.6667 17.9505C18.6683 17.7613 18.5956 17.579 18.4641 17.4429ZM8.57276 14.3449C7.43097 14.3449 6.31481 14.0064 5.36544 13.372C4.41607 12.7377 3.67612 11.836 3.23918 10.7812C2.80223 9.72627 2.6879 8.56551 2.91066 7.44565C3.13341 6.32579 3.68324 5.29713 4.49061 4.48976C5.29799 3.68239 6.32664 3.13256 7.4465 2.9098C8.56636 2.68705 9.72712 2.80138 10.782 3.23832C11.8369 3.67527 12.7385 4.41521 13.3729 5.36458C14.0072 6.31396 14.3458 7.43011 14.3458 8.57191C14.3441 10.1025 13.7353 11.5699 12.653 12.6522C11.5707 13.7344 10.1033 14.3432 8.57276 14.3449Z" fill="#8E8E8E"/>
</svg>
