<svg width="24" height="24" viewBox="0 0 24 24" fill="none" xmlns="http://www.w3.org/2000/svg">
<path d="M12 12.5C12.923 12.5 13.8252 12.2214 14.5927 11.6995C15.3601 11.1775 15.9582 10.4357 16.3114 9.56775C16.6646 8.6998 16.7571 7.74473 16.577 6.82332C16.3969 5.90191 15.9525 5.05554 15.2998 4.39124C14.6472 3.72695 13.8157 3.27455 12.9104 3.09127C12.0052 2.90799 11.0669 3.00206 10.2141 3.36157C9.36142 3.72109 8.63259 4.32991 8.11981 5.11104C7.60703 5.89218 7.33333 6.81054 7.33333 7.75C7.33457 9.00939 7.82663 10.2168 8.70153 11.1074C9.57644 11.9979 10.7627 12.4987 12 12.5ZM12 4.58334C12.6153 4.58334 13.2168 4.76906 13.7284 5.11701C14.2401 5.46497 14.6388 5.95954 14.8743 6.53817C15.1098 7.1168 15.1714 7.75351 15.0513 8.36779C14.9313 8.98206 14.635 9.54631 14.1999 9.98917C13.7648 10.432 13.2104 10.7336 12.6069 10.8558C12.0035 10.978 11.3779 10.9153 10.8094 10.6756C10.2409 10.4359 9.75506 10.0301 9.41321 9.50931C9.07135 8.98855 8.88889 8.37631 8.88889 7.75C8.88889 6.91015 9.21667 6.1047 9.80011 5.51083C10.3836 4.91697 11.1749 4.58334 12 4.58334ZM12 14.0833C10.1441 14.0854 8.36483 14.8368 7.05253 16.1725C5.74022 17.5083 5.00206 19.3193 5 21.2083C5 21.4183 5.08194 21.6197 5.22781 21.7681C5.37367 21.9166 5.5715 22 5.77778 22C5.98406 22 6.18189 21.9166 6.32775 21.7681C6.47361 21.6197 6.55556 21.4183 6.55556 21.2083C6.55556 19.7386 7.12916 18.329 8.1502 17.2898C9.17123 16.2505 10.556 15.6667 12 15.6667C13.444 15.6667 14.8288 16.2505 15.8498 17.2898C16.8708 18.329 17.4444 19.7386 17.4444 21.2083C17.4444 21.4183 17.5264 21.6197 17.6722 21.7681C17.8181 21.9166 18.0159 22 18.2222 22C18.4285 22 18.6263 21.9166 18.7722 21.7681C18.9181 21.6197 19 21.4183 19 21.2083C18.9979 19.3193 18.2598 17.5083 16.9475 16.1725C15.6352 14.8368 13.8559 14.0854 12 14.0833Z" fill="white"/>
</svg>
