<svg width="60" height="34" fill="none" xmlns="http://www.w3.org/2000/svg"><path fill-rule="evenodd" clip-rule="evenodd" d="M5.595 24.07h4.576l3.05 3.064 3.05-3.064h4.576v9.379H15.91v-3.446l-2.688 2.702-2.688-2.7v3.445h-4.94v-9.379h.002Zm33.548 0h4.818l5.425 4.043V24.07h4.938v9.379H49.47l-5.39-4.006v4.006h-4.937V24.07Z" fill="#BFBFBF"/><path fill-rule="evenodd" clip-rule="evenodd" d="M0 30.134C0 13.491 13.43 0 30 0s30 13.49 30 30.133c0 1.12-.061 2.228-.18 3.315h-3.37c.134-1.086.204-2.192.204-3.315 0-14.786-11.934-26.771-26.655-26.771-14.72 0-26.652 11.985-26.652 26.771 0 1.123.068 2.229.202 3.315H.18C.06 32.348 0 31.241 0 30.134Z" fill="#BFBFBF"/><path fill-rule="evenodd" clip-rule="evenodd" d="M27.448 24.07h5.126l6.078 9.379h-5.134l-.659-1.022h-5.695l-.659 1.022h-5.134l6.077-9.379Zm2.563 3.913-1.144 1.776h2.289l-1.145-1.776Z" fill="#BFBFBF"/><path fill-rule="evenodd" clip-rule="evenodd" d="M57.194 32.789c.085-.874.126-1.758.126-2.653C57.32 14.982 45.09 2.7 30.004 2.7 14.917 2.7 2.687 14.982 2.687 30.136c0 .895.043 1.78.126 2.653l.471.425a27.414 27.414 0 0 1-.172-3.078c0-14.918 12.04-27.01 26.892-27.01 14.853 0 26.893 12.092 26.893 27.01 0 1.04-.058 2.068-.172 3.078l.47-.425Z" fill="#fff"/><path d="M10.073 24.309H5.832v8.902h4.463v-3.783l2.927 2.94 2.926-2.94v3.783h4.463v-8.902H16.37l-3.148 3.163-3.149-3.163Zm33.81 0H39.38v8.902h4.463v-4.242l5.704 4.242h4.54v-8.902h-4.463v4.278l-5.742-4.278Z" fill="#fff"/><path fill-rule="evenodd" clip-rule="evenodd" d="M31.593 29.997H28.43l1.58-2.454 1.583 2.454Zm.852-5.688h-4.868l-5.768 8.902h4.567l.659-1.023h5.953l.658 1.023h4.568l-5.769-8.902Z" fill="#fff"/><path fill-rule="evenodd" clip-rule="evenodd" d="M30.008 26.76v.783c-.577 1.233-1.104 2.052-1.58 2.454l-.78.427 2.36-3.663ZM.78 32.786h2.034l.47.426H.393l.386-.426Zm56.41 0h2.034l.384.426H56.72l.47-.426ZM5.832 24.309l.423.426v8.05H9.87l.423.427H5.832v-8.903Zm4.04 4.091 3.35 3.365 3.349-3.365v4.386h3.616l.423.426h-4.462v-3.784l-2.927 2.938-2.927-2.939-.423-1.027Zm3.35-.93 3.147-3.161.177.426-3.325 3.338v-.601l.001-.001Zm16.788-.71 2.36 3.663-.778-.426-1.581-2.454v-.782Zm9.37-2.451.424.426v8.05h3.614l.424.427H39.38v-8.903Zm4.038 3.815 6.27 4.662h3.975l.423.426h-4.537l-5.706-4.242-.424-.845Zm6.205-3.815.423.426v4.697l-.423-.845V24.31Z" fill="#BFBFBF"/><path fill-rule="evenodd" clip-rule="evenodd" d="M59.612 33.214c.103-1.012.156-2.039.156-3.078C59.768 13.625 46.44.24 30.003.24 13.565.24.238 13.625.238 30.137c0 1.04.054 2.066.156 3.078l.386-.426a30.024 30.024 0 0 1-.118-2.652C.662 13.86 13.798.665 30.003.665c16.205 0 29.341 13.195 29.341 29.471 0 .886-.038 1.77-.116 2.653l.384.425Z" fill="#fff"/><path d="M26.803 31.763h6.415l.659 1.023h3.555l.782.426h-4.568l-.658-1.024h-5.954l-.658 1.023h-4.567l5.768-8.902.23.426-5.217 8.05h3.555l.658-1.022Z" fill="#BFBFBF"/><path fill-rule="evenodd" clip-rule="evenodd" d="M9.896 24.736H6.254v8.052H9.87v-4.385l3.351 3.364 3.35-3.365v4.386h3.615v-8.052h-3.641l-3.326 3.34-3.323-3.34Z" fill="#BFBFBF"/><path fill-rule="evenodd" clip-rule="evenodd" d="M30.001.665C13.796.665.661 13.86.661 30.135c-.001.886.038 1.771.115 2.653H2.81a27.876 27.876 0 0 1-.126-2.652c0-15.154 12.23-27.437 27.317-27.437 15.086 0 27.316 12.283 27.316 27.437 0 .895-.042 1.779-.126 2.652h2.034c.078-.882.117-1.767.117-2.652C59.342 13.86 46.206.665 30.002.665Z" fill="#BFBFBF"/><path fill-rule="evenodd" clip-rule="evenodd" d="M43.743 24.736h-3.938v8.052h3.615v-4.661l6.269 4.661h3.975v-8.052h-3.616v4.698l-6.305-4.698Z" fill="#BFBFBF"/><path d="M32.371 30.425h-4.72l2.36-3.663 2.36 3.663Zm-.156-5.689h-4.409l-5.216 8.052h3.555l.659-1.023h6.414l.658 1.023h3.556l-5.217-8.052Z" fill="#BFBFBF"/></svg>