<svg width="60" height="60" fill="none" xmlns="http://www.w3.org/2000/svg"><g clip-path="url(#a)"><path d="M59.344 30c0 16.219-13.125 29.344-29.344 29.344S.656 46.219.656 30 13.781.656 30 .656 59.344 13.781 59.344 30ZM30 2.437A27.487 27.487 0 0 0 2.437 30c0 15.281 12.376 27.563 27.563 27.563 15.281 0 27.563-12.376 27.563-27.563A27.487 27.487 0 0 0 30 2.437Z" fill="#F8F8F8"/><path d="M30 2.438A27.488 27.488 0 0 0 2.437 30c0 15.281 12.376 27.563 27.563 27.563 15.281 0 27.563-12.376 27.563-27.563A27.488 27.488 0 0 0 30 2.437Zm0 53.343C15.75 55.781 4.219 44.25 4.219 30 4.219 15.75 15.75 4.219 30 4.219 44.25 4.219 55.781 15.75 55.781 30c0 14.25-11.531 25.781-25.781 25.781Z" fill="#BFBFBF"/><path opacity=".4" d="M30 59.344c16.219 0 29.344-13.125 29.344-29.344S46.219.656 30 .656.656 13.781.656 30 13.781 59.344 30 59.344ZM30 0c16.5 0 30 13.5 30 30S46.5 60 30 60 0 46.5 0 30 13.5 0 30 0Z" fill="#BFBFBF"/><path d="M2.063 30.094C2.063 14.719 14.53 2.062 30 2.062c15.469 0 27.938 12.563 27.938 28.032 0 15.375-12.47 27.843-27.938 27.843-15.469 0-27.938-12.468-27.938-27.843ZM10.78 10.78C5.812 15.75 2.72 22.594 2.72 30.094c0 7.5 3.094 14.343 7.969 19.218 4.968 4.876 11.812 7.97 19.312 7.97 7.5 0 14.344-3 19.219-7.97 4.968-4.874 7.968-11.718 7.968-19.218S54.094 15.75 49.22 10.78A26.909 26.909 0 0 0 30 2.72a26.91 26.91 0 0 0-19.219 8.062Z" fill="#fff"/><path opacity=".4" d="M30 55.875c-6.938 0-13.406-2.719-18.281-7.594C6.844 43.406 4.125 36.938 4.125 30c0-6.938 2.719-13.406 7.594-18.281C16.594 6.844 23.063 4.125 30 4.125c6.938 0 13.406 2.719 18.281 7.594 4.875 4.875 7.594 11.344 7.594 18.281 0 6.938-2.719 13.406-7.594 18.281-4.875 4.875-11.343 7.594-18.281 7.594Zm0-.75c6.656 0 13.031-2.625 17.719-7.313 4.781-4.78 7.312-11.062 7.312-17.718 0-6.657-2.625-13.032-7.312-17.719C42.937 7.594 36.656 5.062 30 5.062c-6.656 0-13.031 2.625-17.719 7.313C7.5 16.969 4.875 23.344 4.875 30c0 6.656 2.625 13.031 7.313 17.719C16.968 52.5 23.343 55.125 30 55.125Z" fill="#E1E3E1"/><path d="M52.781 42.188c-.468-.376-18.562-14.72-18.562-14.72L30 3.376a1.602 1.602 0 0 0-.844.75l-3 23.438L7.5 41.906s-.375.469-.563.75c-.093.188-.093.469-.093.75l23.062-9.468 23.063 9.468c.187-.468 0-.937-.188-1.218Z" fill="#fff"/><path d="M30.188 30.75 30 35.062l21.188 8.532c.75.374 1.312.187 1.874-.188L30.47 30.656c-.094-.094-.282 0-.282.094Z" fill="#BFBFBF"/><path d="M30.188 30.75s1.218 2.156 2.625 3.656c1.968 2.156 4.593 3.656 4.593 3.656l13.782 5.532c.75.374 1.312.187 1.874-.188L30.47 30.656c-.094-.094-.282 0-.282.094Z" fill="#BFBFBF"/><path d="M52.969 42.563c0-.094-.094-.188-.188-.376L33.47 28.032l-2.625 1.688s.187.093.281 0a2.346 2.346 0 0 1 1.406 0C33 29.906 52.97 42.656 52.97 42.656v-.093Z" fill="#A4AAAE" fill-opacity=".6"/><path d="m52.313 41.719-18-14.25-.844.562 19.312 14.25c-.093-.187-.281-.375-.468-.562ZM30.469 29.344l-.094.093s0 .188.188.094c.093-.093 2.812-1.5 3.75-2.062l-3.282-22.5c-.093-.844-.468-1.219-1.125-1.5l.375 26.062.188-.187Z" fill="#BFBFBF"/><path d="M28.875 4.969v1.218l-2.063 20.72c0 .28.094.562.375.75l1.22.937.843-22.875.094-1.782c-.282.188-.375.563-.469 1.032Zm-1.125 24-1.125-.938L7.594 41.813s-.563.374-.657.75l.657-.376 19.968-12.562c.375-.188.47-.375.188-.656Z" fill="#A4AAAE" fill-opacity=".6"/><path d="M29.719 30.75c0-.094-.094-.188-.188-.094L6.844 43.5c.562.375 1.125.468 1.875.187l21.187-8.531-.187-4.406ZM30.375 29.438s0 .093.094.093h.093c.094-.093 2.813-1.5 3.75-2.062l-.374-2.719L31.03 4.969c0-.375-.093-.657-.281-.844 0 0 1.406 18.938 1.406 21 0 2.719-1.781 4.313-1.781 4.313Z" fill="#BFBFBF"/><path d="M29.719 30.75c0-.094-.094-.188-.188-.094L6.844 43.5c.562.375 1.125.468 1.875.187l21.187-8.531-.187-4.406Z" fill="#BFBFBF" fill-opacity=".8"/><path opacity=".8" d="m8.719 43.594 21.187-8.532-.187-4.124c-.375 1.125-1.032 2.343-2.813 3.28-1.312.75-13.875 6.938-18.375 9.094-.281.188-.656.282-.844.376.375.187.657.093 1.032-.094Z" fill="#BFBFBF"/><path d="m30.469 29.344-.094.093s0 .188.188.094c.093-.093 2.812-1.5 3.75-2.062l-3.282-22.5c-.093-.844-.468-1.219-1.125-1.5l.375 26.062.188-.187Z" fill="#BFBFBF"/><path d="m30.469 29.344-.094.093s0 .188.188.094c.093-.093 2.812-1.5 3.75-2.062l-3.282-22.5c-.093-.844-.468-1.219-1.125-1.5l.375 26.062.188-.187Z" fill="#BFBFBF"/><path d="M4.781 41.625c-.656-1.5-4.406-8.813-.281-22.875H2.906c-.844 2.813-1.5 4.5-1.875 7.031 0 0-.187.938-.281 1.969C.656 28.781.656 29.344.656 30c0 5.625 1.406 8.906 1.406 8.906C3.563 43.594 6.189 47.813 9.75 51c3.094 2.719 7.875 4.781 11.813 5.531-.657-.093-11.907-4.875-16.782-14.906Z" fill="#F8F8F8"/><path d="M30.375 30.562h-.844c.094 0 .188 0 .188.094l.187 4.313H30l.188-4.313c0-.094.093-.188.187-.094Z" fill="#A5ABAF"/><path d="M39.375 2.156C49.219 5.906 58.5 16.22 58.5 29.25 58.5 45 45.937 57.844 30 57.844v1.5c15.938 0 29.344-13.125 29.344-29.344 0-12.938-8.25-23.813-19.969-27.844Z" fill="#fff"/><path d="M55.125 18.938C48.562 3.844 33.75 3 32.906 2.905h-.093c11.343 2.063 18.562 9.469 21.093 17.25v.094c1.125 3 1.688 6.188 1.782 9.656.093 3.282-.657 6.938-2.063 10.313-.094.468-.188 1.031-.281 1.031h1.5c4.5-8.438 2.531-16.969.281-22.313Z" fill="#BFBFBF"/><path d="M2.063 30.094C2.063 14.719 14.53 2.062 30 2.062c15.469 0 27.938 12.563 27.938 28.032 0 15.375-12.47 27.843-27.938 27.843-15.469 0-27.938-12.468-27.938-27.843ZM10.78 10.78C5.812 15.75 2.72 22.594 2.72 30.094c0 7.5 3.094 14.343 7.969 19.218 4.968 4.876 11.812 7.97 19.312 7.97 7.5 0 14.344-3 19.219-7.97 4.968-4.874 7.968-11.718 7.968-19.218S54.094 15.75 49.22 10.78A26.909 26.909 0 0 0 30 2.72a26.91 26.91 0 0 0-19.219 8.062Z" fill="#BFBFBF"/><path d="m7.406 42 19.125-13.781c1.032.562 2.719 1.312 2.907 1.312.187.094.187-.093.187-.093l-2.344-1.97c-.281-.187-.375-.468-.375-.75l2.25-22.593c-.093.094-.093.281-.187.375-.094.188-.094.281-.094.469l-3.281 22.593-18 14.157c-.094.093-.188.187-.188.281Z" fill="#BFBFBF"/></g><defs><clipPath id="a"><path fill="#fff" d="M0 0h60v60H0z"/></clipPath></defs></svg>