<svg width="60" height="57" fill="none" xmlns="http://www.w3.org/2000/svg"><path d="M56.13 23.995a.111.111 0 0 0-.027.081 26.204 26.204 0 0 1-15.02 26.01.111.111 0 0 0-.057.063 81.95 81.95 0 0 0-1.655 5.254 30.533 30.533 0 0 1-9.373 1.476 30.53 30.53 0 0 1-9.373-1.476 81.83 81.83 0 0 0-1.655-5.254.11.11 0 0 0-.057-.063 26.192 26.192 0 0 1-15.02-26.01.11.11 0 0 0-.025-.081 82.312 82.312 0 0 0-3.723-4.06 30.536 30.536 0 0 1 9.37-16.238c1.775.458 3.569.855 5.376 1.193.03.006.06 0 .085-.018a26.209 26.209 0 0 1 30.046.002.11.11 0 0 0 .083.018 81.949 81.949 0 0 0 5.377-1.194 30.532 30.532 0 0 1 9.37 16.238 82.298 82.298 0 0 0-3.723 4.059ZM46.636 5.75a.166.166 0 0 0-.072.291 26.206 26.206 0 0 1 9.3 16.109c.01.063.056.114.117.132a.164.164 0 0 0 .169-.049 83.368 83.368 0 0 1 2.357-2.552.264.264 0 0 0 .066-.245A29.4 29.4 0 0 0 50.27 5.051a.264.264 0 0 0-.245-.065 83.279 83.279 0 0 1-3.388.765Zm1.101 2.853a25.061 25.061 0 0 0-2.83-2.436.264.264 0 0 0-.204-.047A83.125 83.125 0 0 1 30 7.434c-4.966 0-9.885-.447-14.706-1.313a.264.264 0 0 0-.203.047A25.061 25.061 0 0 0 5.072 23.52a.272.272 0 0 0 .062.205 83.098 83.098 0 0 1 14.701 25.463.27.27 0 0 0 .146.156 25.08 25.08 0 0 0 20.035 0 .27.27 0 0 0 .146-.156A83.165 83.165 0 0 1 46.377 35.8a83.145 83.145 0 0 1 8.486-12.076.272.272 0 0 0 .063-.205 25.09 25.09 0 0 0-7.188-14.915Zm-30.733-3.72a.21.21 0 0 0 .075.387 81.923 81.923 0 0 0 12.918 1.026c4.355 0 8.674-.349 12.92-1.027a.21.21 0 0 0 .075-.384 25.08 25.08 0 0 0-25.989-.001ZM3.847 22.235a.165.165 0 0 0 .286-.083A26.206 26.206 0 0 1 13.435 6.04a.165.165 0 0 0-.07-.289 83.247 83.247 0 0 1-3.393-.765.264.264 0 0 0-.245.064 29.396 29.396 0 0 0-8.305 14.386.263.263 0 0 0 .067.246 83.368 83.368 0 0 1 2.357 2.552Zm14.068 26.093a.206.206 0 0 0 .293-.255 81.763 81.763 0 0 0-12.92-22.374.21.21 0 0 0-.371.127 25.085 25.085 0 0 0 12.998 22.502Zm21.6 2.72a.166.166 0 0 0-.216-.207 26.195 26.195 0 0 1-18.601 0 .165.165 0 0 0-.216.206c.367 1.1.711 2.206 1.032 3.318a.263.263 0 0 0 .179.18 29.372 29.372 0 0 0 16.61 0 .265.265 0 0 0 .18-.18 83.177 83.177 0 0 1 1.033-3.318ZM55.08 25.817a.207.207 0 0 0-.367-.125 81.85 81.85 0 0 0-7.353 10.675 81.98 81.98 0 0 0-5.572 11.707.206.206 0 0 0 .291.254 25.088 25.088 0 0 0 13-22.51Zm-29.17-7.874a.07.07 0 0 1 .039-.01c10.433 0 9.462-.003 9.73.007.031.001.059.023.067.053a.073.073 0 0 1-.03.08 8.366 8.366 0 0 0-1.803 1.566l.423.336c1.258-1.542 3.19-2.496 5.06-2.496h.368c.024 0 .046.011.06.03.014.019.017.043.01.066l-.118.348c-.378 1.122-1.57 3.791-4.484 4.482l.11.534c1.248-.246 2.017-.798 2.662-1.359a.074.074 0 0 1 .08-.01c1.907.93 3.147 2.47 3.586 4.451.03.13.06.263.087.394a.072.072 0 0 1-.127.06 1.614 1.614 0 0 0-.267-.236c-.506-.313-1.098-.472-1.758-.472-.564 0-1.06.118-1.361.21.424.365.77.684 1.085.998 1.034 1.033 1.704 2.023 2.108 3.113.305.824.453 1.69.453 2.645 0 1.017-.18 1.95-.538 2.774-.037.088-.1.233-.127.311a.073.073 0 0 1-.07.05h-.003a.072.072 0 0 1-.067-.056 1.65 1.65 0 0 0-.106-.3c-.836-1.768-2.23-2.14-3.254-2.14-.108 0-.215.005-.332.013.7 1.077 1.705 2.676 1.705 4.636 0 1.422-.566 2.832-1.754 4.02-.666.667-.94.786-1.248 1.018a.073.073 0 0 1-.112-.085c.024-.058.045-.198.047-.276.056-2.151-1.12-3.889-3.008-4.46.225.913.483 1.929.483 3.316 0 1.473-.366 2.696-1.09 3.635-.83 1.08-2.197 1.767-3.397 1.965l-.27.045h-.011a.072.072 0 0 1-.064-.036.074.074 0 0 1 .006-.082 1.72 1.72 0 0 0 .096-.189c.061-.134.105-.285.138-.405.306-1.13.316-2.5.316-2.652 0-1.925-.405-3.576-.875-5.321-.202.158-.318.276-.485.446-.646.646-1.118 1.782-1.404 3.378a14.994 14.994 0 0 0-.213 2.121c0 .03-.02.057-.047.067a.073.073 0 0 1-.08-.02s-.177-.195-.224-.242c-.981-.99-1.794-2.16-2.138-3.523a5.816 5.816 0 0 1-.176-1.42c0-1.811.726-3.504 2.16-5.034h-.003c-1.299.252-2.277.706-3.469 1.898-.042.042-.18.193-.18.193a.072.072 0 0 1-.072.021.072.072 0 0 1-.052-.055 6.63 6.63 0 0 1-.154-1.262c0-1.122.426-2.118 1.267-2.959.78-.78 1.376-1.04 3.22-1.808-1.168.16-1.701.257-2.765.257-1.334 0-2.256-.274-2.82-.837-.158-.159-.319-.36-.51-.774a4.077 4.077 0 0 1-.105-.258.073.073 0 0 1 .097-.091c.06.024.608.224.674.245.135.044.29.09.421.125a4.69 4.69 0 0 0 1.206.174c1.091 0 1.979-.481 3.058-1.256a9.248 9.248 0 0 0 1.132-.94c.477-.477.534-.696.534-.698-.02-.634-.04-1.243-2.325-1.843-1.287-.338-1.982-1.12-2.316-1.496-.063-.07-.121-.137-.151-.16-.452-.37-1.01-.558-1.658-.558-.48 0-1.006.106-1.605.324-.332.121-.6.24-.98.415l-.27.124a.074.074 0 0 1-.079-.011.073.073 0 0 1-.021-.076l.088-.284c.102-.33.214-.633.362-.984.125-.298.254-.557.394-.793.47-.79 1.05-1.33 1.727-1.604a3.035 3.035 0 0 1 1.144-.215c.99 0 1.885.437 2.224.626a.072.072 0 0 1 .037.062c.023 1.606.95 2.728 2.253 2.728.614 0 1.094-.205 1.554-.665.24-.24.435-.532.595-.892.094-.21.164-.369.172-.476a.072.072 0 0 1 .03-.055.075.075 0 0 1 .042-.013c.007 0 .014.001.02.003.167.049.364.155.52.303l.484-.43c-.468-.469-1.274-.83-2.224-.83-.294 0-.52.033-.726.066-.6.097-1.278.265-1.93-.116a.072.072 0 0 1-.033-.044.074.074 0 0 1 .008-.055 4.296 4.296 0 0 1 1.348-1.37Zm-9.186 9.252c-1.076 0-2.046-.4-2.803-1.159-.4-.4-.757-.771-1.069-1.472a.073.073 0 0 1 .105-.091c.212.135.495.325.901.494 1.073.444 2.08.695 3.7.695 1.797 0 3.159-.539 3.935-.539 1.149 0 1.618.301 2.479 1.004a.073.073 0 0 1-.064.127 6.204 6.204 0 0 0-2.333-.122c-.696.103-1.304.284-1.947.475-.993.294-1.952.588-2.904.588Zm9.297-5.193c-.857 0-1.484-.718-1.644-1.573l-.05-.27a.073.073 0 0 1 .071-.086c.017-.001.348.093.364.097.2.056.404.088.6.117.03.004.053.027.06.056.037.164.06.294.178.413.13.13.302.2.486.2a.684.684 0 0 0 .685-.643l.006-.119a.073.073 0 0 1 .069-.069c.48-.024.568-.012.968.013a.072.072 0 0 1 .053.03c.013.018.017.04.012.061-.104.41-.213.852-.634 1.271-.443.443-.867.502-1.224.502Zm4.09 12.483.15-.021c.4-.057.8-.14 1.19-.245.748-.202 1.837-.62 2.654-1.91.245-.389.42-.794.536-1.24a5.792 5.792 0 0 0 .161-1.718.073.073 0 0 1 .073-.077c.026 0 .05.013.063.036.075.132.146.28.21.439.14.346.23.736.279 1.194.03.284.044.593.044.971v.075c0 .364 0 .707-.028 1.097l-.012.17.114-.126a9.369 9.369 0 0 0 1.06-1.363 6.287 6.287 0 0 0 .823-4.888 5.701 5.701 0 0 0-.887-1.875 7.873 7.873 0 0 0-.827-.997l-.284.886c.2.237.353.455.48.643.368.542.6 1.037.733 1.559.127.505.144.99.144 1.44 0 .36-.039.724-.117 1.08a9.557 9.557 0 0 1-.398 1.308.073.073 0 0 1-.069.047h-.011a.073.073 0 0 1-.062-.07c0-.003-.02-.41-.056-.627l-.017-.103a4.425 4.425 0 0 0-.113-.548 3.517 3.517 0 0 0-.865-1.478 3.456 3.456 0 0 0-.858-.622 4.472 4.472 0 0 0-.57-.247c.044.172.09.36.14.574.161.694.236 1.267.236 1.804 0 .855-.193 1.58-.592 2.216a3.403 3.403 0 0 1-.477.597l-.02.02a4.982 4.982 0 0 1-.956.78.073.073 0 0 1-.102-.1c.09-.149.169-.317.244-.475.104-.216.168-.443.216-.608.455-1.608-.3-2.602-.907-3.209a5.9 5.9 0 0 0-.14-.137c-.008.178-.016.357-.029.537-.056.809-.205 1.728-.894 2.417-.083.083-.21.209-.362.335-.13.108-.279.23-.476.352a.073.073 0 0 1-.088-.008.073.073 0 0 1-.015-.087c.026-.05.05-.092.075-.135a2.67 2.67 0 0 0 .198-.407c.138-.345.166-.656.166-.857a2.42 2.42 0 0 0-.204-.965l-.726.39a3.4 3.4 0 0 1 .04.14c.047.186.07.357.07.51 0 .343-.096.667-.295.99a3.524 3.524 0 0 1-.52.635c-.196.196-.405.383-.59.548l-.248.224.155-.002c.374-.004.87-.02 1.396-.115.835-.15 1.486-.47 1.993-.977.204-.203.384-.44.536-.703a.073.073 0 0 1 .085-.033c.033.01.054.042.05.076-.025.281-.096.565-.216.87a5.7 5.7 0 0 1-.604 1.102c-.162.24-.345.501-.584.793l-.095.118Zm-.038-8.554c.106-.03.21-.065.308-.106h-.035c-.68 0-1.11-.392-1.528-.772-.394-.358-.766-.697-1.324-.697-.079 0-.156.007-.23.022.44.095.62.279.857.517l.054.053c.084.084.165.172.247.26.08.084.158.168.238.249.308.308.563.526 1.038.526.118 0 .245-.018.375-.052Zm5.584-4.963c.596-.139 1.145-.455 1.631-.942.523-.523.77-.93.86-1.15-1.329.22-2.538 1.305-2.762 1.515l.27.577Zm-6.073 26.687c1.388-.322 2.469-1.005 3.305-2.088a5.59 5.59 0 0 0 .89-1.706c.607-1.888.217-3.765.16-4.197a.14.14 0 0 1 .226-.128c.142.115.242.22.368.365.593.679.894 1.581.894 2.682 0 .594-.052 1.136-.158 1.648.532-.224 1.596-.855 2.44-1.699 1.275-1.276 1.987-2.88 2.003-4.516.017-1.683-.521-2.644-.978-3.547a.14.14 0 0 1 .18-.192c.878.376 1.43 1.171 1.768 2.074.141.376.243.727.319 1.104a7.67 7.67 0 0 0 .454-.703c.674-1.17 1.016-2.53 1.016-4.046 0-2.269-.794-4.43-2.462-5.896a3.092 3.092 0 0 0-.162-.138.14.14 0 0 1 .087-.25 3.057 3.057 0 0 1 1.847.874c.29.29.54.649.81 1.162-.058-3.386-1.038-5.756-4.008-7.299a.139.139 0 0 1-.073-.098.141.141 0 0 1 .033-.119c1.107-1.257 1.584-2.656 1.893-3.877a4.466 4.466 0 0 0-.979-.105c-.907 0-1.907.254-2.975.752a.14.14 0 0 1-.188-.181l3.227-7.956c-.789-.016-1.638.608-1.846 1.349-.11.385-.053.83.149 1.19a.14.14 0 0 1-.224.164 1.466 1.466 0 0 0-1.075-.472c-.653 0-1.27.44-1.413 1.075-.205.925.198 1.663.912 1.9.318.093.405.104.734.049a.14.14 0 0 1 .138.059.14.14 0 0 1 .005.15c-.604 1.012-1.27 1.64-2.723 1.64-1.34 0-2.283-1.292-2.953-2.417a.14.14 0 0 1 .182-.197c.163.08.642.29.9.29.814 0 1.475-.675 1.475-1.504 0-.83-.661-1.505-1.474-1.505a1.45 1.45 0 0 0-.752.21.14.14 0 0 1-.172-.219c.291-.289.465-.702.465-1.102 0-.83-.661-1.505-1.474-1.505s-1.475.675-1.475 1.505c0 .412.16.797.453 1.084a.14.14 0 0 1-.169.22 1.501 1.501 0 0 0-.742-.193c-.813 0-1.475.675-1.475 1.504 0 .83.662 1.505 1.475 1.505.322 0 .633-.1.878-.279a.14.14 0 0 1 .203.184c-.716 1.202-1.625 2.43-2.945 2.43-1.467 0-2.16-.66-2.75-1.652a.14.14 0 0 1 .143-.21c.33.056.417.044.728-.047.72-.238 1.12-.976.92-1.886-.144-.651-.763-1.09-1.416-1.09a1.455 1.455 0 0 0-1.072.472.14.14 0 0 1-.226-.163c.201-.36.257-.806.149-1.192-.21-.74-1.06-1.365-1.846-1.349l3.465 8.511a.14.14 0 0 1-.027.148c-.151.162-.432.465-.622.796a.14.14 0 0 1-.184.055c-.534-.27-1.367-.59-2.302-.59a3.64 3.64 0 0 0-1.369.259c-.463.186-.886.469-1.257.84-.858.858-1.513 2.292-1.946 4.26-.057.26-.103.494-.138.683.306-.227.55-.402.785-.558a8.43 8.43 0 0 1 .852-.494c.6-.308 1.481-.676 2.28-.676.498 0 .961.146 1.27.403.017.014.051.051.1.108.28.32 1.13 1.294 2.629 1.688 1.63.427 1.79.721 1.832 1.061a.14.14 0 0 1-.02.09c-.012.02-.314.505-.96.955a.14.14 0 0 1-.197-.038c-.327-.502-.525-.758-.848-1.094-.733-.764-1.98-1.278-3.104-1.278-1.051.007-1.808.48-3.85.48-1.769 0-3.27-.378-4.59-1.15-.552-.302-.994-.657-1.384-.984.509 1.145 1.178 2.669 2.121 3.493.9.76 1.87 1.129 2.969 1.129 1.987 0 3.935-1.16 5.87-1.16 1.258 0 1.938.419 2.484.756a.14.14 0 0 1 .007.234c-.811.565-1.589 1.054-2.573 1.054-.758 0-2.047-.395-2.998-.762-.016.71-.03 1.542.774 2.368.29.297.654.53 1.084.692.42.159.935.252 1.572.286a.14.14 0 0 1 .124.092.139.139 0 0 1-.036.15c-.276.255-.524.482-.761.774-.7.864-1.057 1.845-1.057 2.917 0 .603.081 1.268.576 2.568l.383-.46c.104-.121.663-.752 1.408-1.294a.14.14 0 0 1 .207.175c-.53 1.068-.8 2.161-.8 3.249 0 2.217 1.103 4.268 3.281 6.098.004.003.277.244.545.466 0-.251.004-.468.004-.725 0-1.523.27-3.78 1.03-5.132a.14.14 0 0 1 .257.033c.094.364.195.877.277 1.41.323 2.099.368 4.598-.718 6.422a8.235 8.235 0 0 0 1.931-.226Z" fill="#BFBFBF"/></svg>