<svg width="60" height="56" fill="none" xmlns="http://www.w3.org/2000/svg"><g clip-path="url(#a)"><path d="M59.029 19.419c-1.321-5.734-4.374-10.979-8.837-15.033a84.45 84.45 0 0 1-5.38 1.146c-8.874-6.248-20.813-6.254-29.695 0a84.034 84.034 0 0 1-5.381-1.145C5.284 8.429 2.223 13.669.898 19.419A81.875 81.875 0 0 1 4.6 23.424C3.534 34.031 9.432 44.233 19.448 48.69a80.103 80.103 0 0 1 1.68 5.152 30.274 30.274 0 0 0 17.67 0c.5-1.733 1.062-3.45 1.68-5.152 10.031-4.463 15.913-14.675 14.85-25.266a81.888 81.888 0 0 1 3.7-4.005Z" fill="#555" fill-opacity=".2"/><path d="M23.943 25.888c.381.055.278-.21.231-.394-.057-.221-.609-.583-.831-.649-.418-.124-1.183-.327-1.64-.327-.261 0-1.083.15-1.273.199-.969.242-1.935.365-2.872.365-1.297 0-3.496-.462-4.367-1.118-.096-.073-.388-.055-.545.142-.13.16.08.371.2.538.244.335.925 1.013 1.124 1.183 3.085 2.56 5.639-.561 9.973.061Zm.278-6.029.544-.281c1.125.377 1.956-.331 3.246.03.128.036-.087.468-.203.783-.71 1.94-3.251 1.818-3.587-.532Z" fill="#555" fill-opacity=".2"/><path d="M45.042 4.922a.229.229 0 0 1-.09-.037c-8.983-6.174-20.931-6.167-29.904 0a.237.237 0 0 1-.085.036l-.057-.114.051-.143c4.384-3 9.627-4.64 15.043-4.64 5.416 0 10.658 1.64 15.042 4.64l.01.138-.01.12Z" fill="#BFBFBF"/><path d="M50.45 3.765c-1.758.443-3.532.829-5.322 1.158a.233.233 0 0 1-.085 0l-.02-.135.014-.099.006-.025a82.649 82.649 0 0 0 5.415-1.18l.05.17-.058.11Z" fill="#BFBFBF"/><path d="M59.721 19.547a29.732 29.732 0 0 0-9.272-15.782l.034-.132-.032-.123.007-.027a29.943 29.943 0 0 1 9.516 16.197l-.195-.02-.058-.113Z" fill="#BFBFBF"/><path d="M55.996 23.575a.23.23 0 0 1 .045-.078 81.42 81.42 0 0 1 3.683-3.95l.133.04.093.087.026.008a80.903 80.903 0 0 0-3.749 4.018l-.115.01-.116-.135Z" fill="#BFBFBF"/><path d="M40.953 49.163a.23.23 0 0 1 .083-.065c9.962-4.569 15.896-14.748 14.95-25.434a.226.226 0 0 1 .01-.09l.11.08.096.036.025.009c.062.723.096 1.45.096 2.182 0 6.858-2.773 13.435-7.71 18.284a26.323 26.323 0 0 1-7.426 5.122l-.173.029-.06-.153Z" fill="#BFBFBF"/><path d="M39.273 54.336a79.698 79.698 0 0 1 1.64-5.107.21.21 0 0 1 .037-.066l.078.106.137.001.019.018a79.29 79.29 0 0 0-1.668 5.199l-.21-.035-.033-.116Z" fill="#BFBFBF"/><path d="M20.727 54.336a30.885 30.885 0 0 0 18.547 0l.1.094.123.037.02.019a31.139 31.139 0 0 1-19.033 0l.122-.135.12-.015Z" fill="#BFBFBF"/><path d="M19.034 49.145a.227.227 0 0 1 .053.084 79.321 79.321 0 0 1 1.64 5.107l-.1.095-.123.036-.02.019a79.403 79.403 0 0 0-1.668-5.198l.04-.108.178-.035Z" fill="#BFBFBF"/><path d="M4.004 23.567c.01.031.015.064.012.096-.95 10.724 5.024 20.882 14.95 25.435a.23.23 0 0 1 .068.048l-.12.06-.078.065-.02.017C9.559 45.018 3.68 35.883 3.68 25.881c0-.732.033-1.46.096-2.183l.114-.089.114-.042Z" fill="#BFBFBF"/><path d="M.28 19.547a81.75 81.75 0 0 1 3.682 3.949.232.232 0 0 1 .043.072l-.108.086-.095.036-.025.008a81.44 81.44 0 0 0-3.75-4.018l.131-.145.121.012Z" fill="#BFBFBF"/><path d="M.28 19.547C1.62 13.482 4.846 7.963 9.55 3.764l.057-.11-.065-.17A29.937 29.937 0 0 0 .028 19.68l.026-.008.093-.088.132-.038Z" fill="#BFBFBF"/><path d="M9.553 3.765c1.757.443 3.532.828 5.32 1.158a.235.235 0 0 0 .093-.001l-.012-.12.012-.112-.006-.026a82.644 82.644 0 0 1-5.415-1.18l.006.026-.031.123.033.132ZM15.18 5.9a.394.394 0 0 1 .142 0 84.38 84.38 0 0 0 29.361 0 .39.39 0 0 1 .144.001l-.018.115-.13.267a84.814 84.814 0 0 1-14.676 1.28c-4.956 0-9.864-.435-14.676-1.28l-.233-.223.086-.16Z" fill="#BFBFBF"/><path d="M55.045 23.197a.373.373 0 0 0 .002-.1c-.782-6.79-4.393-13.013-10.069-17.13a.387.387 0 0 0-.15-.067l-.083.11-.057.242-.008.03c1 .722 1.949 1.52 2.837 2.393a24.162 24.162 0 0 1 7.1 14.521l.258.102.17-.101Z" fill="#BFBFBF"/><path d="M40.205 48.483a.378.378 0 0 0 .072-.12 80.938 80.938 0 0 1 6.205-13.132 81.57 81.57 0 0 1 8.472-11.844.38.38 0 0 0 .088-.19l-.122.008h-.275l-.03-.007a81.889 81.889 0 0 0-8.465 11.844 81.234 81.234 0 0 0-6.209 13.125l.148.266.116.05Z" fill="#F6F6F6"/><path d="M19.809 48.493c.035.037.079.068.127.089a25.618 25.618 0 0 0 20.133 0 .393.393 0 0 0 .138-.1l-.073-.097-.17-.197-.02-.022a25.133 25.133 0 0 1-9.94 2.047c-3.456 0-6.837-.71-9.942-2.047l-.222.158-.031.17Z" fill="#BFBFBF"/><path d="M4.96 23.197a.38.38 0 0 0 .089.19 81.13 81.13 0 0 1 14.677 24.975.382.382 0 0 0 .081.131l.085-.08.148-.225.02-.022a81.234 81.234 0 0 0-6.208-13.125 81.973 81.973 0 0 0-8.465-11.844l-.314-.05-.112.05Z" fill="#BFBFBF"/><path d="M4.961 23.197a.373.373 0 0 1-.001-.1c.781-6.79 4.392-13.012 10.068-17.13a.383.383 0 0 1 .151-.067v.12l.138.233.009.03c-1 .722-1.949 1.52-2.837 2.393a24.162 24.162 0 0 0-7.101 14.521l-.03.007h-.275l-.122-.007ZM18.233 47.541a.33.33 0 0 1-.371.04C9.528 43.08 4.6 34.438 4.802 25.368a.322.322 0 0 1 .154-.265l.226.074.058.244c-.003.153-.006.306-.006.46 0 6.453 2.61 12.642 7.254 17.205 1.657 1.628 3.525 3 5.54 4.093l.186.183.02.18Z" fill="#BFBFBF"/><path d="M4.957 25.102a.334.334 0 0 1 .43.07 80.084 80.084 0 0 1 12.938 22.013.317.317 0 0 1-.09.356l-.081-.088-.074-.214-.05-.06a79.76 79.76 0 0 0-5.523-11.374 80.23 80.23 0 0 0-7.266-10.384l-.028-.073-.151-.166-.105-.08Z" fill="#F6F6F6"/><path d="M21.49 53.593a.37.37 0 0 1-.088-.153c-.275-.935-.64-2.1-1.032-3.253a.278.278 0 0 1 .073-.291l.19.04.105.146a80.41 80.41 0 0 1 1.013 3.192l-.114.288-.147.03Z" fill="#BFBFBF"/><path d="M39.549 49.89a.29.29 0 0 0-.293-.054 26.498 26.498 0 0 1-18.515 0 .29.29 0 0 0-.3.06l.084.086.169.06.043.04a26.725 26.725 0 0 0 18.525 0l.24-.064.047-.129Z" fill="#F6F6F6"/><path d="M38.513 53.591a.37.37 0 0 0 .087-.15 75.076 75.076 0 0 1 1.03-3.252.278.278 0 0 0-.073-.292l-.007-.007-.075.092-.17.06-.042.04a80.463 80.463 0 0 0-1.013 3.192l.134.276.13.041Z" fill="#F6F6F6"/><path d="M38.513 53.591a.385.385 0 0 1-.174.106 30.014 30.014 0 0 1-16.68 0 .382.382 0 0 1-.17-.105l.076-.09.165-.204.02-.025a29.56 29.56 0 0 0 16.5 0l.022.024.162.206.079.088Z" fill="#F6F6F6"/><path d="m54.99 25.07-.011-.004a.33.33 0 0 0-.36.102 80.489 80.489 0 0 0-7.36 10.502 79.93 79.93 0 0 0-5.581 11.518.315.315 0 0 0 .08.347l.127-.054.089-.302a79.765 79.765 0 0 1 5.522-11.374 80.221 80.221 0 0 1 7.267-10.383l.244-.209-.018-.143Z" fill="#BFBFBF"/><path d="m41.758 47.534.01.008a.33.33 0 0 0 .37.04c8.354-4.509 13.267-13.17 13.062-22.22a.321.321 0 0 0-.21-.293l-.047.108-.152.171-.028.073c.003.154.006.307.006.46 0 6.453-2.61 12.642-7.254 17.205a24.726 24.726 0 0 1-5.541 4.093l-.05.06-.076.216-.09.08ZM46.398 5.726a.285.285 0 0 1 .216-.192 78.812 78.812 0 0 0 3.38-.749.392.392 0 0 1 .202.005l-.017.116-.154.26c-1.1.266-2.207.51-3.32.734l-.187-.026-.12-.148Z" fill="#BFBFBF"/><path d="M50.198 4.791a.381.381 0 0 1 .153.087 28.86 28.86 0 0 1 8.34 14.194.37.37 0 0 1 .002.17l-.158.066-.26-.104a28.434 28.434 0 0 0-8.248-14.038l.01-.03.096-.241.065-.104Z" fill="#BFBFBF"/><path d="M58.691 19.241a.37.37 0 0 1-.097.178c-.687.7-1.531 1.596-2.352 2.505a.29.29 0 0 1-.294.083l-.065-.197.083-.147a83.321 83.321 0 0 1 2.307-2.458l.032.007.27.008.116.021Z" fill="#BFBFBF"/><path d="m46.4 5.726-.005.016a.279.279 0 0 0 .097.285c4.963 3.98 8.239 9.592 9.255 15.754a.282.282 0 0 0 .203.225l.035-.115-.033-.172.015-.058a25.704 25.704 0 0 0-7.354-14.064A26.235 26.235 0 0 0 46.708 5.9l-.058-.016-.138-.113-.112-.045ZM16.79 5.01a.326.326 0 0 0 .275.287 83.395 83.395 0 0 0 25.873 0 .325.325 0 0 0 .26-.223l-.108-.052-.298.025a83.26 83.26 0 0 1-25.583 0l-.303-.089-.117.051Z" fill="#BFBFBF"/><path d="M16.79 5.009a.321.321 0 0 1 .157-.307c8.445-5.024 18.48-4.54 26.11 0a.32.32 0 0 1 .143.371h-.128l-.202-.013-.077-.013a25.094 25.094 0 0 0-12.791-3.498 25.097 25.097 0 0 0-12.791 3.498l-.077.013-.223-.046-.12-.005ZM13.611 5.742a.282.282 0 0 0-.219-.207 78.597 78.597 0 0 1-3.385-.749.392.392 0 0 0-.198.004l-.059.157.226.219c1.1.267 2.207.511 3.32.734l.178-.007.137-.151Z" fill="#BFBFBF"/><path d="M4.051 22.007a.283.283 0 0 0 .203-.226c1.008-6.111 4.251-11.744 9.258-15.757a.276.276 0 0 0 .096-.283l-.117.029-.14.113-.058.016a26.359 26.359 0 0 0-1.905 1.697 25.7 25.7 0 0 0-7.354 14.065l-.065.237.082.109Z" fill="#BFBFBF"/><path d="M4.051 22.006a.291.291 0 0 1-.294-.083 86.35 86.35 0 0 0-2.351-2.504.371.371 0 0 1-.097-.178l.108-.089.31.052a81.92 81.92 0 0 1 2.307 2.458l.015.057.003.157v.13Z" fill="#BFBFBF"/><path d="M1.31 19.242a.371.371 0 0 1 .001-.17 28.863 28.863 0 0 1 8.34-14.194.377.377 0 0 1 .158-.088l.035.11.122.236.01.03a28.438 28.438 0 0 0-8.247 14.038l-.033.008-.265.027-.12.003ZM24.413 19.067a.21.21 0 0 1 .024-.164c.412-.686 1.217-1.35 1.45-1.419l.07.134-.013.06c-.248.15-.454.308-.63.481-.212.195-.547.576-.7.847l-.05.045-.15.016Z" fill="#BFBFBF"/><path d="M35.871 17.6c-.072-.14-.219-.117-.379-.123-.05 0-9.557-.006-9.605.009l.043.136.013.041v.016l.007-.002h9.543l.185.007c.006 0 .012.005.013.01h.058l.122-.093Z" fill="#BFBFBF"/><path d="M34.124 19.276a8.327 8.327 0 0 1 1.672-1.397.212.212 0 0 0 .075-.278l-.124.079-.042.01-.013.005a.014.014 0 0 1-.006.016 8.253 8.253 0 0 0-1.854 1.594l.1.006.192-.035Z" fill="#BFBFBF"/><path d="m34.317 19.427-.193-.15-.21.02-.062.005-.02.003.517.401.008-.103-.04-.176Z" fill="#BFBFBF"/><path d="M39.943 17.12a.22.22 0 0 0-.177-.09h-.368c-1.867 0-3.795.914-5.082 2.397l.021.199.007.06.004.02c1.239-1.522 3.175-2.475 5.05-2.475.012 0 .372-.004.38.006l.056-.013.11-.104Z" fill="#BFBFBF"/><path d="M35.403 22.119c2.885-.745 4.072-3.357 4.451-4.464l.118-.342a.212.212 0 0 0-.03-.194c-.02.015-.145.102-.164.117.007.01-.12.366-.116.355-.378 1.1-1.572 3.726-4.498 4.379l.076.082.163.067Z" fill="#BFBFBF"/><path d="m35.455 22.369-.052-.25-.171-.105-.052-.033-.016-.01.008.04.125.595.074-.074.084-.163ZM41.78 26.161c.09-.042.14-.14.12-.237-.45-2.16-1.545-3.802-3.753-4.86a.22.22 0 0 0-.143-.017c.016.066.029.122.048.181l.006.016c1.895.909 3.122 2.409 3.557 4.334l.012.055c.019.08.049.21.074.332a.014.014 0 0 1-.008.015l.003.058.083.123ZM38.545 25.59c2.125 1.832 3.491 3.698 3.491 6.57 0 1.02-.185 1.956-.55 2.783a4.967 4.967 0 0 0-.123.295.218.218 0 0 1-.206.145l-.026-.148.026-.053c.006 0 .012-.003.014-.009.027-.078.09-.222.13-.31.353-.802.532-1.711.532-2.702 0-.932-.147-1.776-.45-2.579-.4-1.063-1.066-2.028-2.094-3.038a19.847 19.847 0 0 0-1.16-1.044l.028.005.088.018.3.068ZM35.922 42.42a.222.222 0 0 0 .264.001c.035-.026.195-.136.242-.168.982-.654 1.958-1.713 2.448-2.956.889-2.255.083-4.365-1.221-6.363l-.26-.132-.077-.037-.024-.012c.696 1.053 1.748 2.647 1.748 4.604 0 .64-.119 1.269-.355 1.868a5.903 5.903 0 0 1-1.38 2.041 6.204 6.204 0 0 1-.992.822 11.709 11.709 0 0 0-.26.177c-.003 0-.006 0-.009-.003l-.048.034-.076.125ZM28.547 46.41a.22.22 0 0 0 .224.104c.6-.097 1.098-.18 1.963-.603 3.111-1.519 3.322-4.792 2.493-8.123l-.205-.218-.06-.063-.02-.02.041.164c.218.868.464 1.85.464 3.177 0 1.434-.362 2.623-1.077 3.536a4.878 4.878 0 0 1-1.726 1.368c-.585.286-1.09.453-1.635.54l-.273.044c-.005 0-.01-.002-.012-.007l-.06.008-.117.093ZM25.915 33.6c-1.505 1.525-2.268 3.218-2.268 5.034 0 .464.06.928.175 1.38.102.4.252.799.444 1.187a7.828 7.828 0 0 0 1.21 1.747c.138.154.3.333.47.501.045.046.225.24.225.24a.015.015 0 0 0 .01.005h.005v.014l.02.038.05.134a.222.222 0 0 1-.238-.056s-.465-.485-.696-.744c-2.668-2.981-2.347-6.45.015-9.157l.326-.22.252-.103ZM25.237 30.073c-1.093.465-1.61.754-2.256 1.387-1.263 1.241-1.51 2.632-1.152 4.278a.217.217 0 0 0 .156.163l.038-.139.012-.041.004-.014a.013.013 0 0 1-.01-.01s-.044-.205-.054-.263a6.076 6.076 0 0 1-.099-.965c0-1.087.42-2.051 1.25-2.866.784-.77 1.385-1.017 3.17-1.75l.444-.184-.762.162-.741.242Z" fill="#BFBFBF"/><path d="M20.021 28.023a.212.212 0 0 0-.056.226c.553 1.55 1.873 1.932 3.573 1.932.662 0 1.107-.034 1.697-.108l1.068-.288.326-.088.11-.029-.677.093c-1.096.15-1.596.22-2.523.22-1.317 0-2.226-.264-2.777-.806a1.873 1.873 0 0 1-.31-.392 3.801 3.801 0 0 1-.293-.6.015.015 0 0 1 .004-.016l-.029-.051-.113-.093ZM17.746 22.762a.222.222 0 0 0 .236.033c.993-.45 3.26-1.541 4.493-.177.344.38 1.06 1.17 2.389 1.513 2.156.557 2.196 1.072 2.216 1.65l.146.022.043.006.014.012a.051.051 0 0 0 .001-.011c-.02-.653-.04-1.271-2.368-1.872-1.27-.328-1.958-1.088-2.288-1.453a1.998 1.998 0 0 0-.157-.165c-.463-.372-1.033-.56-1.695-.56-.488 0-1.019.105-1.625.322-.333.12-.603.236-.985.41l-.27.121c-.001.002-.004.002-.005.002a.014.014 0 0 1-.01-.004l-.055.023-.08.128Z" fill="#BFBFBF"/><path d="M23.912 19.334a.215.215 0 0 0-.08-.076c-2.512-1.368-4.9-.665-6.062 3l-.088.279c-.026.08 0 .169.065.225l.096-.107.028-.033.011-.01a.014.014 0 0 1-.004-.015l.088-.278c.103-.323.214-.62.36-.962.124-.29.252-.543.39-.772.464-.765 1.035-1.287 1.7-1.551a3.027 3.027 0 0 1 1.121-.208c.977 0 1.862.425 2.196.608l.06-.015.119-.085Z" fill="#BFBFBF"/><path d="M28.32 19.956a.212.212 0 0 0-.093.161c-.006.08-.075.233-.16.42-1.053 2.322-4.081 1.784-4.123-1.095a.212.212 0 0 0-.031-.108l-.13.067-.036.024-.013.008a.014.014 0 0 1 .008.012c.024 1.617.976 2.737 2.31 2.737.624 0 1.13-.213 1.596-.67a2.91 2.91 0 0 0 .607-.894c.1-.22.169-.371.177-.487 0-.004.002-.008.006-.01l-.019-.056-.1-.11ZM29.253 19.935l-.269.235.002.19-.001.06v.02l.57-.499-.128-.043-.174.037Z" fill="#BFBFBF"/><path d="M24.414 19.067a.214.214 0 0 0 .101.131c1.241.712 2.272-.365 3.973.296.297.115.558.266.764.441l.216.003.063.002h.023l-.054-.053a2.763 2.763 0 0 0-.936-.58 3.537 3.537 0 0 0-1.319-.24c-.298 0-.526.032-.735.065-.072.011-.14.024-.208.036a3.89 3.89 0 0 1-.78.083c-.342 0-.637-.074-.902-.226-.007-.003-.009-.012-.005-.018l-.018.007-.041.016-.142.037ZM24.828 17.84a.277.277 0 0 1-.076.171c-.147.156-.42.445-.602.756a.285.285 0 0 1-.186.134l-.105-.143.044-.106a.024.024 0 0 0 .02-.012c.197-.337.484-.64.637-.803a.023.023 0 0 0 .005-.025l.107-.043.156.07Z" fill="#BFBFBF"/><path d="M21.428 9.564c.039.093 3.406 8.176 3.399 8.276l-.145-.017-.092-.008-.026-.004-3.525-8.505.217.101.172.157Z" fill="#F6F6F6"/><path d="M22.862 12.197a.277.277 0 0 1-.082-.364c.6-1.057-.343-2.136-1.349-2.27l-.221-.155-.132-.082-.035-.02c.064-.008.13-.012.197-.012.84 0 1.704.632 1.927 1.408a1.67 1.67 0 0 1-.158 1.257.023.023 0 0 0 .007.03l-.053.101-.1.107ZM25.733 12.64c.163.975-.218 1.74-.995 1.991-.205.06-.32.086-.456.086-.085 0-.18-.01-.328-.034h-.004a.024.024 0 0 0-.02.01l-.108-.042-.107-.103a.287.287 0 0 1 .235-.122c.025 0 .221.034.332.034.105 0 .199-.022.374-.072.652-.212.958-.844.821-1.693l.099-.09.157.035Z" fill="#BFBFBF"/><path d="M25.474 12.695c-.294-.985-1.545-1.276-2.237-.536a.29.29 0 0 1-.378.038l.086-.116.053-.072.014-.02c.005.003.01.005.015.005a.024.024 0 0 0 .018-.008 1.575 1.575 0 0 1 1.157-.5c.705 0 1.333.475 1.528 1.154l-.256.055ZM29.597 13.734c.1.09.123.237.053.352-.736 1.214-1.677 2.455-3.07 2.455-1.535 0-2.26-.676-2.876-1.692a.276.276 0 0 1 .01-.302l.12.081.075.05.02.014a.024.024 0 0 0 0 .026c.586.967 1.234 1.567 2.651 1.567 1.261 0 2.146-1.178 2.845-2.33a.023.023 0 0 0-.004-.03l.06-.098.116-.093Z" fill="#BFBFBF"/><path d="M26.852 12.626c0-.877.713-1.592 1.59-1.592.284 0 .568.073.8.206a.022.022 0 0 0 .013.003.025.025 0 0 0 .019-.009l.102.053.105.102a.289.289 0 0 1-.37.072c-.87-.496-1.998.123-1.998 1.165l-.127.1-.134-.1Z" fill="#F6F6F6"/><path d="M27.113 12.627c0 1.117 1.27 1.702 2.121 1.089a.29.29 0 0 1 .36.018l-.097.106-.061.066-.016.018a.024.024 0 0 0-.017-.006.026.026 0 0 0-.014.004c-.264.19-.6.295-.947.295-.877 0-1.59-.713-1.59-1.591h.26Z" fill="#F6F6F6"/><path d="M30.375 8.464c.877 0 1.59.714 1.59 1.592 0 .423-.186.859-.499 1.164a.024.024 0 0 0-.002.032l-.078.084-.127.074a.277.277 0 0 1 .023-.371c.887-.867.274-2.318-.907-2.318l-.078-.131.078-.126Z" fill="#BFBFBF"/><path d="M30.376 8.721c-1.194 0-1.782 1.47-.92 2.3.102.098.114.257.026.37l-.115-.087-.073-.055-.02-.014a.023.023 0 0 0-.002-.031 1.593 1.593 0 0 1 1.103-2.739v.256Z" fill="#F6F6F6"/><path d="M33.9 12.626c0 .878-.714 1.592-1.59 1.592-.34 0-.947-.295-.953-.298a.024.024 0 0 0-.01-.002.024.024 0 0 0-.019.007l-.099-.059-.092-.115a.29.29 0 0 1 .336-.06c.215.104.633.27.837.27.733 0 1.33-.6 1.33-1.335l.124-.095.136.095Z" fill="#BFBFBF"/><path d="M33.64 12.627c0-1.035-1.127-1.673-2.006-1.15a.288.288 0 0 1-.372-.067l.114-.089.072-.055.02-.015c.004.006.012.01.019.01a.025.025 0 0 0 .012-.004 1.593 1.593 0 0 1 2.402 1.37h-.262ZM37.016 14.547c.063.09.066.208.01.302-.63 1.038-1.327 1.68-2.849 1.68-1.413 0-2.387-1.306-3.078-2.444a.276.276 0 0 1 .036-.334l.107.097.067.061.018.016a.024.024 0 0 0-.003.028c.655 1.08 1.572 2.32 2.855 2.32 1.404 0 2.025-.57 2.623-1.556a.024.024 0 0 0 0-.026l.08-.08.134-.064Z" fill="#BFBFBF"/><path d="M35 12.637c.155-.686.822-1.15 1.527-1.15a1.592 1.592 0 0 1 1.159.5.026.026 0 0 0 .018.007c.004 0 .01-.002.014-.005l.082.08.072.128a.288.288 0 0 1-.377-.037c-.731-.775-2.026-.393-2.239.534l-.173.091-.083-.148Z" fill="#F6F6F6"/><path d="M35.256 12.695c-.261 1.141.517 1.893 1.48 1.735a.288.288 0 0 1 .283.118l-.121.08-.075.051-.02.014a.025.025 0 0 0-.02-.011h-.004a1.949 1.949 0 0 1-.327.035c-.136 0-.251-.027-.458-.086-.776-.252-1.211-1.026-.992-1.993l.254.057ZM39.3 9.563c-1.012.134-1.95 1.217-1.35 2.27.071.124.036.28-.08.364l-.086-.115-.054-.073-.015-.02a.023.023 0 0 0 .007-.03 1.661 1.661 0 0 1-.16-1.257c.223-.776 1.087-1.408 1.927-1.408.067 0 .133.004.198.012l-.035.02-.128.126-.225.111Z" fill="#F6F6F6"/><path d="M36.21 17.461a.277.277 0 0 1-.047-.292l3.14-7.605.217-.156.17-.101-3.286 7.961c-.006.01-.005.02.002.027l-.069.089-.127.077Z" fill="#BFBFBF"/><path d="M40.256 16.877c-1.25-.228-2.56.126-3.712.655a.287.287 0 0 1-.337-.072l.11-.093.067-.054.02-.018c.004.005.01.007.017.007a.032.032 0 0 0 .012-.003c1.083-.497 2.1-.75 3.024-.75.388 0 .754.044 1.12.133l-.147.105-.174.09Z" fill="#BFBFBF"/><path d="M38.368 20.719a.277.277 0 0 1 .067-.237c1.042-1.163 1.517-2.457 1.823-3.604l.179-.11.111-.067.03-.017c-.313 1.239-.79 2.676-1.947 3.968a.022.022 0 0 0-.005.02l-.11.034-.148.013Z" fill="#BFBFBF"/><path d="M42.426 27.39c-.174-3.218-1.359-5.17-3.885-6.462l-.025-.012a.28.28 0 0 1-.149-.197l.144-.027.09-.016.024-.004a.023.023 0 0 0 .012.016l.02.01c2.782 1.423 3.994 3.604 4.051 7.296l-.003.12c-.003.099-.005.172-.015.293l-.146-.535-.118-.482Z" fill="#BFBFBF"/><path d="M39.668 25.995a.286.286 0 0 1 .29-.177c.913.076 1.818.571 2.468 1.572l.166.57.08.356.017.09c-.05-.1-.137-.275-.199-.392-.264-.494-.507-.838-.79-1.116a2.964 2.964 0 0 0-1.764-.825h-.002a.025.025 0 0 0-.022.016l-.114-.024-.13-.07Z" fill="#BFBFBF"/><path d="M41.07 36.45c.086-.127.172-.265.259-.413 1.774-3.02 1.152-7.617-1.571-9.719a.277.277 0 0 1-.09-.323l.136.053.085.033.023.008c-.004.01 0 .022.007.028a3.1 3.1 0 0 1 .168.14c.86.742 1.516 1.685 1.95 2.803.37.95.55 1.956.55 3.074 0 1.509-.348 2.866-1.032 4.032a6.678 6.678 0 0 1-.621.903l.056-.32.08-.298Z" fill="#BFBFBF"/><path d="M38.652 33.611a.29.29 0 0 1 .32-.066c1.174.492 1.79 1.695 2.1 2.905l-.069.348-.052.214-.015.056a6.743 6.743 0 0 0-.36-1.315c-.315-.825-.751-1.405-1.333-1.775a2.558 2.558 0 0 0-.382-.2.024.024 0 0 0-.018.008l-.095-.064-.096-.11Z" fill="#BFBFBF"/><path d="M35.465 43.21c3.615-1.793 5.219-5.495 3.24-9.095-.105-.192-.209-.34-.053-.504l.106.098.067.061.017.017a.025.025 0 0 0-.004.027c.03.06.063.12.096.18s.066.12.097.18c.578 1.124.808 2.045.797 3.177-.017 1.638-.74 3.242-2.038 4.516-.428.42-.908.798-1.428 1.124-.379.237-.818.5-1.253.648l.171-.237.185-.193Z" fill="#BFBFBF"/><path d="M33.938 38.707a.29.29 0 0 1 .319.026c1.313 1.042 1.486 2.832 1.207 4.477l-.195.247-.126.145-.034.037a7.496 7.496 0 0 0 .203-1.802c0-1.053-.29-1.915-.865-2.56a2.642 2.642 0 0 0-.354-.344.025.025 0 0 0-.015-.006.027.027 0 0 0-.012.003l-.082-.08-.047-.143Z" fill="#BFBFBF"/><path d="M27.906 46.898c4.143-.12 6.696-2.964 5.919-7.719-.034-.204-.078-.367.113-.472l.071.125.045.078.012.02a.024.024 0 0 0-.012.025c.007.05.018.114.03.184l.032.21c.08.553.117 1.037.117 1.48-.002.838-.117 1.611-.343 2.3a5.566 5.566 0 0 1-.908 1.71c-.853 1.086-1.956 1.77-3.37 2.093a8.58 8.58 0 0 1-2.159.222l.231-.158.222-.098Z" fill="#BFBFBF"/><path d="M27.997 39.106c.116.015.21.097.24.208.532 2.015.865 5.418-.33 7.584l-.252.147-.16.087-.042.023.054-.09c.165-.27.352-.575.565-1.225.26-.798.392-1.731.392-2.775 0-.65-.073-1.472-.205-2.314-.081-.52-.181-1.02-.275-1.373a.024.024 0 0 0-.02-.017l-.021-.113.054-.142Z" fill="#BFBFBF"/><path d="M26.66 44.765c.015-1.732.187-4.01 1.051-5.519a.287.287 0 0 1 .286-.14l-.037.14v.09l.003.025h-.003a.025.025 0 0 0-.02.012c-.75 1.309-1.016 3.504-1.016 4.986l-.002.334c-.001.192-.003.38.001.618l-.166-.28-.097-.266Z" fill="#BFBFBF"/><path d="M23.838 35.155c.1.084.13.224.071.34-.52 1.028-.785 2.081-.785 3.128 0 2.646 1.563 4.488 3.536 6.142l.144.307.093.19.025.05c-.314-.243-.735-.61-.739-.613-2.203-1.819-3.32-3.863-3.32-6.076 0-1.086.273-2.177.812-3.243a.024.024 0 0 0-.006-.028l.059-.098.11-.099Z" fill="#BFBFBF"/><path d="M21.828 36.7c.48-.566.983-1.076 1.657-1.557a.289.289 0 0 1 .352.012l-.153.178-.016.018a.026.026 0 0 0-.015-.005.022.022 0 0 0-.015.005 8.883 8.883 0 0 0-1.389 1.254l-.507.598.022-.26.064-.243Z" fill="#BFBFBF"/><path d="M23.197 30.636c.04.108.016.218-.1.323-.255.23-.495.448-.722.723-.68.822-1.024 1.756-1.024 2.776 0 .806.193 1.458.48 2.24l-.05.282-.03.175-.007.046c-.141-.35-.255-.667-.376-1.053a5.408 5.408 0 0 1-.278-1.69c0-1.08.364-2.069 1.082-2.938.25-.302.486-.511.772-.773a.024.024 0 0 0 .007-.025l.1-.057.146-.03Z" fill="#BFBFBF"/><path d="M19.644 27.513c-.005.729.09 1.368.736 2.02.671.676 1.6.868 2.56.919a.285.285 0 0 1 .253.185l-.246.086a.026.026 0 0 0-.021-.016c-.65-.034-1.175-.128-1.607-.288a3.087 3.087 0 0 1-1.126-.707c-.718-.725-.81-1.487-.81-2.07 0-.102 0-.192.002-.284a3.75 3.75 0 0 1 .01-.214l.02.034.142.122.087.213Z" fill="#BFBFBF"/><path d="M25.279 26.9a.279.279 0 0 1-.123.238c-1.749 1.197-2.586 1.447-5.511.376l-.142-.207-.108-.163c1.243.485 2.459.798 3.105.798.627 0 1.226-.199 1.943-.646.183-.114.363-.231.564-.369a.023.023 0 0 0 .01-.02l.112-.028.15.02Z" fill="#F6F6F6"/><path d="m12.012 23.14.03.061c.279.59.903 2.002 1.796 2.768 3.799 3.153 7.123-1.83 11.306.7.082.05.133.136.136.23l-.146.005-.091.002h-.024a.025.025 0 0 0-.012-.019c-.534-.323-1.199-.725-2.424-.725-.944 0-1.875.271-2.861.559-.979.285-1.991.58-3.009.58-1.126 0-2.122-.371-3.043-1.136-.841-.721-1.493-2.06-1.614-2.32-.08-.177-.165-.353-.251-.535-.156-.328-.316-.667-.48-1.055l.413.487.274.398Z" fill="#BFBFBF"/><path d="M25.462 26.802a.283.283 0 0 1-.184-.122c-.323-.485-.517-.731-.832-1.054-.688-.705-1.882-1.215-3.03-1.212-.395.004-.762.082-1.187.171-2.914.618-5.842.342-8.217-1.446l-.39-.492-.237-.313-.06-.08.248.204c.417.343.889.732 1.489 1.054 1.304.75 2.787 1.116 4.535 1.116 1.192 0 1.96-.163 2.577-.293.439-.093.817-.174 1.24-.177h.033c1.153 0 2.434.519 3.188 1.29.324.333.534.597.862 1.091.003.005.01.01.015.01l-.005.115-.045.138Z" fill="#BFBFBF"/><path d="M26.72 25.595a.279.279 0 0 1-.04.18c-.014.022-.331.522-1.001.981a.288.288 0 0 1-.218.045l.027-.14.018-.088.005-.024h.005c.004 0 .01-.001.013-.003.627-.429.925-.9.928-.905l.116-.046h.147Z" fill="#BFBFBF"/><path d="M17.043 23.777c1.502-1.068 4.035-2.25 5.183-.96.272.307 1.1 1.239 2.556 1.614 1.568.404 1.883.71 1.94 1.164l-.145.017-.092.029h-.026c-.025-.244-.06-.528-1.744-.963-1.532-.395-2.4-1.372-2.686-1.693-.043-.048-.072-.08-.087-.093-.288-.234-.724-.369-1.195-.369-.776 0-1.64.355-2.228.652a8.55 8.55 0 0 0-.841.479c-.29.189-.594.407-1.014.716l.18-.341.2-.252Z" fill="#BFBFBF"/><path d="M17.043 23.776c.42-2.029 1.22-4.443 3.181-5.218 1.157-.457 2.447-.226 3.55.32a.29.29 0 0 0 .19.024l-.043-.137-.012-.089-.006-.024c-.003 0-.007 0-.01-.002-.546-.27-1.397-.592-2.355-.592-.496 0-.97.088-1.411.262a3.87 3.87 0 0 0-1.296.851c-.875.859-1.54 2.286-1.977 4.242-.091.41-.156.757-.19.957l.034-.055.13-.207.215-.332ZM29.113 29.853l.479-.253.087-.176.015-.106-.823.435.08.062.162.038ZM31.425 28.564l-.013.21c-.087 1.236-.366 2.04-1.309 2.803-.104.085-.473.39-.607.39a.22.22 0 0 1-.148-.058l.099-.104.03-.032.01-.01a.016.016 0 0 0 .01.003c.003 0 .006 0 .008-.002.194-.117.34-.236.47-.34a4.94 4.94 0 0 0 .357-.326c.675-.664.822-1.554.877-2.337.015-.22.025-.436.034-.65l.09.16.092.293ZM33.864 27.03c.378 1.52.55 3.022-.302 4.357-.284.446-.834 1.004-1.5 1.418a.222.222 0 0 1-.269-.028l.102-.102.03-.03.01-.011c.003.002.007.004.011.004a.02.02 0 0 0 .008-.002 4.917 4.917 0 0 0 .946-.758l.02-.02c.18-.175.337-.37.47-.577.391-.615.582-1.317.582-2.147 0-.522-.074-1.082-.234-1.759-.06-.254-.114-.47-.168-.666l.116.1.178.222ZM35.595 24.428c1.127 1.342 1.34 2.345 1.34 3.608 0 .85-.22 1.585-.525 2.395a.219.219 0 0 1-.239.138l.023-.142.007-.042.002-.014h.002a.015.015 0 0 0 .014-.01c.001-.003.137-.362.199-.556.058-.185.14-.46.198-.72.077-.347.116-.7.116-1.049 0-.437-.018-.91-.144-1.4-.13-.506-.36-.987-.724-1.514-.13-.19-.288-.41-.497-.65l.076-.044h.152Z" fill="#BFBFBF"/><path d="m35.78 23.86-.184.567-.163.032-.05.01-.016.002.323-.991.049.13.041.25ZM34.816 28.628c.097-.028.2.013.252.1.583 1.003.596 2.33.539 3.547l-.173.4-.052.12-.018.04.025-.332c.028-.381.028-.717.028-1.073v-.074c0-.37-.014-.67-.043-.948a4.21 4.21 0 0 0-.276-1.158 3.393 3.393 0 0 0-.207-.424c-.002-.004-.007-.007-.012-.007h-.004l-.043-.04-.016-.151ZM30.46 33.686c.598-.756 1.21-1.685 1.298-2.622a.214.214 0 0 0-.151-.224l-.065.133.003.058c.006.002.01.008.01.015-.025.27-.095.544-.214.838-.135.335-.33.685-.597 1.073-.162.234-.344.49-.581.774l-.19.229.035-.02.105-.058.346-.196ZM29.112 29.852c.347 1.262-.455 2.002-1.33 2.772l-.386.15-.115.044-.039.014.363-.321c.184-.162.393-.345.588-.536.225-.222.387-.417.511-.614.194-.308.288-.615.288-.942 0-.145-.024-.309-.07-.486a2.48 2.48 0 0 0-.053-.18l.018.008.053.02.172.072ZM12.777 23.943a.223.223 0 0 1 .26-.02c.303.19.523.33.878.475 2.177.886 4.242.807 6.5.301.369-.082.755-.158 1.08-.158 1.232 0 1.748.359 2.57 1.018.08.063.104.172.058.263l-.142-.048-.04-.043c.003-.005.001-.013-.004-.017-.337-.27-.603-.484-.99-.685-.363-.189-.865-.288-1.452-.288-.305 0-.677.073-1.035.154-1.113.249-2.088.375-2.9.375-.886 0-1.654-.078-2.346-.238a8.854 8.854 0 0 1-1.377-.45c-.38-.154-.662-.334-.832-.44l-.077-.05a.012.012 0 0 0-.007-.002.015.015 0 0 0-.01.004l-.054-.023-.08-.128Z" fill="#BFBFBF"/><path d="M24.124 25.822a.22.22 0 0 1-.249.111c-2.8-.695-4.744.93-7.148.93a4.067 4.067 0 0 1-2.907-1.18c-.476-.468-.797-.827-1.098-1.49a.212.212 0 0 1 .056-.25l.096.108.029.033.01.01a.013.013 0 0 0-.004.017c.088.196.27.521.447.763s.444.504.609.666a3.865 3.865 0 0 0 2.763 1.123c.912 0 1.834-.27 2.81-.554l.077-.022c.645-.188 1.255-.366 1.955-.468.252-.037.602-.061.893-.061a6.854 6.854 0 0 1 1.463.18l.003.001c.006 0 .011-.003.014-.007l.013.006.039.02.129.064ZM26.706 19.684c-.085.072-.075.158-.08.268a.536.536 0 0 1-.539.496.542.542 0 0 1-.384-.155c-.05-.05-.087-.107-.119-.249l-.02-.086a.212.212 0 0 0-.069-.115l-.095.108-.026.036-.01.008a.014.014 0 0 1 .003.009c.04.216.09.33.192.431.14.138.328.214.527.214a.74.74 0 0 0 .742-.687l.006-.116c0-.003.002-.006.005-.009l-.024-.054-.109-.1Z" fill="#BFBFBF"/><path d="M27.978 19.722c.044.053.06.124.042.189-.137.53-.266.917-.672 1.315-1.059 1.04-2.798.535-3.114-1.126l-.05-.267a.212.212 0 0 1 .067-.197l.098.105.03.032.009.01a.013.013 0 0 0-.004.014l.05.266c.101.531.357.873.553 1.066.284.279.65.432 1.034.432.345 0 .756-.056 1.183-.476.188-.184.423-.47.573-1.047l.045-.175a.014.014 0 0 0-.002-.012l.012-.008.035-.025.11-.096ZM35.739 20.433l-.175-.363-.155-.055-.093.006.309.646.074-.075.04-.159Z" fill="#BFBFBF"/><path d="M37.877 18.75c-1.059.275-1.997 1.042-2.312 1.32l-.177-.035-.054-.01-.018-.004c.165-.157 1.493-1.36 2.92-1.545l-.104.11-.255.164Z" fill="#BFBFBF"/><path d="M37.876 18.75c-.416.66-1.2 1.43-2.137 1.684l-.081.168-.025.05-.008.016c.625-.133 1.198-.453 1.705-.95.61-.6.868-1.08.905-1.241l-.02.017-.066.053-.273.204ZM29.673 25.385c-.63-.012-.91-.523-1.57-1.148l-.778-.307-.313.038c.606.072.792.256 1.07.532l.053.053c.084.082.165.167.246.253.08.083.158.166.24.246.307.302.582.534 1.079.534.123 0 .255-.018.39-.053.236-.063.454-.156.653-.277l-.36.11-.71.02Z" fill="#BFBFBF"/><path d="M29.673 25.385c-.709-.289-.97-.81-1.57-1.148l-.838-.286-.196.01-.057.007c.152-.064.315-.096.484-.096.581 0 .961.34 1.364.7.409.366.832.744 1.488.744.132 0 .264-.021.395-.061l-.1.042-.26.075-.71.013Z" fill="#BFBFBF"/><path d="M46.763 5.916a26.242 26.242 0 0 1 1.865 1.664 25.725 25.725 0 0 1 7.352 14.024 83.043 83.043 0 0 1 2.26-2.407 28.411 28.411 0 0 0-8.224-14.001 83.195 83.195 0 0 1-3.253.72Zm.73 2.78a24.592 24.592 0 0 0-2.826-2.385A84.832 84.832 0 0 1 30 7.591c-4.953 0-9.858-.436-14.668-1.28-.995.72-1.94 1.516-2.825 2.385A24.134 24.134 0 0 0 5.415 23.19a81.982 81.982 0 0 1 8.46 11.838 81.277 81.277 0 0 1 6.204 13.116 25.116 25.116 0 0 0 19.839 0 81.277 81.277 0 0 1 6.205-13.116 81.916 81.916 0 0 1 8.46-11.838c-.617-5.455-3.102-10.575-7.09-14.494ZM17.283 5.034a83.168 83.168 0 0 0 25.43 0A25.07 25.07 0 0 0 30 1.578a25.077 25.077 0 0 0-12.715 3.456ZM4.02 21.604c.9-5.278 3.45-10.19 7.352-14.024.598-.586 1.22-1.14 1.866-1.664a85.402 85.402 0 0 1-3.253-.72 28.406 28.406 0 0 0-8.225 14.001c.77.786 1.522 1.59 2.26 2.407ZM17.977 47.12a79.789 79.789 0 0 0-12.71-21.626c-.002.129-.005.257-.005.387 0 6.446 2.606 12.627 7.245 17.185a24.664 24.664 0 0 0 5.47 4.054Zm21.242 3.003a26.758 26.758 0 0 1-18.439 0c.352 1.037.683 2.08.992 3.128a29.515 29.515 0 0 0 16.456 0c.308-1.048.64-2.09.991-3.128Zm15.514-24.629A79.82 79.82 0 0 0 42.022 47.12a24.701 24.701 0 0 0 5.47-4.053c4.64-4.558 7.246-10.74 7.246-17.185 0-.13-.003-.258-.005-.387ZM50.035 5.136a28.465 28.465 0 0 1 8.27 14.076 82.29 82.29 0 0 0-2.355 2.507 25.675 25.675 0 0 0-7.356-14.105 25.983 25.983 0 0 0-1.947-1.73 86.382 86.382 0 0 0 3.388-.748Zm4.61 18.068a81.89 81.89 0 0 0-8.473 11.851 81.204 81.204 0 0 0-6.21 13.133A25.166 25.166 0 0 1 30 50.241c-3.463 0-6.851-.712-9.962-2.053a81.204 81.204 0 0 0-6.21-13.133 81.904 81.904 0 0 0-8.473-11.85 24.192 24.192 0 0 1 7.11-14.55 24.641 24.641 0 0 1 2.85-2.402A84.803 84.803 0 0 0 30 7.536c4.958 0 9.87-.436 14.684-1.283a24.7 24.7 0 0 1 2.849 2.403 24.187 24.187 0 0 1 7.111 14.548ZM30 1.521a25.13 25.13 0 0 1 12.868 3.538 83.212 83.212 0 0 1-25.737 0A25.129 25.129 0 0 1 30 1.521ZM1.695 19.21a28.465 28.465 0 0 1 8.27-14.076 84.5 84.5 0 0 0 3.386.749 26.356 26.356 0 0 0-1.946 1.73A25.69 25.69 0 0 0 4.05 21.718a82.29 82.29 0 0 0-2.354-2.508Zm10.77 23.896c-4.65-4.569-7.261-10.765-7.261-17.226 0-.178.003-.355.006-.533a80.262 80.262 0 0 1 7.316 10.445 79.779 79.779 0 0 1 5.551 11.446 24.775 24.775 0 0 1-5.611-4.132Zm25.806 10.191a29.577 29.577 0 0 1-16.543 0 81.81 81.81 0 0 0-1.034-3.257 26.7 26.7 0 0 0 18.611 0 81.498 81.498 0 0 0-1.034 3.257Zm16.525-27.417c0 6.46-2.612 12.657-7.263 17.226a24.742 24.742 0 0 1-5.61 4.132 79.81 79.81 0 0 1 5.55-11.446 80.262 80.262 0 0 1 7.316-10.445c.004.178.007.355.007.533Zm-15.149-8.295.118-.342h-.368c-1.87 0-3.805.951-5.05 2.48l-.537-.418c.052-.065.723-.884 1.866-1.608l-.184-.008H25.95l-.015.009c-.243.149-.443.303-.612.471a4.264 4.264 0 0 0-.7.842c.301.173.61.223.895.223.433 0 .682-.07.987-.119.262-.041.531-.076.9-.062a3.62 3.62 0 0 1 1.162.239c.381.148.707.353.94.583.022.021.043.043.063.065l-.59.518a1.078 1.078 0 0 0-.292-.223 1.254 1.254 0 0 0-.236-.102l-.01-.003c-.008.12-.08.278-.178.492-.12.264-.306.599-.61.898-.525.515-1.053.674-1.606.674-1.232 0-2.3-1.006-2.325-2.75-.358-.195-1.226-.606-2.19-.606-.396 0-.772.07-1.116.206-.661.263-1.23.783-1.691 1.546-.139.228-.266.48-.39.77-.147.342-.258.638-.36.96l-.088.278.27-.122c.381-.173.651-.29.985-.41.607-.217 1.14-.322 1.63-.322.665 0 1.238.19 1.703.563.035.028.092.092.16.166.329.364 1.015 1.122 2.28 1.448 2.338.604 2.358 1.227 2.379 1.887-.002.04-.102.284-.555.729-.301.296-.685.61-1.14.93-1.091.77-1.99 1.247-3.1 1.247a4.83 4.83 0 0 1-1.225-.173 7.851 7.851 0 0 1-.426-.123c-.064-.021-.614-.217-.68-.243a3.788 3.788 0 0 0 .293.598c.083.14.18.265.307.388.549.54 1.454.802 2.767.802.926 0 1.426-.069 2.521-.22.232-.032.49-.068.786-.107-.194.08-.375.155-.546.224-1.783.734-2.383.98-3.165 1.748-.827.813-1.246 1.774-1.246 2.857 0 .306.041.602.098.962.01.058.054.262.054.262s.14-.15.182-.192a7.895 7.895 0 0 1 1.324-1.068 5.481 5.481 0 0 1 1.366-.618 8.403 8.403 0 0 1 1.04-.237c-.693.697-2.294 2.446-2.294 5.055 0 .464.059.927.174 1.377.102.399.25.797.443 1.184a7.872 7.872 0 0 0 1.207 1.745c.146.162.305.337.47.5.045.046.225.24.225.24l.008-.295c.006-.14.02-.334.034-.48.044-.429.084-.834.173-1.32.288-1.582.767-2.71 1.423-3.356l.052-.051c.113-.113.277-.276.527-.457l.066.24c.314 1.134.84 3.034.84 5.109 0 .165-.01 1.507-.318 2.624a2.652 2.652 0 0 1-.136.396c-.028.06-.083.18-.11.214l.27-.044c.5-.081 1.005-.234 1.63-.54a4.869 4.869 0 0 0 1.721-1.363c.713-.91 1.074-2.096 1.074-3.528 0-1.326-.246-2.307-.463-3.173l-.047-.188c1.995.534 3.24 2.285 3.181 4.488a1.124 1.124 0 0 1-.051.296c.037-.027.202-.141.252-.175.437-.29.695-.531.989-.82a5.891 5.891 0 0 0 1.377-2.036 5.055 5.055 0 0 0 .355-1.863c0-1.953-1.05-3.543-1.745-4.595l-.014-.022c.132-.012.285-.022.46-.022 1.043 0 2.467.372 3.32 2.143.05.107.09.225.11.307.029-.084.1-.245.13-.31.352-.8.53-1.707.53-2.697 0-.93-.146-1.773-.449-2.574-.4-1.06-1.064-2.024-2.09-3.033-.337-.33-.714-.668-1.18-1.06.283-.093.85-.248 1.507-.248.674 0 1.279.16 1.797.474.05.031.21.158.284.248-.032-.157-.073-.329-.086-.386-.442-1.963-1.694-3.436-3.548-4.325-.725.62-1.525 1.138-2.767 1.365l-.127-.608-.012-.054c2.933-.644 4.128-3.272 4.505-4.37Zm-22.922 9.062a3.85 3.85 0 0 1-2.753-1.118c-.162-.16-.428-.42-.606-.665a4.87 4.87 0 0 1-.446-.76c.15.091.464.308.912.49.419.171.857.33 1.378.45.693.161 1.46.239 2.349.239.813 0 1.79-.127 2.904-.376.356-.08.728-.154 1.031-.154.539 0 1.06.088 1.445.287.384.2.653.416.988.684a6.892 6.892 0 0 0-1.2-.174 6.477 6.477 0 0 0-1.163.054c-.701.101-1.311.28-1.957.468l-.075.022c-.976.285-1.897.553-2.807.553Zm10.522-6.817c.1 0 .191.003.27.008l.293.018-.046.175c-.149.573-.383.857-.57 1.04-.423.417-.83.473-1.172.473-.379 0-.742-.152-1.023-.429a1.98 1.98 0 0 1-.55-1.058l-.05-.266.345.094c.138.038.332.077.518.103l.09.013.02.087a.655.655 0 0 0 .177.354c.143.14.334.218.538.218a.755.755 0 0 0 .757-.7l.006-.117.118-.006c.098-.004.192-.007.279-.007Zm8.435 3.62-.332 1.023c.21.24.369.464.5.655.364.526.594 1.005.723 1.509.125.489.142.96.142 1.397 0 .35-.039.7-.115 1.046a9.05 9.05 0 0 1-.198.718c-.062.196-.198.556-.198.556s-.018-.406-.056-.625c-.038-.22-.073-.457-.133-.649a3.515 3.515 0 0 0-.883-1.482 3.528 3.528 0 0 0-.877-.624 4.608 4.608 0 0 0-.708-.29c.055.204.111.427.175.691.16.677.233 1.235.233 1.756 0 .827-.19 1.526-.58 2.14-.132.206-.289.4-.467.574-.169.166-.316.313-.484.44a5.075 5.075 0 0 1-.48.336c.088-.146.162-.299.247-.473a3.72 3.72 0 0 0 .22-.609c.465-1.615-.305-2.613-.926-3.222a5.964 5.964 0 0 0-.258-.241c-.01.224-.019.451-.035.68-.055.78-.201 1.668-.873 2.328a4.8 4.8 0 0 1-.348.318c-.13.105-.28.228-.477.347.084-.159.154-.239.275-.538.122-.299.172-.604.172-.868 0-.329-.072-.587-.133-.775a2.082 2.082 0 0 0-.11-.272l-.849.448c.022.063.042.13.058.189.046.176.07.339.07.483 0 .324-.095.63-.286.935-.123.196-.285.39-.51.61-.195.192-.403.375-.587.537l-.39.346.348-.003c.377-.004.877-.02 1.408-.115.85-.15 1.514-.47 2.031-.98.209-.204.392-.44.548-.705a2.956 2.956 0 0 1-.213.834 5.535 5.535 0 0 1-.596 1.07 10.52 10.52 0 0 1-.58.774l-.214.257.334-.047c.405-.057.808-.138 1.2-.242.76-.202 1.866-.62 2.696-1.908a4.25 4.25 0 0 0 .545-1.238 5.677 5.677 0 0 0 .164-1.71c.074.127.142.267.206.422.136.334.226.711.274 1.154.03.276.043.578.043.947v.073c0 .356 0 .692-.028 1.073l-.028.371.257-.275c.335-.36.697-.774 1.067-1.349a6.163 6.163 0 0 0 1.014-3.385c0-.527-.06-1.01-.182-1.474a5.632 5.632 0 0 0-.898-1.865 7.775 7.775 0 0 0-.872-1.026l-.046-.046Zm-8.187.407c-.183 0-.366.038-.539.118.683.071.855.278 1.169.586.166.164.321.34.485.5.301.296.578.538 1.09.538.12 0 .251-.017.393-.054a2.47 2.47 0 0 0 .76-.346 1.34 1.34 0 0 1-.507.102c-1.277 0-1.657-1.444-2.85-1.444Zm10.759-5.4c-1.553.194-2.955 1.56-2.955 1.56l.318.665c.733-.153 1.304-.545 1.724-.958.621-.61.868-1.073.913-1.267Zm-12.32-.792a.027.027 0 0 1 .016-.004h9.542l.186.007c.013 0 .024.01.027.021a.029.029 0 0 1-.012.032 8.261 8.261 0 0 0-1.842 1.58l.493.384c1.25-1.524 3.183-2.47 5.053-2.47h.368a.03.03 0 0 1 .024.012.029.029 0 0 1 .004.026l-.118.342c-.378 1.101-1.57 3.727-4.494 4.386l.127.606c1.283-.24 2.068-.791 2.724-1.353a.029.029 0 0 1 .032-.004c1.895.909 3.127 2.411 3.564 4.345l.012.054c.019.08.049.21.074.332a.028.028 0 0 1-.016.03.032.032 0 0 1-.013.004.03.03 0 0 1-.023-.01 1.623 1.623 0 0 0-.277-.242c-.513-.312-1.113-.47-1.781-.47-.619 0-1.157.138-1.45.231.451.38.815.707 1.143 1.028 1.03 1.012 1.696 1.979 2.097 3.044a7.2 7.2 0 0 1 .452 2.584c0 .993-.18 1.904-.535 2.708a5.92 5.92 0 0 0-.13.309.029.029 0 0 1-.027.02.03.03 0 0 1-.028-.023 1.665 1.665 0 0 0-.108-.301c-.846-1.758-2.258-2.127-3.294-2.127-.132 0-.263.005-.41.018.698 1.055 1.74 2.642 1.74 4.592 0 .642-.12 1.272-.358 1.873a5.924 5.924 0 0 1-1.383 2.047 6.233 6.233 0 0 1-.994.823c-.049.033-.214.147-.25.174a.028.028 0 0 1-.018.006.027.027 0 0 1-.017-.006.028.028 0 0 1-.01-.033c.026-.063.048-.206.05-.287.057-2.161-1.162-3.9-3.112-4.446l.035.14c.218.87.464 1.852.464 3.18 0 1.438-.364 2.63-1.08 3.545a4.89 4.89 0 0 1-1.732 1.373c-.586.286-1.091.453-1.639.542l-.275.044a.03.03 0 0 1-.025-.015.028.028 0 0 1 .003-.032c.023-.029.073-.137.1-.195a2.64 2.64 0 0 0 .14-.405c.31-1.116.318-2.466.318-2.616 0-2.072-.525-3.969-.838-5.102l-.055-.2c-.23.171-.385.326-.49.43l-.05.051c-.653.641-1.13 1.765-1.417 3.342-.088.483-.129.888-.172 1.316a8.427 8.427 0 0 0-.042.775.028.028 0 0 1-.02.026.03.03 0 0 1-.032-.008c.001 0-.178-.194-.224-.24-.17-.169-.332-.347-.47-.502a7.848 7.848 0 0 1-1.212-1.75 6.089 6.089 0 0 1-.445-1.19 5.562 5.562 0 0 1-.175-1.383c0-1.807.753-3.493 2.24-5.013l-.134.025a8.23 8.23 0 0 0-.814.197 5.435 5.435 0 0 0-1.36.614 7.863 7.863 0 0 0-1.5 1.256.03.03 0 0 1-.02.01l-.009-.002a.03.03 0 0 1-.02-.021s-.046-.206-.055-.265a6.098 6.098 0 0 1-.099-.966c0-1.091.423-2.06 1.255-2.877.785-.772 1.387-1.02 3.173-1.754l.343-.14c-.179.023-.567.077-.567.077-1.096.15-1.597.22-2.525.22-1.321 0-2.233-.265-2.788-.81a1.914 1.914 0 0 1-.311-.394 4.865 4.865 0 0 1-.19-.355 4.223 4.223 0 0 1-.105-.25.028.028 0 0 1 .027-.037 37.924 37.924 0 0 0 .688.245c.136.043.291.089.424.123.456.117.842.172 1.216.172 1.103 0 1.998-.476 3.084-1.242.454-.32.837-.633 1.137-.928.44-.433.544-.673.546-.71-.021-.646-.04-1.26-2.358-1.857-1.274-.33-1.963-1.091-2.294-1.458-.067-.073-.124-.136-.157-.162-.46-.37-1.026-.557-1.685-.557-.486 0-1.016.105-1.62.321-.333.12-.603.236-.984.409l-.27.122a.029.029 0 0 1-.011.002.029.029 0 0 1-.028-.037l.088-.278c.103-.323.214-.62.36-.963.126-.291.253-.544.393-.774.465-.768 1.038-1.292 1.705-1.557a3.03 3.03 0 0 1 1.128-.209c.98 0 1.867.426 2.203.61a.028.028 0 0 1 .015.024c.023 1.603.967 2.722 2.296 2.722.619 0 1.123-.211 1.585-.666.245-.24.442-.53.605-.889.1-.219.167-.37.175-.482a.03.03 0 0 1 .03-.027l.008.001a1.277 1.277 0 0 1 .454.245c.029.024.055.047.077.07l.547-.48-.043-.043a2.757 2.757 0 0 0-.93-.576 3.547 3.547 0 0 0-1.314-.24c-.297 0-.525.032-.732.065-.072.01-.14.024-.21.036-.22.04-.448.083-.782.083-.345 0-.642-.075-.91-.228a.03.03 0 0 1-.013-.018.03.03 0 0 1 .003-.021c.187-.312.488-.65.704-.849.179-.173.386-.331.635-.482Zm-6.393 8.457.076-.023c.645-.188 1.254-.365 1.953-.467.251-.037.6-.061.89-.061a6.884 6.884 0 0 1 1.46.18l.007.002c.01 0 .021-.006.026-.016a.028.028 0 0 0-.008-.035c-.338-.27-.605-.485-.992-.686-.462-.24-1.048-.29-1.459-.29-.306 0-.68.074-1.038.154-1.112.25-2.086.376-2.897.376-.885 0-1.652-.078-2.343-.239a8.812 8.812 0 0 1-1.374-.448c-.378-.154-.66-.334-.83-.44l-.077-.049a.03.03 0 0 0-.016-.004.029.029 0 0 0-.027.04c.09.198.272.524.45.766.177.243.444.505.609.668a3.879 3.879 0 0 0 2.773 1.126c.916 0 1.84-.27 2.817-.554Zm7.674-5.03c.19-.185.427-.473.577-1.054l.046-.175a.027.027 0 0 0-.005-.024.03.03 0 0 0-.021-.012l-.293-.017a4.626 4.626 0 0 0-.551 0l-.119.005a.029.029 0 0 0-.027.027l-.006.117a.726.726 0 0 1-.728.673.732.732 0 0 1-.518-.21c-.085-.085-.133-.18-.17-.34l-.02-.087a.029.029 0 0 0-.023-.022l-.09-.013a4.484 4.484 0 0 1-.514-.102l-.345-.095a.042.042 0 0 0-.008-.001.029.029 0 0 0-.029.034l.051.267c.101.534.359.878.557 1.072.286.282.657.437 1.044.437.347 0 .761-.056 1.192-.48Zm2.959 12.645c.237-.285.42-.541.582-.776.267-.388.463-.74.599-1.075.118-.295.189-.57.214-.842a.029.029 0 0 0-.02-.03l-.01-.001a.03.03 0 0 0-.024.014 3.376 3.376 0 0 1-.543.7c-.513.504-1.173.822-2.016.971a8.597 8.597 0 0 1-1.404.114l-.27.003.333-.296c.184-.162.393-.345.588-.537a3.47 3.47 0 0 0 .515-.617c.195-.31.289-.62.289-.95 0-.145-.024-.31-.07-.49a2.546 2.546 0 0 0-.05-.168l.799-.423a2.394 2.394 0 0 1 .227 1.008c0 .201-.03.513-.17.858-.084.208-.143.308-.2.405-.024.042-.049.083-.074.13a.028.028 0 0 0 .006.035.028.028 0 0 0 .02.007c.005 0 .01 0 .015-.004.195-.118.341-.237.471-.342.151-.122.277-.245.36-.327.678-.666.826-1.56.88-2.346.015-.208.025-.415.033-.62.07.062.14.127.21.199.616.604 1.38 1.592.919 3.194-.047.164-.113.39-.218.604l-.02.043c-.078.158-.144.296-.226.428a.03.03 0 0 0 .005.036.03.03 0 0 0 .02.008c.006 0 .011-.001.016-.005.176-.11.271-.176.483-.337.162-.124.303-.262.466-.423l.02-.02c.18-.176.338-.371.471-.58.394-.617.586-1.322.586-2.154 0-.524-.075-1.084-.235-1.763-.058-.243-.11-.45-.16-.641.23.076.438.163.652.272.329.167.621.375.869.618.4.393.694.887.876 1.47.05.161.083.356.115.544l.017.101c.037.216.056.618.056.622 0 .014.01.025.025.028h.005a.028.028 0 0 0 .026-.019 8.973 8.973 0 0 0 .397-1.28c.077-.345.116-.7.116-1.05 0-.439-.017-.913-.143-1.405-.13-.507-.361-.99-.726-1.517a7.045 7.045 0 0 0-.492-.646l.313-.962.014.014c.321.318.597.643.869 1.023.43.602.723 1.209.893 1.855.122.462.18.943.18 1.467 0 1.197-.339 2.33-1.008 3.37-.37.574-.73.985-1.065 1.345l-.2.214.022-.29c.028-.382.028-.718.028-1.074v-.074c0-.37-.014-.672-.044-.95a4.215 4.215 0 0 0-.276-1.161 3.552 3.552 0 0 0-.207-.426.028.028 0 0 0-.025-.014l-.009.001a.03.03 0 0 0-.02.029 5.651 5.651 0 0 1-.163 1.7 4.239 4.239 0 0 1-.542 1.23c-.825 1.28-1.924 1.695-2.678 1.896-.393.104-.796.185-1.198.242l-.26.036.166-.2Zm-.475-8.167c-.492 0-.754-.22-1.07-.53-.08-.08-.159-.163-.238-.246-.08-.086-.162-.171-.246-.253l-.053-.053c-.272-.27-.456-.452-1.023-.53.135-.049.278-.073.426-.073.576 0 .954.337 1.354.695.412.368.837.748 1.499.748.098 0 .196-.011.294-.033a2.51 2.51 0 0 1-.556.222 1.533 1.533 0 0 1-.387.053Zm5.635-5.546c.153-.144 1.456-1.334 2.88-1.533-.063.199-.307.637-.894 1.214-.502.493-1.07.81-1.687.944l-.299-.625Zm6.243 16.151c.503-.855 1.035-2.17 1.035-4.044 0-.92-.122-1.98-.55-3.082a7.078 7.078 0 0 0-2.127-2.953 2.953 2.953 0 0 1 1.749.818c.315.309.56.687.786 1.11.091.17.236.467.236.467.024-.23.02-.302.027-.5-.05-3.32-.993-5.747-4.064-7.317l-.02-.009c1.075-1.199 1.594-2.55 1.958-4.002-.74-.185-2.106-.341-4.182.613l3.298-7.992c-.901-.133-1.935.552-2.18 1.41-.126.435-.047.909.16 1.274a1.61 1.61 0 0 0-.73-.445c-.856-.246-1.8.238-1.996 1.108-.222.982.22 1.764 1.01 2.02.335.097.442.11.796.052-.604.994-1.236 1.544-2.603 1.544-1.31 0-2.23-1.314-2.834-2.308 0 0 .615.3.963.3a1.615 1.615 0 1 0-.824-3.004c.3-.294.506-.728.506-1.18a1.615 1.615 0 1 0-2.735 1.163 1.658 1.658 0 0 0-.813-.209 1.615 1.615 0 0 0 0 3.23c.352 0 .696-.107.961-.3-.602.994-1.513 2.32-2.824 2.32-1.366 0-2.028-.561-2.63-1.555.354.058.46.044.795-.052.79-.256 1.232-1.039 1.01-2.02-.197-.87-1.14-1.354-1.996-1.108a1.6 1.6 0 0 0-.73.444c.207-.365.285-.839.16-1.274-.245-.858-1.28-1.543-2.18-1.409l3.535 8.534c-.18.192-.449.48-.64.807-.756-.375-2.27-.93-3.785-.33a3.888 3.888 0 0 0-1.304.855c-1.124 1.105-1.691 2.948-1.983 4.254-.09.402-.157.764-.2 1.017.47-.346.775-.564 1.061-.75.255-.166.497-.304.84-.478.617-.312 1.458-.649 2.215-.649.408 0 .866.108 1.18.364.112.091 1.01 1.334 2.783 1.79 1.666.43 1.701.706 1.729.928 0 0-.292.466-.921.897-.34-.512-.548-.77-.865-1.094-.828-.849-2.154-1.308-3.238-1.298-1.032.008-1.795.47-3.817.47-2.05 0-3.473-.509-4.524-1.114-.754-.404-1.298-.91-1.808-1.315.27.647.532 1.159.768 1.679.174.372.817 1.638 1.62 2.328 1.033.856 2.053 1.142 3.06 1.142 1.02 0 2.026-.293 3.016-.582.973-.283 1.914-.558 2.853-.558 1.218 0 1.88.4 2.412.722-.17.116-.354.24-.563.369-.752.469-1.348.643-1.93.643-.714 0-2.002-.367-3.126-.809-.008.08-.01.162-.012.248-.002.092-.002.182-.002.284 0 .623.104 1.369.817 2.087.308.31.688.546 1.135.713.466.173 1.017.258 1.614.29-.271.245-.527.475-.775.775-.6.726-1.088 1.7-1.088 2.953 0 .643.117 1.181.28 1.697.115.365.23.696.391 1.092l.53-.626c.01-.01.591-.683 1.388-1.253-.51 1.01-.814 2.114-.814 3.253 0 2.485 1.406 4.507 3.328 6.094 0 0 .46.4.78.644-.008-.398 0-.655 0-1.001 0-1.213.201-3.557 1.012-4.974.088.331.188.82.275 1.37.114.733.204 1.576.204 2.31 0 1.218-.18 2.119-.39 2.767-.244.746-.45 1.03-.638 1.345a8.504 8.504 0 0 0 2.206-.223c1.312-.3 2.466-.933 3.385-2.101.398-.508.702-1.08.912-1.718.227-.694.342-1.463.343-2.306a10.39 10.39 0 0 0-.116-1.483c-.02-.133-.047-.294-.061-.395.138.11.234.21.35.341.452.508.86 1.286.86 2.545 0 .429-.025 1.093-.213 1.838.436-.14.88-.401 1.3-.664.51-.319.995-.697 1.432-1.127 1.2-1.18 2.027-2.744 2.045-4.533.012-1.165-.24-2.1-.8-3.189-.06-.118-.13-.24-.193-.36.13.055.253.123.369.196.636.404 1.048 1.042 1.324 1.764.166.435.285.86.367 1.362.187-.22.406-.521.655-.947ZM27.683 47.133c-.062 0-.125 0-.188-.002l.032-.054c.166-.271.354-.578.567-1.231.261-.8.393-1.736.393-2.782 0-.651-.072-1.474-.204-2.318-.082-.52-.182-1.02-.276-1.375a.048.048 0 0 0-.04-.035h-.007a.049.049 0 0 0-.042.023c-.752 1.314-1.018 3.514-1.018 4.998l-.002.335c-.002.178-.003.353 0 .568a20.308 20.308 0 0 1-.699-.581c-2.198-1.814-3.311-3.852-3.311-6.058 0-1.083.272-2.17.81-3.232a.047.047 0 0 0-.013-.057.048.048 0 0 0-.03-.011c-.011 0-.02.002-.03.009a8.918 8.918 0 0 0-1.393 1.257l-.48.568a14.036 14.036 0 0 1-.361-1.014 5.381 5.381 0 0 1-.277-1.683c0-1.075.363-2.058 1.077-2.922.239-.289.485-.512.745-.748l.025-.022a.047.047 0 0 0 .013-.051.049.049 0 0 0-.044-.032c-.646-.033-1.17-.127-1.6-.287a3.058 3.058 0 0 1-1.116-.701c-.708-.714-.804-1.44-.804-2.054 0-.102 0-.191.003-.283.002-.065.003-.125.006-.18 1.236.479 2.44.787 3.084.787.63 0 1.235-.2 1.956-.65.183-.114.363-.232.564-.37a.05.05 0 0 0 .021-.04.05.05 0 0 0-.023-.04c-.537-.324-1.204-.729-2.437-.729-.946 0-1.88.272-2.868.56-.977.285-1.987.58-3.002.58-1.12 0-2.11-.37-3.028-1.131-.836-.718-1.485-2.052-1.607-2.312-.08-.177-.165-.353-.25-.535-.144-.302-.292-.614-.443-.965l.173.142c.418.344.89.734 1.493 1.056 1.308.753 2.795 1.12 4.546 1.12 1.195 0 1.965-.164 2.583-.294.438-.093.815-.173 1.235-.177h.032c1.147 0 2.42.516 3.17 1.284.323.33.531.594.86 1.087a.05.05 0 0 0 .04.021c.01 0 .02-.003.027-.008.63-.432.923-.892.935-.912a.043.043 0 0 0 .007-.03c-.03-.236-.066-.53-1.765-.968-1.526-.393-2.39-1.366-2.675-1.686a1.238 1.238 0 0 0-.09-.096c-.292-.238-.733-.374-1.21-.374-.782 0-1.649.356-2.238.654a8.52 8.52 0 0 0-.845.48c-.278.182-.57.39-.965.68.036-.205.096-.525.18-.897.436-1.951 1.098-3.374 1.97-4.23.38-.373.813-.657 1.287-.845.438-.173.91-.261 1.403-.261.952 0 1.8.32 2.342.59a.049.049 0 0 0 .064-.019c.196-.334.481-.636.634-.798a.048.048 0 0 0 .01-.05l-3.513-8.477c.053-.006.108-.008.162-.008.83 0 1.684.623 1.904 1.39.115.401.057.864-.156 1.239a.047.047 0 0 0 .042.07.05.05 0 0 0 .036-.015 1.554 1.554 0 0 1 1.14-.492c.694 0 1.35.458 1.504 1.136.214.95-.214 1.714-.979 1.962-.202.058-.315.084-.448.084-.083 0-.177-.01-.324-.034h-.008a.05.05 0 0 0-.04.02.047.047 0 0 0-.002.051c.591.975 1.245 1.579 2.673 1.579 1.274 0 2.163-1.184 2.867-2.342a.047.047 0 0 0-.01-.06.048.048 0 0 0-.032-.012c-.01 0-.02.002-.029.009-.26.188-.59.29-.932.29a1.569 1.569 0 0 1 0-3.135c.28 0 .56.072.788.202a.053.053 0 0 0 .025.007.048.048 0 0 0 .034-.082 1.569 1.569 0 0 1 1.086-2.697c.863 0 1.565.703 1.565 1.568 0 .417-.184.845-.492 1.147a.047.047 0 0 0-.004.063.05.05 0 0 0 .038.018.05.05 0 0 0 .025-.007 1.569 1.569 0 1 1 .8 2.916c-.333 0-.936-.292-.942-.295a.045.045 0 0 0-.021-.004.048.048 0 0 0-.042.071c.659 1.086 1.581 2.332 2.875 2.332 1.41 0 2.057-.6 2.645-1.568a.047.047 0 0 0-.002-.05.049.049 0 0 0-.04-.022l-.008.001a1.98 1.98 0 0 1-.323.034c-.134 0-.247-.026-.451-.085-.763-.247-1.192-1.012-.976-1.966.152-.673.809-1.131 1.503-1.131a1.57 1.57 0 0 1 1.14.492.05.05 0 0 0 .036.015c.01 0 .02-.003.029-.01a.047.047 0 0 0 .014-.061 1.635 1.635 0 0 1-.157-1.238c.216-.754 1.087-1.391 1.903-1.391.055 0 .11.003.163.008l-3.276 7.935c-.011.018-.008.037.006.054.008.009.02.014.034.014a.055.055 0 0 0 .025-.006c1.08-.496 2.094-.748 3.014-.748.378 0 .735.042 1.09.127-.311 1.23-.788 2.655-1.935 3.935a.047.047 0 0 0 .014.073l.02.01c2.773 1.418 3.98 3.594 4.037 7.274l-.003.12c-.002.072-.004.13-.009.203-.049-.098-.111-.223-.16-.313-.264-.496-.51-.842-.794-1.121a2.987 2.987 0 0 0-1.78-.832h-.004a.048.048 0 0 0-.044.03.047.047 0 0 0 .014.055c.059.045.114.092.167.139.857.74 1.511 1.679 1.945 2.793.368.947.547 1.95.547 3.066 0 1.504-.346 2.857-1.028 4.02-.2.34-.393.623-.585.86a6.69 6.69 0 0 0-.353-1.268c-.316-.83-.755-1.414-1.343-1.786a2.518 2.518 0 0 0-.375-.2.052.052 0 0 0-.02-.004.05.05 0 0 0-.035.015.047.047 0 0 0-.008.054c.031.06.064.12.097.18s.066.12.096.18c.576 1.12.806 2.038.795 3.167-.017 1.631-.738 3.229-2.03 4.5a8.39 8.39 0 0 1-1.425 1.12c-.365.228-.787.481-1.205.63.13-.545.193-1.123.193-1.764 0-1.059-.294-1.926-.872-2.576a2.65 2.65 0 0 0-.357-.347.047.047 0 0 0-.03-.01.048.048 0 0 0-.049.054c.007.05.018.115.03.184.01.07.023.144.032.21.079.552.117 1.035.116 1.477-.002.834-.117 1.605-.342 2.29a5.541 5.541 0 0 1-.904 1.705c-.85 1.08-1.948 1.763-3.357 2.083a8.518 8.518 0 0 1-1.92.227Z" fill="#F6F6F6" fill-opacity=".6"/><path d="M60 19.688a29.961 29.961 0 0 0-9.536-16.23 83.16 83.16 0 0 1-5.417 1.181C40.661 1.639 35.417 0 30 0a26.672 26.672 0 0 0-15.047 4.638 83.16 83.16 0 0 1-5.417-1.18A29.965 29.965 0 0 0 0 19.688a80.927 80.927 0 0 1 3.75 4.018c-.061.72-.094 1.446-.094 2.175 0 6.864 2.775 13.447 7.716 18.3a26.348 26.348 0 0 0 7.425 5.124 79.434 79.434 0 0 1 1.667 5.2 31.166 31.166 0 0 0 19.072-.001 79.417 79.417 0 0 1 1.668-5.2 26.348 26.348 0 0 0 7.425-5.123c4.94-4.854 7.716-11.437 7.716-18.3 0-.73-.033-1.455-.095-2.175A80.631 80.631 0 0 1 60 19.688Zm-3.801 4.003c.063.726.097 1.456.097 2.19 0 6.852-2.77 13.423-7.702 18.268a26.291 26.291 0 0 1-7.43 5.122 79.743 79.743 0 0 0-1.668 5.196 31.096 31.096 0 0 1-18.992.001 79.743 79.743 0 0 0-1.668-5.197 26.31 26.31 0 0 1-7.43-5.121c-4.931-4.845-7.702-11.416-7.702-18.268 0-.734.034-1.464.097-2.19a81.409 81.409 0 0 0-3.748-4.018A29.914 29.914 0 0 1 9.55 3.51a83.09 83.09 0 0 0 5.415 1.18A26.611 26.611 0 0 1 30 .047a26.623 26.623 0 0 1 15.037 4.641 83.19 83.19 0 0 0 5.415-1.18 29.914 29.914 0 0 1 9.496 16.163 81.704 81.704 0 0 0-3.749 4.019Z" fill="#BFBFBF"/><path d="M56.13 23.574a.108.108 0 0 0-.027.08c.065.739.1 1.481.1 2.228 0 6.827-2.76 13.375-7.675 18.204a26.205 26.205 0 0 1-7.444 5.122.11.11 0 0 0-.058.062 79.494 79.494 0 0 0-1.655 5.161 31.034 31.034 0 0 1-18.746 0 79.376 79.376 0 0 0-1.655-5.161.108.108 0 0 0-.057-.063 26.2 26.2 0 0 1-7.445-5.121C6.554 39.258 3.794 32.71 3.794 25.882c0-.747.035-1.49.1-2.227a.107.107 0 0 0-.026-.08 81.451 81.451 0 0 0-3.723-3.99A29.85 29.85 0 0 1 8.405 4.67c.363-.356.732-.701 1.11-1.036 1.775.45 3.569.84 5.376 1.172.03.005.06-.001.085-.018A26.534 26.534 0 0 1 30 .137c5.41 0 10.649 1.645 15.023 4.652a.112.112 0 0 0 .083.017 83.197 83.197 0 0 0 5.377-1.173 29.845 29.845 0 0 1 9.37 15.953 81.437 81.437 0 0 0-3.723 3.988ZM46.636 5.65a.165.165 0 0 0-.129.121.161.161 0 0 0 .057.166 25.765 25.765 0 0 1 1.963 1.741 25.591 25.591 0 0 1 7.337 14.085.166.166 0 0 0 .286.082 82.366 82.366 0 0 1 2.357-2.508.257.257 0 0 0 .066-.24A28.754 28.754 0 0 0 50.27 4.963a.268.268 0 0 0-.245-.064 84.55 84.55 0 0 1-3.388.751Zm1.101 2.804a24.943 24.943 0 0 0-2.83-2.393.268.268 0 0 0-.204-.047A84.568 84.568 0 0 1 30 7.304c-4.966 0-9.885-.439-14.706-1.29a.268.268 0 0 0-.203.047 24.943 24.943 0 0 0-2.83 2.393 24.475 24.475 0 0 0-7.188 14.653.264.264 0 0 0 .062.202 81.638 81.638 0 0 1 8.486 11.863 81.019 81.019 0 0 1 6.215 13.153.267.267 0 0 0 .146.153A25.462 25.462 0 0 0 30 50.528c3.48 0 6.887-.71 10.017-2.05a.267.267 0 0 0 .146-.153 81.042 81.042 0 0 1 6.215-13.153 81.684 81.684 0 0 1 8.486-11.863.264.264 0 0 0 .063-.202 24.479 24.479 0 0 0-7.188-14.653ZM17.005 4.8a.205.205 0 0 0 .075.379 83.355 83.355 0 0 0 12.918 1.008c4.355 0 8.674-.343 12.92-1.009a.204.204 0 0 0 .076-.378 25.417 25.417 0 0 0-12.995-3.565c-4.62 0-9.107 1.252-12.994 3.565ZM3.847 21.844a.168.168 0 0 0 .169.049.163.163 0 0 0 .116-.13A25.591 25.591 0 0 1 11.47 7.678a25.846 25.846 0 0 1 1.966-1.744.16.16 0 0 0-.07-.283 84.518 84.518 0 0 1-3.393-.752.267.267 0 0 0-.245.063 28.751 28.751 0 0 0-8.305 14.134.255.255 0 0 0 .067.24 82.366 82.366 0 0 1 2.357 2.508ZM17.915 47.48c.076.041.17.031.236-.025a.2.2 0 0 0 .056-.225A79.97 79.97 0 0 0 5.288 25.247a.212.212 0 0 0-.23-.064.206.206 0 0 0-.141.19c-.004.169-.006.339-.006.51 0 6.536 2.643 12.805 7.348 17.427a25.043 25.043 0 0 0 5.656 4.17Zm21.6 2.672a.16.16 0 0 0-.042-.168.169.169 0 0 0-.173-.035 26.61 26.61 0 0 1-18.602 0 .167.167 0 0 0-.174.035.16.16 0 0 0-.043.168 80.59 80.59 0 0 1 1.032 3.26.26.26 0 0 0 .18.177 29.887 29.887 0 0 0 16.61 0 .262.262 0 0 0 .18-.177c.32-1.093.665-2.18 1.033-3.26ZM55.08 25.366a.203.203 0 0 0-.14-.188.209.209 0 0 0-.227.065 79.916 79.916 0 0 0-12.925 21.99.2.2 0 0 0 .057.224.209.209 0 0 0 .234.024 25.052 25.052 0 0 0 5.66-4.17c4.704-4.622 7.348-10.892 7.348-17.428 0-.174-.003-.346-.007-.517ZM25.91 17.63a.072.072 0 0 1 .039-.01c10.433 0 9.462-.003 9.73.007.031.001.059.022.067.052a.071.071 0 0 1-.03.08 8.318 8.318 0 0 0-1.803 1.537l.423.33c1.258-1.515 3.19-2.453 5.06-2.453h.368c.024 0 .046.012.06.03a.072.072 0 0 1 .01.065l-.118.342c-.378 1.102-1.57 3.724-4.484 4.404l.11.524c1.248-.241 2.017-.784 2.662-1.335a.075.075 0 0 1 .08-.01c1.907.914 3.147 2.426 3.586 4.373.03.128.06.258.087.387a.071.071 0 0 1-.04.079.073.073 0 0 1-.087-.02 1.605 1.605 0 0 0-.267-.232c-.506-.307-1.098-.463-1.758-.463-.564 0-1.06.115-1.361.206.424.358.77.672 1.085.98 1.034 1.015 1.704 1.988 2.108 3.058.305.81.453 1.66.453 2.6 0 .999-.18 1.915-.538 2.724-.037.087-.1.23-.127.306a.073.073 0 0 1-.07.049h-.003a.072.072 0 0 1-.067-.055 1.6 1.6 0 0 0-.106-.294c-.836-1.737-2.23-2.102-3.254-2.102a4.97 4.97 0 0 0-.332.012c.7 1.058 1.705 2.629 1.705 4.554 0 1.397-.566 2.783-1.754 3.95-.666.655-.94.772-1.248 1a.073.073 0 0 1-.088 0 .07.07 0 0 1-.024-.083c.024-.057.045-.195.047-.271.056-2.114-1.12-3.821-3.008-4.382.225.896.483 1.895.483 3.258 0 1.447-.366 2.648-1.09 3.57-.83 1.06-2.197 1.737-3.397 1.932l-.27.043h-.011a.071.071 0 0 1-.057-.116c.02-.023.075-.14.095-.185a2.62 2.62 0 0 0 .138-.398c.306-1.111.316-2.456.316-2.605 0-1.891-.405-3.514-.875-5.228-.202.155-.318.271-.485.438-.646.635-1.118 1.751-1.404 3.318a14.48 14.48 0 0 0-.213 2.085.07.07 0 0 1-.047.065.074.074 0 0 1-.08-.019s-.177-.192-.224-.238c-.981-.974-1.794-2.122-2.138-3.461a5.62 5.62 0 0 1-.176-1.395c0-1.78.726-3.443 2.16-4.946h-.003c-1.299.248-2.277.694-3.469 1.865a9.94 9.94 0 0 0-.18.19.073.073 0 0 1-.072.02.071.071 0 0 1-.052-.054 6.404 6.404 0 0 1-.154-1.24c0-1.103.426-2.08 1.267-2.907.78-.766 1.376-1.022 3.22-1.776-1.168.157-1.701.252-2.765.252-1.334 0-2.256-.269-2.82-.822-.158-.156-.319-.354-.51-.761a3.966 3.966 0 0 1-.105-.253.07.07 0 0 1 .018-.075.073.073 0 0 1 .078-.015c.06.025.609.22.675.242.135.043.29.088.421.122.452.116.835.17 1.206.17 1.091 0 1.979-.472 3.058-1.233a9.21 9.21 0 0 0 1.132-.924c.477-.468.534-.683.534-.685-.02-.623-.04-1.221-2.325-1.81-1.287-.332-1.982-1.101-2.316-1.47-.063-.07-.121-.135-.151-.159-.452-.363-1.01-.547-1.658-.547-.48 0-1.006.104-1.605.319-.332.119-.6.234-.98.407l-.27.122a.075.075 0 0 1-.079-.011c-.021-.02-.03-.049-.021-.075l.088-.278c.102-.325.214-.623.362-.967.125-.293.254-.548.394-.78.47-.776 1.05-1.306 1.727-1.575.352-.14.738-.212 1.144-.212.99 0 1.885.43 2.224.615a.07.07 0 0 1 .037.061c.023 1.578.95 2.68 2.253 2.68.614 0 1.094-.2 1.554-.653.24-.236.435-.523.595-.876.094-.207.164-.362.172-.468a.07.07 0 0 1 .03-.053.076.076 0 0 1 .042-.014c.007 0 .014.002.02.003.167.048.364.152.52.297l.484-.422c-.468-.46-1.274-.815-2.224-.815-.294 0-.52.032-.726.065-.6.096-1.278.26-1.93-.114a.07.07 0 0 1-.025-.098 4.255 4.255 0 0 1 1.348-1.345Zm-9.186 9.09a3.92 3.92 0 0 1-2.803-1.14c-.4-.392-.757-.757-1.069-1.446a.07.07 0 0 1 .02-.083.074.074 0 0 1 .085-.006c.212.132.495.32.901.485 1.073.437 2.08.683 3.7.683 1.797 0 3.159-.53 3.935-.53 1.149 0 1.618.297 2.479.987a.071.071 0 0 1 .019.087.073.073 0 0 1-.083.037 6.314 6.314 0 0 0-2.333-.119c-.696.102-1.304.28-1.947.466-.993.29-1.952.579-2.904.579Zm9.297-5.103c-.857 0-1.484-.705-1.644-1.544l-.05-.267a.072.072 0 0 1 .07-.085c.018 0 .35.093.366.097.2.055.403.086.598.114.03.004.054.027.06.056.038.161.06.288.18.405.129.127.3.198.485.198a.679.679 0 0 0 .685-.633l.006-.117a.072.072 0 0 1 .069-.067c.48-.024.568-.012.968.013a.073.073 0 0 1 .066.089c-.105.403-.214.837-.635 1.249-.443.434-.867.492-1.224.492Zm4.09 12.264.15-.02c.4-.057.8-.137 1.19-.241.748-.199 1.837-.61 2.654-1.877.245-.381.42-.78.536-1.218a5.596 5.596 0 0 0 .161-1.688.072.072 0 0 1 .073-.075c.026 0 .05.013.063.036.075.129.146.274.21.43.14.34.23.724.279 1.173.03.28.044.584.044.955v.073c0 .358 0 .695-.028 1.078l-.012.166.114-.123a9.23 9.23 0 0 0 1.06-1.339c.665-1.032 1.002-2.158 1.002-3.346 0-.522-.059-.998-.18-1.456a5.559 5.559 0 0 0-.886-1.842 7.772 7.772 0 0 0-.827-.98l-.284.871c.2.232.353.447.48.631.368.533.6 1.02.733 1.532.127.497.144.974.144 1.415 0 .354-.039.71-.117 1.06a9.252 9.252 0 0 1-.398 1.285.073.073 0 0 1-.069.047h-.011a.073.073 0 0 1-.062-.068c0-.004-.02-.404-.056-.617l-.017-.1a4.28 4.28 0 0 0-.113-.539 3.443 3.443 0 0 0-.865-1.452 3.456 3.456 0 0 0-.858-.611 4.503 4.503 0 0 0-.57-.243c.044.169.09.353.14.564.161.682.236 1.245.236 1.772 0 .84-.193 1.553-.592 2.177-.135.212-.295.41-.477.587l-.02.02a4.957 4.957 0 0 1-.956.765.074.074 0 0 1-.09-.01.071.071 0 0 1-.012-.088c.09-.146.169-.31.244-.466.104-.212.168-.435.216-.598.455-1.58-.3-2.555-.907-3.152a5.712 5.712 0 0 0-.14-.134c-.008.175-.016.35-.029.527-.056.794-.205 1.697-.894 2.374-.083.082-.21.206-.362.33-.13.106-.279.226-.476.345a.074.074 0 0 1-.088-.008.07.07 0 0 1-.015-.085c.026-.049.05-.09.075-.132.056-.096.114-.195.198-.4.138-.339.166-.645.166-.842 0-.319-.069-.57-.13-.754a2.036 2.036 0 0 0-.074-.195l-.726.384.04.137c.047.183.07.351.07.501 0 .338-.096.655-.295.972-.127.202-.292.4-.52.625a14.26 14.26 0 0 1-.59.538l-.248.22.155-.002c.374-.004.87-.02 1.396-.113.835-.147 1.486-.461 1.993-.96.204-.2.384-.431.536-.69a.074.074 0 0 1 .085-.033c.033.01.054.042.05.075a3.014 3.014 0 0 1-.216.854 5.568 5.568 0 0 1-.604 1.084c-.162.235-.345.492-.584.779l-.095.115Zm-.038-8.403c.106-.03.21-.064.308-.105l-.035.001c-.68 0-1.11-.386-1.528-.76-.394-.351-.766-.684-1.324-.684-.079 0-.156.007-.23.022.44.093.62.274.857.508l.054.052c.084.083.165.169.247.254.08.083.158.167.238.246.308.302.563.517 1.038.517.118 0 .245-.018.375-.051Zm5.584-4.877c.596-.136 1.145-.447 1.631-.925.523-.514.77-.914.86-1.13-1.329.217-2.538 1.282-2.762 1.489l.27.566Zm-6.073 26.22c1.388-.317 2.469-.988 3.305-2.051a5.458 5.458 0 0 0 .89-1.677c.607-1.854.217-3.699.16-4.124a.136.136 0 0 1 .07-.138.142.142 0 0 1 .156.013c.142.113.242.217.368.358.593.667.894 1.554.894 2.636 0 .583-.052 1.115-.158 1.619.532-.22 1.596-.84 2.44-1.67 1.275-1.253 1.987-2.829 2.003-4.436.017-1.654-.521-2.598-.978-3.485a.136.136 0 0 1 .023-.157c.039-.04.1-.055.157-.032.878.37 1.43 1.15 1.768 2.037.141.37.243.715.319 1.085.15-.2.301-.431.454-.69.674-1.15 1.016-2.487 1.016-3.976 0-2.228-.794-4.352-2.462-5.792a3.111 3.111 0 0 0-.162-.135.136.136 0 0 1-.044-.159.14.14 0 0 1 .13-.087 3.075 3.075 0 0 1 1.847.858c.292.286.541.638.81 1.142-.057-3.327-1.037-5.655-4.007-7.17a.137.137 0 0 1-.04-.213c1.107-1.236 1.584-2.61 1.893-3.81a4.54 4.54 0 0 0-.979-.103c-.907 0-1.907.249-2.975.739a.142.142 0 0 1-.165-.035.135.135 0 0 1-.023-.143l3.227-7.816c-.789-.016-1.638.597-1.846 1.325-.11.378-.053.816.149 1.17a.136.136 0 0 1-.04.178.141.141 0 0 1-.184-.018 1.478 1.478 0 0 0-1.075-.463c-.653 0-1.27.431-1.413 1.055-.205.909.198 1.634.912 1.867.318.091.405.102.734.048a.142.142 0 0 1 .138.058c.03.044.033.102.005.148-.604.994-1.27 1.61-2.723 1.61-1.34 0-2.283-1.268-2.953-2.374a.136.136 0 0 1 .017-.164.142.142 0 0 1 .165-.03c.163.08.642.286.9.286a1.478 1.478 0 1 0-.751-2.75.142.142 0 0 1-.183-.033.136.136 0 0 1 .011-.182 1.55 1.55 0 0 0 .465-1.084c0-.815-.661-1.478-1.474-1.478a1.478 1.478 0 0 0-1.023 2.544c.05.049.056.126.014.181a.141.141 0 0 1-.181.035 1.522 1.522 0 0 0-.743-.19 1.478 1.478 0 0 0 0 2.956c.322 0 .633-.097.878-.273a.142.142 0 0 1 .177.009c.05.044.06.116.026.172-.716 1.18-1.625 2.386-2.945 2.386-1.467 0-2.16-.649-2.75-1.622a.135.135 0 0 1 .004-.148.14.14 0 0 1 .139-.058c.33.055.417.042.728-.047.72-.234 1.12-.959.92-1.853-.144-.64-.763-1.07-1.416-1.07a1.472 1.472 0 0 0-1.072.462.142.142 0 0 1-.185.019.135.135 0 0 1-.04-.178c.2-.355.256-.792.148-1.171-.21-.727-1.06-1.341-1.846-1.325l3.465 8.361c.02.05.01.106-.027.145-.151.16-.432.457-.622.782a.14.14 0 0 1-.184.055c-.534-.265-1.367-.58-2.302-.58-.481 0-.942.085-1.369.254-.463.183-.886.461-1.257.826-.858.843-1.513 2.251-1.946 4.185-.057.255-.103.485-.138.671.306-.223.55-.395.785-.548.262-.171.509-.311.852-.485.6-.303 1.481-.665 2.28-.665.498 0 .961.144 1.27.396.017.014.051.05.1.106.28.314 1.13 1.272 2.629 1.658 1.63.42 1.79.71 1.832 1.044a.135.135 0 0 1-.02.088c-.012.02-.314.496-.96.938a.14.14 0 0 1-.197-.038c-.327-.493-.525-.744-.848-1.074-.733-.75-1.98-1.256-3.104-1.256-1.051.007-1.808.471-3.85.471-1.769 0-3.27-.37-4.59-1.13-.552-.295-.994-.645-1.384-.966.509 1.125 1.178 2.622 2.121 3.432.9.746 1.87 1.109 2.969 1.109 1.987 0 3.935-1.14 5.87-1.14 1.258 0 1.938.412 2.484.743a.136.136 0 0 1 .007.23c-.811.556-1.589 1.036-2.573 1.036-.758 0-2.047-.389-2.998-.749-.016.698-.03 1.515.774 2.326.29.292.654.52 1.084.68.42.156.935.248 1.572.281a.139.139 0 0 1 .124.09c.02.053.005.111-.036.148-.276.25-.524.474-.761.76-.7.849-1.057 1.813-1.057 2.867 0 .591.081 1.245.576 2.522l.383-.452a9.025 9.025 0 0 1 1.408-1.271.142.142 0 0 1 .172.006c.05.04.064.11.035.166-.53 1.05-.8 2.123-.8 3.192 0 2.178 1.103 4.193 3.281 5.99.004.003.277.241.545.46 0-.248.004-.461.004-.714 0-1.496.27-3.713 1.03-5.041.06-.108.225-.087.257.032.094.358.195.861.277 1.384.323 2.063.368 4.519-.718 6.311a8.37 8.37 0 0 0 1.931-.223Z" fill="#BFBFBF"/></g><defs><clipPath id="a"><path fill="#fff" d="M0 0h60v56H0z"/></clipPath></defs></svg>