<svg xmlns="http://www.w3.org/2000/svg"><style>:root svg:not(:target){display:none}</style><svg viewBox="0 0 16 16" fill="none" id="star"><path fill-rule="evenodd" clip-rule="evenodd" d="M9.61 6.453 7.937 1.2 6.264 6.453.801 6.436l4.416 3.231-1.69 5.254 4.416-3.25 4.416 3.25-1.708-5.254 4.428-3.231-5.47.017Z" fill="#FFC701"/></svg><svg viewBox="0 0 32 32" fill="none" id="advantages_delivery"><g clip-path="url(#advantages_delivery_0)"><path d="M25.333 6.666h-2.769a6.66 6.66 0 0 0-4.899-5.29 1.333 1.333 0 1 0-.664 2.581A3.998 3.998 0 0 1 20 7.832v14.834H5.333A2.67 2.67 0 0 1 2.667 20v-5.334H6A1.333 1.333 0 1 0 6 12H2.667A2.67 2.67 0 0 0 0 14.666V20a5.343 5.343 0 0 0 4.073 5.182 4.672 4.672 0 0 0 4.594 5.484 4.67 4.67 0 0 0 4.617-5.333h5.432a4.672 4.672 0 0 0 4.617 5.333 4.67 4.67 0 0 0 4.594-5.484A5.343 5.343 0 0 0 32 20v-6.667a6.674 6.674 0 0 0-6.667-6.667Zm4 6.667v1.333h-6.666V9.333h2.666c2.206 0 4 1.795 4 4ZM10.667 26c0 1.102-.898 2-2 2-1.103 0-2-.898-2-2 0-.252.049-.475.121-.667h3.759c.072.192.121.415.121.667h-.001Zm12.666 2c-1.102 0-2-.898-2-2 0-.252.05-.475.122-.667h3.758c.072.192.122.415.122.667 0 1.102-.899 2-2.002 2Zm3.334-5.334h-4v-5.333h6.666V20a2.67 2.67 0 0 1-2.666 2.666ZM0 2.666a1.333 1.333 0 0 1 1.333-1.333h10.872a1.333 1.333 0 1 1 0 2.667H1.333A1.333 1.333 0 0 1 0 2.666ZM0 8a1.333 1.333 0 0 1 1.333-1.334H9.54a1.333 1.333 0 0 1 0 2.667H1.333A1.333 1.333 0 0 1 0 8Z" fill="#F70F31"/></g><defs><clipPath id="advantages_delivery_0"><path fill="#fff" d="M0 0h32v32H0z"/></clipPath></defs></svg><svg viewBox="0 0 32 32" fill="none" id="advantages_professional"><g clip-path="url(#advantages_professional_0)"><path d="M25.333 5.333h-1.466A6.679 6.679 0 0 0 17.333 0h-2.666a6.679 6.679 0 0 0-6.534 5.333H6.667A6.675 6.675 0 0 0 0 12v13.333A6.674 6.674 0 0 0 6.667 32h18.666A6.674 6.674 0 0 0 32 25.333V12a6.675 6.675 0 0 0-6.667-6.667ZM14.667 2.667h2.666a4 4 0 0 1 3.755 2.666H10.912a4 4 0 0 1 3.755-2.666ZM6.667 8h18.666a4 4 0 0 1 4 4v4H2.667v-4a4 4 0 0 1 4-4Zm18.666 21.333H6.667a4 4 0 0 1-4-4v-6.666h12V20a1.333 1.333 0 1 0 2.666 0v-1.333h12v6.666a4 4 0 0 1-4 4Z" fill="#F70F31"/></g><defs><clipPath id="advantages_professional_0"><path fill="#fff" d="M0 0h32v32H0z"/></clipPath></defs></svg><svg viewBox="0 0 32 32" fill="none" id="advantages_quality"><g clip-path="url(#advantages_quality_0)"><path d="M26.665 10.666A10.666 10.666 0 1 0 8 17.698v10.968a3.333 3.333 0 0 0 5.416 2.603l2.584-2.07 2.584 2.067a3.334 3.334 0 0 0 5.416-2.6V17.698a10.61 10.61 0 0 0 2.666-7.032ZM16 2.666a8 8 0 1 1-8 8 8.008 8.008 0 0 1 8-8Zm4.956 26.598a.655.655 0 0 1-.706-.08L16 25.782l-4.25 3.402a.667.667 0 0 1-1.084-.518V19.89a10.58 10.58 0 0 0 10.667 0v8.776a.649.649 0 0 1-.377.598Z" fill="#F70F31"/></g><defs><clipPath id="advantages_quality_0"><path fill="#fff" d="M0 0h32v32H0z"/></clipPath></defs></svg><svg viewBox="0 0 16 17" fill="none" id="contacts_clock"><path d="M6.168 15.833H1.281a.61.61 0 1 1 0-1.222h4.887a.611.611 0 0 1 0 1.222ZM4.946 13.39H1.281a.61.61 0 0 1 0-1.222h3.665a.61.61 0 1 1 0 1.222Zm-1.222-2.444H1.281a.61.61 0 1 1 0-1.222h2.443a.61.61 0 1 1 0 1.222Z" fill="#fff"/><path d="M8.614 15.805a.611.611 0 1 1-.055-1.222 6.11 6.11 0 1 0-6.64-6.637.61.61 0 0 1-1.217-.11 7.33 7.33 0 0 1 14.632.666 7.29 7.29 0 0 1-6.72 7.303Z" fill="#fff"/><path d="M8.002 4.837a.61.61 0 0 0-.611.61v3.055c0 .162.064.318.179.432l1.832 1.833a.61.61 0 0 0 .864-.864L8.612 8.25V5.448a.61.61 0 0 0-.61-.611Z" fill="#fff"/></svg><svg viewBox="0 0 16 17" fill="none" id="contacts_email"><g clip-path="url(#contacts_email_0)"><path d="M12.667 1.167H3.333A3.337 3.337 0 0 0 0 4.5v8a3.337 3.337 0 0 0 3.333 3.333h9.334A3.337 3.337 0 0 0 16 12.5v-8a3.338 3.338 0 0 0-3.333-3.333ZM3.333 2.5h9.334a2 2 0 0 1 1.853 1.258L9.415 8.864a2.005 2.005 0 0 1-2.83 0L1.48 3.758A2 2 0 0 1 3.333 2.5Zm9.334 12H3.333a2 2 0 0 1-2-2v-7l4.31 4.306a3.338 3.338 0 0 0 4.714 0l4.31-4.306v7a2 2 0 0 1-2 2Z" fill="#fff"/></g><defs><clipPath id="contacts_email_0"><path fill="#fff" transform="translate(0 .5)" d="M0 0h16v16H0z"/></clipPath></defs></svg><svg viewBox="0 0 16 17" fill="none" id="contacts_location"><g clip-path="url(#contacts_location_0)"><path d="m7.973 16.506-.465-.399c-.64-.536-6.235-5.367-6.235-8.901a6.7 6.7 0 0 1 13.4 0c0 3.534-5.595 8.365-6.233 8.904l-.467.396Zm0-14.551a5.257 5.257 0 0 0-5.25 5.25c0 2.22 3.44 5.767 5.25 7.39 1.809-1.623 5.25-5.172 5.25-7.39a5.257 5.257 0 0 0-5.25-5.25Z" fill="#fff"/><path d="M7.972 9.861a2.656 2.656 0 1 1 0-5.31 2.656 2.656 0 0 1 0 5.31Zm0-3.983a1.328 1.328 0 1 0 0 2.656 1.328 1.328 0 0 0 0-2.656Z" fill="#fff"/></g><defs><clipPath id="contacts_location_0"><path fill="#fff" transform="translate(0 .5)" d="M0 0h16v16H0z"/></clipPath></defs></svg><svg viewBox="0 0 16 17" fill="none" id="contacts_phone"><g clip-path="url(#contacts_phone_0)"><path d="m14.78 1.713-.7-.606a2.064 2.064 0 0 0-2.92 0c-.02.02-1.253 1.626-1.253 1.626a2.07 2.07 0 0 0 0 2.854l.774.973c-.974 2.207-2.487 3.727-4.62 4.633l-.974-.78a2.057 2.057 0 0 0-2.853 0S.627 11.646.607 11.666c-.806.807-.806 2.114-.033 2.887l.667.767c.766.767 1.8 1.186 2.92 1.186C9.254 16.506 16 9.753 16 4.666c0-1.113-.42-2.153-1.22-2.946v-.007ZM4.16 15.166c-.76 0-1.46-.28-1.94-.766l-.666-.767a.733.733 0 0 1-.027-1.006S3.121 11.4 3.141 11.38a.753.753 0 0 1 1.033 0c.02.02 1.36 1.093 1.36 1.093a.662.662 0 0 0 .653.1c2.76-1.053 4.74-3.026 5.88-5.873a.673.673 0 0 0-.1-.667s-1.073-1.346-1.086-1.36a.728.728 0 0 1 0-1.033c.02-.02 1.246-1.613 1.246-1.613.287-.26.734-.254 1.04.053l.7.607c.514.513.8 1.213.8 1.973 0 4.64-6.513 10.506-10.506 10.506Z" fill="#fff"/></g><defs><clipPath id="contacts_phone_0"><path fill="#fff" transform="translate(0 .5)" d="M0 0h16v16H0z"/></clipPath></defs></svg><svg viewBox="0 0 40 40" fill="none" id="controls_arrow-without-tail"><path d="M31.183 13.683a1.667 1.667 0 0 0-2.366 0l-7.634 7.634a1.667 1.667 0 0 1-2.366 0l-7.634-7.634a1.667 1.667 0 1 0-2.366 2.35l7.65 7.65a5 5 0 0 0 7.066 0l7.65-7.65a1.667 1.667 0 0 0 0-2.35Z" fill="#F70F31"/></svg><svg viewBox="0 0 32 32" fill="none" id="controls_arrow"><path fill-rule="evenodd" clip-rule="evenodd" d="M17.246 8.801a1.225 1.225 0 0 1 1.732 0l6.334 6.333a1.225 1.225 0 0 1 0 1.732L18.978 23.2a1.225 1.225 0 1 1-1.732-1.732l4.243-4.243H7.557a1.225 1.225 0 1 1 0-2.45h13.932l-4.243-4.242a1.225 1.225 0 0 1 0-1.732Z" fill="#121212"/></svg><svg viewBox="0 0 24 24" fill="none" id="controls_burger"><path fill-rule="evenodd" clip-rule="evenodd" d="M2 6c0-.552.333-1 .744-1h18.512c.411 0 .744.448.744 1s-.333 1-.744 1H2.744C2.333 7 2 6.552 2 6ZM2 12c0-.552.333-1 .744-1h18.512c.411 0 .744.448.744 1s-.333 1-.744 1H2.744C2.333 13 2 12.552 2 12ZM2 18c0-.552.333-1 .744-1h18.512c.411 0 .744.448.744 1s-.333 1-.744 1H2.744C2.333 19 2 18.552 2 18Z" fill="#fff"/></svg><svg viewBox="0 0 32 32" fill="none" id="controls_cart"><path d="M28.327 6.845A3.46 3.46 0 0 0 25.666 5.6H6.983l-.049-.406a3.467 3.467 0 0 0-3.44-3.06h-.257a1.156 1.156 0 0 0 0 2.31h.256a1.156 1.156 0 0 1 1.148 1.02l1.59 13.52a5.778 5.778 0 0 0 5.738 5.105h12.068a1.156 1.156 0 0 0 0-2.311H11.969a3.466 3.466 0 0 1-3.259-2.311h13.775a5.778 5.778 0 0 0 5.686-4.753l.907-5.031a3.46 3.46 0 0 0-.75-2.838ZM26.81 9.271l-.908 5.032a3.467 3.467 0 0 1-3.417 2.851H8.343L7.256 7.912h18.41a1.156 1.156 0 0 1 1.144 1.361ZM10.17 29.867a2.311 2.311 0 1 0 0-4.622 2.311 2.311 0 0 0 0 4.622ZM21.725 29.867a2.311 2.311 0 1 0 0-4.622 2.311 2.311 0 0 0 0 4.622Z" fill="#fff"/></svg><svg viewBox="0 0 14 14" fill="none" id="controls_checkmark"><path d="m13 3-7.563 7L2 6.818" stroke="#F70F31" stroke-width="1.5" stroke-linecap="round" stroke-linejoin="round"/></svg><svg viewBox="0 0 32 32" fill="none" id="controls_cross"><path d="M24 8a1.334 1.334 0 0 0-1.886 0L16 14.114 9.885 8A1.333 1.333 0 0 0 8 9.885L14.114 16 8 22.114A1.333 1.333 0 0 0 9.885 24L16 17.885 22.114 24A1.334 1.334 0 0 0 24 22.114L17.885 16 24 9.885A1.334 1.334 0 0 0 24 8Z" fill="#F70F31"/></svg><svg viewBox="0 0 30 30" fill="none" id="controls_heart-empty"><path d="M25.911 6.058c-2.828-2.744-7.428-2.744-10.255 0L15 6.694l-.656-.636c-2.827-2.744-7.428-2.744-10.255 0-2.77 2.687-2.787 6.947-.042 9.91 2.505 2.7 9.89 8.535 10.204 8.782.205.161.46.25.724.25l.024-.001c.264.012.529-.076.748-.25.314-.246 7.7-6.081 10.206-8.782 2.745-2.962 2.727-7.222-.042-9.91Zm-1.665 8.419c-1.952 2.105-7.32 6.446-9.247 7.987-1.927-1.54-7.293-5.881-9.245-7.987-1.915-2.066-1.933-5.008-.042-6.844a5.02 5.02 0 0 1 3.504-1.406c1.269 0 2.538.468 3.504 1.406l1.443 1.4c.167.162.383.267.616.302a1.184 1.184 0 0 0 1.056-.301l1.444-1.401c1.933-1.875 5.077-1.874 7.008 0 1.892 1.836 1.874 4.778-.04 6.844Z" fill="#8E8E8E"/></svg><svg viewBox="0 0 30 30" fill="none" id="controls_heart"><path d="M25.911 6.058c-2.828-2.744-7.428-2.744-10.255 0L15 6.694l-.656-.636c-2.827-2.744-7.428-2.744-10.255 0-2.77 2.687-2.787 6.947-.042 9.91 2.505 2.7 9.89 8.535 10.204 8.782.205.161.46.25.724.25l.024-.001c.264.012.529-.076.748-.25.314-.246 7.7-6.081 10.206-8.782 2.745-2.962 2.727-7.222-.042-9.91Z" fill="#8E8E8E"/></svg><svg viewBox="0 0 24 24" fill="none" id="controls_minus"><path d="M19 13H5a1 1 0 1 1 0-2h14a1 1 0 1 1 0 2Z" fill="#8E8E8E"/></svg><svg viewBox="0 0 20 20" fill="none" id="controls_phone"><path d="m17.064 2.929-.729-.632a2.15 2.15 0 0 0-3.041 0c-.021.02-1.306 1.694-1.306 1.694a2.156 2.156 0 0 0 0 2.971l.806 1.014c-1.014 2.298-2.59 3.88-4.812 4.825l-1.014-.813a2.143 2.143 0 0 0-2.971 0s-1.674 1.285-1.695 1.306c-.84.84-.84 2.2-.034 3.006l.694.798c.799.798 1.875 1.236 3.041 1.236 5.305 0 12.332-7.033 12.332-12.33 0-1.16-.438-2.242-1.271-3.068v-.007Zm-11.06 14.01c-.792 0-1.521-.292-2.021-.8l-.695-.797a.764.764 0 0 1-.027-1.049s1.66-1.277 1.68-1.298a.785.785 0 0 1 1.076 0c.021.02 1.417 1.139 1.417 1.139a.69.69 0 0 0 .68.104c2.875-1.097 4.937-3.152 6.124-6.116a.7.7 0 0 0-.104-.695s-1.118-1.402-1.132-1.416a.758.758 0 0 1 0-1.076c.021-.02 1.299-1.68 1.299-1.68.298-.27.763-.264 1.083.056l.729.631a2.88 2.88 0 0 1 .833 2.055c0 4.832-6.784 10.941-10.943 10.941Z" fill="#fff"/></svg><svg viewBox="0 0 24 24" fill="none" id="controls_plus"><path d="M19.875 10.875h-6.75v-6.75a1.125 1.125 0 0 0-2.25 0v6.75h-6.75a1.125 1.125 0 0 0 0 2.25h6.75v6.75a1.125 1.125 0 0 0 2.25 0v-6.75h6.75a1.125 1.125 0 0 0 0-2.25Z" fill="#8E8E8E"/></svg><svg viewBox="0 0 16 16" fill="none" id="controls_resize"><path d="M1 13.57 14.789 2M6 13.715l9.193-7.713" stroke="#E3E3E3" stroke-linecap="round"/></svg><svg viewBox="0 0 20 20" fill="none" id="controls_search"><path d="m18.464 17.443-4.307-4.308a7.227 7.227 0 1 0-1.02 1.02l4.307 4.308a.721.721 0 0 0 1.02-1.02Zm-9.891-3.098a5.773 5.773 0 1 1 0-11.545 5.773 5.773 0 0 1 0 11.545Z" fill="#8E8E8E"/></svg><svg viewBox="0 0 24 24" fill="none" id="controls_user"><path d="M12 12.5a4.61 4.61 0 0 0 2.593-.8 4.733 4.733 0 0 0 1.718-2.132 4.829 4.829 0 0 0 .266-2.745A4.777 4.777 0 0 0 15.3 4.391a4.642 4.642 0 0 0-2.39-1.3 4.59 4.59 0 0 0-2.696.27 4.686 4.686 0 0 0-2.094 1.75 4.81 4.81 0 0 0 .582 5.996A4.63 4.63 0 0 0 12 12.5Zm0-7.917c.615 0 1.217.186 1.728.534.512.348.91.843 1.146 1.421.236.579.297 1.216.177 1.83a3.184 3.184 0 0 1-.851 1.621c-.435.443-.99.745-1.593.867a3.06 3.06 0 0 1-1.798-.18 3.123 3.123 0 0 1-1.396-1.167A3.207 3.207 0 0 1 9.8 5.511a3.084 3.084 0 0 1 2.2-.928Zm0 9.5a6.946 6.946 0 0 0-4.947 2.09A7.198 7.198 0 0 0 5 21.207c0 .21.082.412.228.56a.77.77 0 0 0 1.1 0 .799.799 0 0 0 .228-.56c0-1.47.573-2.879 1.594-3.918A5.396 5.396 0 0 1 12 15.667c1.444 0 2.829.583 3.85 1.623a5.592 5.592 0 0 1 1.594 3.918c0 .21.082.412.228.56a.77.77 0 0 0 1.1 0 .799.799 0 0 0 .228-.56 7.198 7.198 0 0 0-2.052-5.035A6.946 6.946 0 0 0 12 14.082Z" fill="#fff"/></svg><svg viewBox="0 0 32 32" id="socials_telegram"><path d="M16 0C7.163 0 0 7.163 0 16s7.163 16 16 16 16-7.163 16-16S24.837 0 16 0Zm8.316 10.121-2.842 13.566a.999.999 0 0 1-1.573.6l-4.134-3.054-2.504 2.363a.34.34 0 0 1-.484-.019l-.053-.059.435-4.21 7.842-7.166a.21.21 0 0 0-.253-.333l-10.03 6.348-4.32-1.45a.587.587 0 0 1-.02-1.106l16.901-6.367a.778.778 0 0 1 1.035.887Z"/></svg><svg viewBox="0 0 32 32" id="socials_vk"><path d="M16 0C7.163 0 0 7.163 0 16s7.163 16 16 16 16-7.163 16-16S24.837 0 16 0Zm8.523 21.431h-2.03a1.463 1.463 0 0 1-1.145-.55c-.61-.764-1.809-2.12-3.068-2.702a.478.478 0 0 0-.683.433v2.008a.81.81 0 0 1-.81.811h-.94c-1.22 0-3.85-.743-5.944-3.795-1.785-2.6-2.58-4.615-3.045-6.248a.644.644 0 0 1 .62-.819h2.054a.951.951 0 0 1 .913.68c.382 1.276 1.37 4.032 3.12 5.404a.362.362 0 0 0 .585-.283v-3.217c0-.636-.275-1.272-.705-1.769a.492.492 0 0 1 .371-.815h3.167a.615.615 0 0 1 .615.615v4.333a.342.342 0 0 0 .54.278c.58-.414 1.079-1.025 1.536-1.712.577-.864 1.28-2.293 1.633-3.034a.84.84 0 0 1 .76-.48h2.24a.55.55 0 0 1 .491.793c-.565 1.134-1.666 3.214-2.702 4.434a.867.867 0 0 0 .102 1.222c.675.577 1.73 1.643 2.866 3.42a.643.643 0 0 1-.541.993Z"/></svg><svg viewBox="0 0 32 32" id="socials_whatsapp"><path fill-rule="evenodd" clip-rule="evenodd" d="M32 16c0 8.837-7.163 16-16 16S0 24.837 0 16 7.163 0 16 0s16 7.163 16 16ZM16.155 6.72c2.333 0 4.522.91 6.169 2.558a8.665 8.665 0 0 1 2.552 6.17c-.002 4.808-3.915 8.72-8.722 8.72h-.003a8.713 8.713 0 0 1-4.168-1.06L7.36 24.32l1.237-4.52a8.706 8.706 0 0 1-1.164-4.36c.002-4.808 3.915-8.72 8.722-8.72Z"/><path d="M20.13 17.267c-.217-.11-1.289-.637-1.489-.71-.2-.072-.345-.109-.49.11-.145.218-.563.708-.69.854-.127.145-.254.164-.472.055-.035-.018-.083-.039-.142-.064l-.002-.001c-.307-.134-.912-.396-1.608-1.017-.648-.578-1.086-1.292-1.213-1.51-.127-.218-.013-.336.096-.444.065-.065.14-.157.215-.248l.111-.134c.093-.108.133-.19.187-.3l.031-.064c.073-.145.037-.272-.018-.381-.036-.073-.24-.57-.426-1.022l-.004-.01-.003-.008-.239-.579c-.156-.375-.314-.374-.441-.373h-.049a8.635 8.635 0 0 0-.418-.008.8.8 0 0 0-.58.273l-.043.046c-.228.242-.72.768-.72 1.772 0 1.07.777 2.104.889 2.253l.036.051.002.004c.26.373 1.642 2.354 3.685 3.236.52.225.926.359 1.242.46.522.165.997.142 1.373.086.419-.063 1.29-.527 1.47-1.036.182-.51.182-.946.128-1.037-.044-.073-.147-.123-.3-.197a8.404 8.404 0 0 1-.117-.058Z"/></svg></svg>