<svg xmlns="http://www.w3.org/2000/svg"><style>:root svg:not(:target){display:none}</style><svg viewBox="0 0 40 40" fill="none" id="controls_arrow-without-tail"><path d="M31.183 13.683a1.667 1.667 0 0 0-2.366 0l-7.634 7.634a1.667 1.667 0 0 1-2.366 0l-7.634-7.634a1.667 1.667 0 1 0-2.366 2.35l7.65 7.65a5 5 0 0 0 7.066 0l7.65-7.65a1.667 1.667 0 0 0 0-2.35Z" fill="#F70F31"/></svg><svg viewBox="0 0 32 32" fill="none" id="controls_arrow"><path fill-rule="evenodd" clip-rule="evenodd" d="M17.246 8.801a1.225 1.225 0 0 1 1.732 0l6.334 6.333a1.225 1.225 0 0 1 0 1.732L18.978 23.2a1.225 1.225 0 1 1-1.732-1.732l4.243-4.243H7.557a1.225 1.225 0 1 1 0-2.45h13.932l-4.243-4.242a1.225 1.225 0 0 1 0-1.732Z" fill="#121212"/></svg><svg viewBox="0 0 32 32" fill="none" id="controls_cart"><path d="M28.327 6.845A3.46 3.46 0 0 0 25.666 5.6H6.983l-.049-.406a3.467 3.467 0 0 0-3.44-3.06h-.257a1.156 1.156 0 0 0 0 2.31h.256a1.156 1.156 0 0 1 1.148 1.02l1.59 13.52a5.778 5.778 0 0 0 5.738 5.105h12.068a1.156 1.156 0 0 0 0-2.311H11.969a3.466 3.466 0 0 1-3.259-2.311h13.775a5.778 5.778 0 0 0 5.686-4.753l.907-5.031a3.46 3.46 0 0 0-.75-2.838ZM26.81 9.271l-.908 5.032a3.467 3.467 0 0 1-3.417 2.851H8.343L7.256 7.912h18.41a1.156 1.156 0 0 1 1.144 1.361ZM10.17 29.867a2.311 2.311 0 1 0 0-4.622 2.311 2.311 0 0 0 0 4.622ZM21.725 29.867a2.311 2.311 0 1 0 0-4.622 2.311 2.311 0 0 0 0 4.622Z" fill="#fff"/></svg><svg viewBox="0 0 14 14" fill="none" id="controls_checkmark"><path d="m13 3-7.563 7L2 6.818" stroke="#F70F31" stroke-width="1.5" stroke-linecap="round" stroke-linejoin="round"/></svg><svg viewBox="0 0 32 32" fill="none" id="controls_cross"><path d="M24 8a1.334 1.334 0 0 0-1.886 0L16 14.114 9.885 8A1.333 1.333 0 0 0 8 9.885L14.114 16 8 22.114A1.333 1.333 0 0 0 9.885 24L16 17.885 22.114 24A1.334 1.334 0 0 0 24 22.114L17.885 16 24 9.885A1.334 1.334 0 0 0 24 8Z" fill="#F70F31"/></svg><svg viewBox="0 0 16 17" fill="none" id="contacts_clock"><path d="M6.168 15.833H1.281a.61.61 0 1 1 0-1.222h4.887a.611.611 0 0 1 0 1.222ZM4.946 13.39H1.281a.61.61 0 0 1 0-1.222h3.665a.61.61 0 1 1 0 1.222Zm-1.222-2.444H1.281a.61.61 0 1 1 0-1.222h2.443a.61.61 0 1 1 0 1.222Z" fill="#fff"/><path d="M8.614 15.805a.611.611 0 1 1-.055-1.222 6.11 6.11 0 1 0-6.64-6.637.61.61 0 0 1-1.217-.11 7.33 7.33 0 0 1 14.632.666 7.29 7.29 0 0 1-6.72 7.303Z" fill="#fff"/><path d="M8.002 4.837a.61.61 0 0 0-.611.61v3.055c0 .162.064.318.179.432l1.832 1.833a.61.61 0 0 0 .864-.864L8.612 8.25V5.448a.61.61 0 0 0-.61-.611Z" fill="#fff"/></svg><svg viewBox="0 0 16 17" fill="none" id="contacts_email"><g clip-path="url(#contacts_email_0)"><path d="M12.667 1.167H3.333A3.337 3.337 0 0 0 0 4.5v8a3.337 3.337 0 0 0 3.333 3.333h9.334A3.337 3.337 0 0 0 16 12.5v-8a3.338 3.338 0 0 0-3.333-3.333ZM3.333 2.5h9.334a2 2 0 0 1 1.853 1.258L9.415 8.864a2.005 2.005 0 0 1-2.83 0L1.48 3.758A2 2 0 0 1 3.333 2.5Zm9.334 12H3.333a2 2 0 0 1-2-2v-7l4.31 4.306a3.338 3.338 0 0 0 4.714 0l4.31-4.306v7a2 2 0 0 1-2 2Z" fill="#fff"/></g><defs><clipPath id="contacts_email_0"><path fill="#fff" transform="translate(0 .5)" d="M0 0h16v16H0z"/></clipPath></defs></svg><svg viewBox="0 0 16 17" fill="none" id="contacts_location"><g clip-path="url(#contacts_location_0)"><path d="m7.973 16.506-.465-.399c-.64-.536-6.235-5.367-6.235-8.901a6.7 6.7 0 0 1 13.4 0c0 3.534-5.595 8.365-6.233 8.904l-.467.396Zm0-14.551a5.257 5.257 0 0 0-5.25 5.25c0 2.22 3.44 5.767 5.25 7.39 1.809-1.623 5.25-5.172 5.25-7.39a5.257 5.257 0 0 0-5.25-5.25Z" fill="#fff"/><path d="M7.972 9.861a2.656 2.656 0 1 1 0-5.31 2.656 2.656 0 0 1 0 5.31Zm0-3.983a1.328 1.328 0 1 0 0 2.656 1.328 1.328 0 0 0 0-2.656Z" fill="#fff"/></g><defs><clipPath id="contacts_location_0"><path fill="#fff" transform="translate(0 .5)" d="M0 0h16v16H0z"/></clipPath></defs></svg><svg viewBox="0 0 16 17" fill="none" id="contacts_phone"><g clip-path="url(#contacts_phone_0)"><path d="m14.78 1.713-.7-.606a2.064 2.064 0 0 0-2.92 0c-.02.02-1.253 1.626-1.253 1.626a2.07 2.07 0 0 0 0 2.854l.774.973c-.974 2.207-2.487 3.727-4.62 4.633l-.974-.78a2.057 2.057 0 0 0-2.853 0S.627 11.646.607 11.666c-.806.807-.806 2.114-.033 2.887l.667.767c.766.767 1.8 1.186 2.92 1.186C9.254 16.506 16 9.753 16 4.666c0-1.113-.42-2.153-1.22-2.946v-.007ZM4.16 15.166c-.76 0-1.46-.28-1.94-.766l-.666-.767a.733.733 0 0 1-.027-1.006S3.121 11.4 3.141 11.38a.753.753 0 0 1 1.033 0c.02.02 1.36 1.093 1.36 1.093a.662.662 0 0 0 .653.1c2.76-1.053 4.74-3.026 5.88-5.873a.673.673 0 0 0-.1-.667s-1.073-1.346-1.086-1.36a.728.728 0 0 1 0-1.033c.02-.02 1.246-1.613 1.246-1.613.287-.26.734-.254 1.04.053l.7.607c.514.513.8 1.213.8 1.973 0 4.64-6.513 10.506-10.506 10.506Z" fill="#fff"/></g><defs><clipPath id="contacts_phone_0"><path fill="#fff" transform="translate(0 .5)" d="M0 0h16v16H0z"/></clipPath></defs></svg></svg>