<svg xmlns="http://www.w3.org/2000/svg"><style>:root svg:not(:target){display:none}</style><svg viewBox="0 0 40 40" fill="none" id="controls_arrow-without-tail"><path d="M31.183 13.683a1.667 1.667 0 0 0-2.366 0l-7.634 7.634a1.667 1.667 0 0 1-2.366 0l-7.634-7.634a1.667 1.667 0 1 0-2.366 2.35l7.65 7.65a5 5 0 0 0 7.066 0l7.65-7.65a1.667 1.667 0 0 0 0-2.35Z" fill="#F70F31"/></svg><svg viewBox="0 0 32 32" fill="none" id="controls_arrow"><path fill-rule="evenodd" clip-rule="evenodd" d="M17.246 8.801a1.225 1.225 0 0 1 1.732 0l6.334 6.333a1.225 1.225 0 0 1 0 1.732L18.978 23.2a1.225 1.225 0 1 1-1.732-1.732l4.243-4.243H7.557a1.225 1.225 0 1 1 0-2.45h13.932l-4.243-4.242a1.225 1.225 0 0 1 0-1.732Z" fill="#121212"/></svg><svg viewBox="0 0 32 32" fill="none" id="controls_cart"><path d="M28.327 6.845A3.46 3.46 0 0 0 25.666 5.6H6.983l-.049-.406a3.467 3.467 0 0 0-3.44-3.06h-.257a1.156 1.156 0 0 0 0 2.31h.256a1.156 1.156 0 0 1 1.148 1.02l1.59 13.52a5.778 5.778 0 0 0 5.738 5.105h12.068a1.156 1.156 0 0 0 0-2.311H11.969a3.466 3.466 0 0 1-3.259-2.311h13.775a5.778 5.778 0 0 0 5.686-4.753l.907-5.031a3.46 3.46 0 0 0-.75-2.838ZM26.81 9.271l-.908 5.032a3.467 3.467 0 0 1-3.417 2.851H8.343L7.256 7.912h18.41a1.156 1.156 0 0 1 1.144 1.361ZM10.17 29.867a2.311 2.311 0 1 0 0-4.622 2.311 2.311 0 0 0 0 4.622ZM21.725 29.867a2.311 2.311 0 1 0 0-4.622 2.311 2.311 0 0 0 0 4.622Z" fill="#fff"/></svg><svg viewBox="0 0 14 14" fill="none" id="controls_checkmark"><path d="m13 3-7.563 7L2 6.818" stroke="#F70F31" stroke-width="1.5" stroke-linecap="round" stroke-linejoin="round"/></svg><svg viewBox="0 0 32 32" fill="none" id="controls_cross"><path d="M24 8a1.334 1.334 0 0 0-1.886 0L16 14.114 9.885 8A1.333 1.333 0 0 0 8 9.885L14.114 16 8 22.114A1.333 1.333 0 0 0 9.885 24L16 17.885 22.114 24A1.334 1.334 0 0 0 24 22.114L17.885 16 24 9.885A1.334 1.334 0 0 0 24 8Z" fill="#F70F31"/></svg></svg>