<svg width="250" height="60" fill="none" xmlns="http://www.w3.org/2000/svg"><g clip-path="url(#a)"><path fill-rule="evenodd" clip-rule="evenodd" d="M98.65 40.33c-4.138-2.119-3.444-15.078 1.389-14.947 1.389 0 2.59 1.374 2.46 3.521l4.471.044v-5.362c-6.526-1.359-11.07-.95-13.862 1.125-4.833 3.565-5.122 14.654-.087 18.175 4.182 2.893 10.997 2.396 14.151-2.118l-1.432-2.148c-2.011 2.28-5.007 2.776-7.09 1.71ZM84.99 25.12v-2.279h-8.16v1.198c.695.336 1.433.701 2.127 1.198v13.135c-1.432 1.782-3.038 2.615-4.34 2.396-2.547-.41-2.099-4.018-2.099-5.917l-.043-12.01h-8.16v1.198c.737.336 1.432.701 2.126 1.198V38.08c-.087 6.136 5.21 9.277 12.516 3.813v2.191h8.537v-1.198a12.512 12.512 0 0 1-2.503-1.373V25.12Zm-66.572-2.484h2.908c.536-2.688 1.447-4.514 3.864-4.923h2.213v24.18c-.694.409-1.432.745-2.17 1.037v1.154h11.358V42.93a15.981 15.981 0 0 1-2.503-1.242V17.713h2.214c2.416.409 3.285 2.235 3.82 4.923h3.284v-7.363H18.418v7.363Zm34.74 3.273v-3.068h-8.536v1.198c.694.292 1.389.628 2.098 1.037V41.85c-.695.453-1.39.79-2.098 1.081v1.154h10.635V42.93a13.648 13.648 0 0 1-2.098-1.08V30.554c0-1.738.376-2.776 2.127-3.52 1.36-.63 2.59-.132 3.328 1.87h3.69v-5.889c-5.08-.38-7.829.366-9.145 2.893Zm71.739 5.012 5.05-4.88h-.044a14.403 14.403 0 0 1 3.039-1.651v-1.17h-10.78v1.155c.623.248 1.23.54 1.809.877v2.483l-4.514 3.974h-1.679V13.856h-8.377v1.212a12.84 12.84 0 0 1 2.098 1.125v25.641c-.695.453-1.389.833-2.098 1.125v1.155h10.142V42.96c-.622-.249-1.186-.585-1.765-.95v-7.875h1.925l4.138 5.844c.897 1.286.897 2.323 0 2.98v1.155h10.128V42.96a11.651 11.651 0 0 1-1.476-.746l-7.596-11.293Zm96.958-5.012v-3.068h-8.58v1.198c.695.292 1.389.628 2.098 1.037V41.85c-.694.453-1.389.79-2.098 1.081v1.154h10.635V42.93c-.694-.292-1.389-.628-2.055-1.08V30.554c0-1.738.333-2.776 2.098-3.52 1.361-.63 2.59-.132 3.328 1.87h3.69v-5.889c-5.093-.38-7.842.366-9.116 2.893Zm-53.984 11.016v-11.22h5.744v-2.616h-5.744v-5.58h-6.526v5.595c-.622.657-1.476.745-2.706.877v1.738h2.706v12.887c-.043 2.235.651 3.681 1.852 4.631 2.619 2.075 5.86 1.651 8.566.497.94-.41 1.809-.906 2.547-1.578l-1.028-1.943c-3.4 1.315-5.657.935-5.411-3.288Zm-14.354-7.539c-1.924-1.534-4.471-2.483-6.395-3.857-3.357-2.323-3.892-8.24 1.36-7.948 2.46.16 4.674 1.242 4.558 4.471h3.241v-6.53c-7.061-1.491-11.85-.907-14.846.949-4.471 2.776-3.935 7.583-1.881 10.972 1.23 1.943 3.357 3.521 5.586 4.72 3.038 1.621 7.712 5.055 3.689 8.824-1.968 1.9-7.017 1.198-8.32-4.222l-2.951-.132.043 7.378c8.407 1.33 14.194.79 16.9-2.147 2.952-3.273 2.431-9.775-.984-12.478Zm44.102-3.477-4.181-13.135-4.182 13.135-13.659-.044 11.04 8.08-4.225 13.135 11.04-8.124 11.04 8.124-4.268-13.135 11.069-8.08-13.674.044Z" fill="#F70F31"/></g><defs><clipPath id="a"><path fill="#fff" transform="translate(18 12)" d="M0 0h214v36H0z"/></clipPath></defs></svg>