<svg width="151" height="78" fill="none" xmlns="http://www.w3.org/2000/svg"><g clip-path="url(#a)" fill="#121212"><path d="m75.43 40.014-1.162-.996c-1.601-1.341-15.586-13.42-15.586-22.254C58.682 7.514 66.18.016 75.43.016s16.748 7.498 16.748 16.748c0 8.835-13.985 20.913-15.58 22.26l-1.168.99Zm0-36.377c-7.246.008-13.119 5.88-13.127 13.127 0 5.55 8.604 14.416 13.127 18.474 4.523-4.06 13.127-12.93 13.127-18.474-.008-7.246-5.88-13.119-13.127-13.127Z"/><path d="M75.43 23.403a6.639 6.639 0 1 1 0-13.278 6.639 6.639 0 0 1 0 13.278Zm0-9.959a3.32 3.32 0 1 0 0 6.64 3.32 3.32 0 0 0 0-6.64Z"/></g><rect y="48" width="151" height="30" rx="15" fill="#F6F7F9"/><g clip-path="url(#b)"><g clip-path="url(#c)"><path fill-rule="evenodd" clip-rule="evenodd" d="M59.372 69.312c-2.533-1.295-2.108-9.214.85-9.134.85 0 1.585.84 1.506 2.152l2.737.027V59.08c-3.995-.83-6.776-.58-8.486.687-2.958 2.179-3.135 8.956-.053 11.107 2.56 1.768 6.732 1.465 8.663-1.294l-.877-1.313c-1.231 1.393-3.065 1.697-4.34 1.045Zm-8.362-9.295v-1.393h-4.995v.733c.425.205.877.428 1.302.732v8.026c-.877 1.09-1.86 1.599-2.657 1.465-1.56-.25-1.285-2.456-1.285-3.616l-.026-7.34h-4.996v.733c.452.205.877.428 1.302.732v7.848c-.053 3.75 3.189 5.67 7.662 2.33v1.34h5.226v-.733a7.66 7.66 0 0 1-1.533-.839V60.017ZM10.258 58.5h1.78c.328-1.642.886-2.759 2.365-3.009h1.355v14.777a9.52 9.52 0 0 1-1.328.634v.706h6.953V70.9a9.779 9.779 0 0 1-1.533-.759V55.491h1.355c1.48.25 2.011 1.366 2.339 3.008h2.01V54H10.258v4.5Zm21.266 2v-1.875h-5.226v.733c.426.178.85.383 1.285.633v10.25c-.425.277-.85.483-1.285.661v.706h6.51V70.9a8.348 8.348 0 0 1-1.284-.66v-6.902c0-1.063.23-1.697 1.302-2.152.833-.384 1.586-.08 2.038 1.143h2.258v-3.598c-3.109-.233-4.792.223-5.598 1.767Zm43.915 3.063 3.091-2.982h-.026a8.823 8.823 0 0 1 1.86-1.01v-.713h-6.6v.705c.382.152.754.33 1.108.536v1.517l-2.763 2.43H71.08V53.132h-5.128v.741c.425.179.85.402 1.284.688v15.67c-.425.276-.85.508-1.284.687v.705h6.209v-.705c-.381-.152-.727-.357-1.08-.58v-4.813h1.177l2.533 3.572c.55.785.55 1.42 0 1.821v.705h6.2v-.705a7.135 7.135 0 0 1-.903-.455l-4.65-6.902Zm59.353-3.063v-1.875h-5.252v.733c.425.178.85.383 1.284.633v10.25c-.425.277-.85.483-1.284.661v.706h6.51V70.9a7.071 7.071 0 0 1-1.258-.66v-6.902c0-1.063.204-1.697 1.284-2.152.833-.384 1.586-.08 2.037 1.143h2.259v-3.598c-3.118-.233-4.801.223-5.58 1.767Zm-33.047 6.733v-6.858h3.517v-1.598h-3.517v-3.41h-3.994v3.42c-.381.4-.904.454-1.657.535v1.062h1.657v7.875c-.027 1.366.398 2.25 1.133 2.83 1.604 1.269 3.588 1.01 5.244.304.576-.25 1.107-.553 1.559-.964l-.629-1.188c-2.082.804-3.463.572-3.313-2.008Zm-8.786-4.608c-1.178-.937-2.737-1.517-3.915-2.357-2.055-1.42-2.383-5.035.832-4.857 1.506.098 2.861.76 2.79 2.732h1.984v-3.99c-4.322-.912-7.254-.554-9.087.58-2.737 1.696-2.41 4.633-1.152 6.705.753 1.187 2.055 2.152 3.42 2.884 1.86.99 4.72 3.09 2.258 5.393-1.205 1.16-4.296.732-5.093-2.58l-1.807-.081.027 4.509c5.146.812 8.689.482 10.345-1.313 1.807-2 1.488-5.973-.602-7.625Zm26.997-2.125-2.56-8.026-2.56 8.026-8.361-.026 6.758 4.937-2.586 8.027 6.758-4.964 6.758 4.964-2.613-8.027 6.776-4.937-8.37.026Z" fill="#F70F31"/></g></g><defs><clipPath id="a"><path fill="#fff" transform="translate(55.5)" d="M0 0h40v40H0z"/></clipPath><clipPath id="b"><path fill="#fff" transform="translate(10 52)" d="M0 0h131v22H0z"/></clipPath><clipPath id="c"><path fill="#fff" transform="translate(10 52)" d="M0 0h131v22H0z"/></clipPath></defs></svg>